<svg viewBox="0 0 120 110" xmlns="http://www.w3.org/2000/svg">
    <style>
    .st0 {
      fill:#FFF000;
    }
    .st1 {
      fill:url(#icon_gradient_1);
    }
    .st2 {
      fill:url(#icon_gradient_2);
    }
    .st3 {
      fill:url(#icon_gradient_3);
    }
    .st4 {
      fill:#FF8500;
    }
    .st5 {
      fill:#FFC000;
    }
    </style>
    <path class="st0" d="M71.3,31l1.9-1.1c4.1-2.5,14.8-7.7,26.3-1.2l1.2,0.7l-0.1,1.4c-0.2,2.2-0.6,4.3-1.2,6.4l-1.8,4.8
      c0,0-20-4.3-23.3-2.3L71.3,31z"/>
    <path class="st0" d="M20.7,49.5l-3.3-4.1c-2.5-3.5-4.1-7.6-4.4-11.9l-0.1-1.4l1.1-0.7c14.1-8.7,27.6,1.1,28.1,1.5l2.6,12.2
      L20.7,49.5z"/>
    <linearGradient id="icon_gradient_1" gradientUnits="userSpaceOnUse" x1="-1.159087e-03" y1="44.2692" x2="52.6005" y2="44.2692" gradientTransform="matrix(1 0 0 -1 0 110)">
        <stop  offset="0.5" style="stop-color:#FFF000"/>
        <stop  offset="1" style="stop-color:#FFC810"/>
    </linearGradient>
    <path class="st1" d="M7.8,85.2c-2.2-0.5-4.3-1.2-6.4-2C0.5,82.9,0,82,0,81.1c0.5-10.8,4.3-19.4,11.3-25.5
      c13.1-11.7,32.7-10.5,33.5-10.5c1.2,0.1,2.1,1.1,2,2.3c0,0.4,5.9,2.1,5.8,6.3c-0.1,8.3-6.2,21.7-5.8,22.4c0.6,1,0.3,2.4-0.8,3
      c0,0,0,0,0,0C45.2,79.6,27.5,89.7,7.8,85.2z"/>
    <linearGradient id="icon_gradient_2" gradientUnits="userSpaceOnUse" x1="92.6401" y1="33.9492" x2="92.6401" y2="71.686" gradientTransform="matrix(1 0 0 -1 0 110)">
        <stop  offset="0.5" style="stop-color:#FFF000"/>
        <stop  offset="1" style="stop-color:#FFC810"/>
    </linearGradient>
    <path class="st2" d="M89.1,74.6C83.8,73.4,78.7,71.5,74,69c-1-0.6-1.4-2-0.8-3c0.3-0.5-7.6-6.9-7.9-12.9c-0.3-6.2,7-11.8,7-12.4
      c-0.1-1.2,0.8-2.2,2-2.3c7.2-0.3,14.5,0.7,21.4,2.9c14.5,4.8,23,14.9,24.3,29.3c0.1,1-0.5,1.9-1.4,2.2
      C107.9,77.1,97.3,76.5,89.1,74.6z"/>
    <linearGradient id="icon_gradient_3" gradientUnits="userSpaceOnUse" x1="62.0781" y1="0.1584" x2="62.0781" y2="64.9782" gradientTransform="matrix(1 0 0 -1 0 110)">
        <stop  offset="0.5" style="stop-color:#FFF000"/>
        <stop  offset="1" style="stop-color:#FFC810"/>
    </linearGradient>
    <path class="st3" d="M61.8,109.8c-0.4-0.1-0.7-0.3-1-0.6C47.4,96.1,44.2,82.6,43.9,73.7C43.6,68,44.5,62.3,46.6,57
      c0.5-1.1,3.3-6.8,4.4-6.3c0.5,0.2,3.4-5.2,7.9-5.6c5.2-0.4,7.4,4,7.9,3.6c1-0.7,5.4,5,6.1,5.9c3.6,5.3,6,11.4,7,17.9
      c1.4,9.6-0.3,23.8-16.2,36.9C63.1,109.8,62.4,109.9,61.8,109.8z"/>
    <path class="st4" d="M40.5,29.2c0.5,6.3-0.4,14.9,3,22.8c0.7,1.6,1.6,3.1,2.8,4.4c4.4,4.6,10.8,4.5,12,4.5c3.5,0,6.9-1.1,9.8-3.2
      c1.9-1.5,3.5-3.4,4.6-5.6c4.4-8.3,3.8-18.4,3.6-22.6C76.2,29.5,40,23,40.5,29.2z"/>
    <path class="st5" d="M32.6,6.3C34.4,4,39.9,8.1,44,5.7c2.7-1.6,1.7-4.1,4.2-5.1s4,1.6,9.7,1.7c1.8,0.2,3.5,0,5.2-0.6
      c2.2-0.8,3.2-1.9,4.6-1.5c1.1,0.5,1.9,1.3,2.4,2.3c1,1.6,0.6,2.3,1.4,3c0.9,0.8,2.1,0.2,4.3-0.1c0.6-0.1,7.3-0.9,8.6,1.5
      c0.1,0.5,0.2,1,0.2,1.5c0.1,3.3-0.7,4.1-0.2,5.2c0.4,1,1.1,0.7,3.8,2.3c2.1,1.3,3.4,2.2,3.6,3.5c0,1-0.3,2-1,2.7
      c-1.8,2.7-3.8,2.5-4.2,4.4c-0.2,1-0.2,2-0.2,3c0,1,0,1.4-0.2,1.7c-0.5,0.5-1.4,0.1-3.2-0.2c-1.4-0.4-2.8-0.5-4.2-0.3
      c-1.3,0.3-2.5,1.1-3.3,2.1c-2.1,2.2-1.7,4-2.9,4.3c-1.9,0.6-3.4-3.7-6.4-3.6c-1.6,0.1-3,1.3-5,3c-1.8,1.5-2.5,2.7-3.3,2.5
      s-0.6-1.3-1.8-2.7c-0.8-1-1.8-1.7-3-2.1c-0.4-0.1-1.3-0.3-6,1.3c-2.5,0.8-2.5,1-3,0.9C41.3,36,41.7,30.8,39,30
      c-0.9-0.3-1,0.4-4.3,0.8s-4-0.1-4.2-0.3c-0.4-0.5-0.3-1.3-0.2-2.6s0.5-1.5,0.3-2.1c-0.3-1.1-1.8-1-3.5-2.2c-1.1-0.8-2.7-2.6-2.4-4.2
      s2.9-2.8,4-3.3s2-0.6,2.7-1.4c0.5-0.7,0.8-1.5,0.9-2.3c0.1-1.3-0.5-1.7-0.6-3C31.8,8.2,32,7.2,32.6,6.3z"/>
    <path class="st4" d="M42.3,24.3c-0.6-0.7,0.8-3.1,2.5-4.9c4.8-5.1,12.3-5.3,14.3-5.3s9.9,0.1,13.5,5.4c1.4,2,2.2,4.9,1.6,5.3
      c-0.4,0.3-1.1-0.8-2.8-1.3C69,22.8,68,24.5,64,25.2c-1.7,0.2-3.5,0.2-5.2,0.1c-1.5,0-3,0-4.5-0.2c-3.5-0.6-3.8-1.7-6.3-1.8
      C44.8,23.1,42.9,24.9,42.3,24.3z"/>
</svg>