<svg xmlns="http://www.w3.org/2000/svg" viewBox="0 0 100 100"><defs><style>.cls-1{fill:#fff}</style></defs><path class="cls-1" d="M20.73 2v75.27a2 2 0 0 0 2 2H98a2 2 0 0 0 2-2V2a2 2 0 0 0-2-2H22.73a2 2 0 0 0-2 2zm48.61 63.27H36.76a2 2 0 0 1-2-2v-7a2 2 0 0 1 2-2h32.58a2 2 0 0 1 2 2v7a2 2 0 0 1-2 2zm6.1-20.15H36.76a2 2 0 0 1-2-2v-7a2 2 0 0 1 2-2h38.68a2 2 0 0 1 2 2v7a2 2 0 0 1-2 2zM81.54 25H36.76a2 2 0 0 1-2-2v-7a2 2 0 0 1 2-2h44.78a2 2 0 0 1 2 2v7a2 2 0 0 1-2 2zM2 20.73h7a2 2 0 0 1 2 2V100H2a2 2 0 0 1-2-2V22.73a2 2 0 0 1 2-2z"/><path class="cls-1" d="M39.15 54.88h6v77.27a2 2 0 0 1-2 2h-7a2 2 0 0 1-2-2V59.88a5 5 0 0 1 5-5z" transform="rotate(-90 39.635 94.515)"/></svg>