<svg version="1.1" xmlns="http://www.w3.org/2000/svg" xmlns:xlink="http://www.w3.org/1999/xlink" x="0" y="0" viewBox="0 0 100 100" xml:space="preserve"><style>.st2{fill-rule:evenodd;clip-rule:evenodd;fill:#2d3047}</style><defs><path id="SVGID_1_" d="M-2-1.4h104V99.4H-2z"/></defs><clipPath id="SVGID_2_"><use xlink:href="#SVGID_1_" overflow="visible"/></clipPath><path d="M36.9 29c-5.5-.7-11.6 1.3-17.2 5.3-7.5 5.2-14.4 14-19.1 24.9-.3.7-.1 1.5.5 1.9.6.4 1.4.4 2 0C9.9 55.8 15.2 53 19 52.4c3.7-.6 5.8.4 7.7 3.6.3.5.9.9 1.5.8.6 0 1.2-.4 1.4-1 3.8-8.7 8.3-16.3 13.3-22.8.3-.4.4-.9.3-1.4-.1-.5-.4-.9-.9-1.1-1.7-.7-3.5-1.3-5.4-1.5zm-5.2 3.4c2.5-.5 4.8.2 7.1.9-4.2 5.7-8 12.1-11.2 19.3-2.4-2.5-5.4-4-9.2-3.4-3.3.6-7.1 2.6-11.4 5.3 4.2-7.5 9.1-13.8 14.6-17.6 3.4-2.4 6.8-3.9 10.1-4.5zm36 24.2c-.4 0-.7.1-1 .3-6.5 5-14.1 9.6-22.8 13.3-.6.2-.9.8-1 1.4 0 .6.3 1.2.8 1.5 3.2 1.8 4.3 3.9 3.6 7.7-.6 3.7-3.5 9.1-8.7 15.9-.5.6-.5 1.4 0 2 .4.6 1.2.8 1.9.5 11-4.7 19.7-11.6 24.9-19.1 5.2-7.5 7.1-15.7 3.6-22.6-.1-.5-.6-.8-1.3-.9zM66.5 61c1.6 5.1.6 11.1-3.7 17.2-3.8 5.4-10.2 10.4-17.6 14.6 2.7-4.2 4.8-8.1 5.3-11.4.6-3.8-.9-6.8-3.4-9.2 7.3-3.2 13.7-7 19.4-11.2zm-43.6-.8l-1 1.9-3.6 6.5 13 12.9 8.1-4.7-16.5-16.6zm.8 5.4l10.5 10.5-2.3 1.4-9.5-9.4 1.3-2.5zm0 0" clip-path="url(#SVGID_2_)" fill-rule="evenodd" clip-rule="evenodd" fill="#2d3047"/><path d="M17.6 74.5l-7.7 7.7 1.5 1.5 7.7-7.7-1.5-1.5zm-9.2 9.2l-1.5 1.5 1.5 1.5 1.5-1.5-1.5-1.5zm12.3-6.1L8.4 89.9l1.5 1.5 12.3-12.3-1.5-1.5zM6.8 91.4l-1.5 1.5 1.5 1.6 1.5-1.6-1.5-1.5zm17-10.8l-9.2 9.2 1.5 1.5 9.2-9.2-1.5-1.5zM13 91.4l-1.5 1.5 1.5 1.6 1.6-1.6-1.6-1.5zm0 0" fill-rule="evenodd" clip-rule="evenodd" fill="#ffc810"/><path class="st2" d="M70.4 6.7c-.3 0-.5.1-.7.2-21.4 10.8-36.2 30.9-44 49.7-.3.6-.1 1.3.4 1.8l15.4 15.4c.5.5 1.2.6 1.8.4 18.8-7.7 39.2-22.6 50-44 .4-.8.1-1.8-.7-2.2-.8-.4-1.8-.1-2.2.7C80.1 48.8 60.9 63 42.9 70.6L29.2 56.9C36.8 39 51 20 71.2 9.8c.7-.3 1-1.1.9-1.8-.3-.8-.9-1.3-1.7-1.3zm0 0"/><path class="st2" d="M73 5.3c-.2 0-.4 0-.6.1-1.7.7-4.8 2.6-6 3.2-.5.2-.8.7-.9 1.2-.1.5.1 1 .5 1.4l22.8 22.5c.4.4.9.5 1.4.4.5-.1 1-.4 1.2-.9.3-.6.9-1.7 1.5-2.7.6-1.1 1.2-2.1 1.6-3 .3-.6.1-1.3-.3-1.8l-20-20c-.3-.2-.7-.4-1.2-.4zm-.2 3.6L91 27.2c-.3.5-.5 1.1-.9 1.7-.2.4-.4.6-.5 1L69.8 10.5c1.1-.6 2.1-1.1 3-1.6zm0 0"/><path class="st2" d="M97.9.2c-9.4 0-17.9 2-25.7 5.3-.5.2-.9.7-1 1.2-.1.5.1 1.1.4 1.4l20.1 20.1c.4.4.9.5 1.5.4.5-.1 1-.5 1.2-1 3.3-7.8 5.2-16.5 5.2-25.9 0-.7-.8-1.5-1.7-1.5zm-1.8 3.5c-.2 7.3-1.6 14.1-4 20.4L75.9 7.7c6.2-2.3 13-3.8 20.2-4zm0 0"/><path d="M71.4 28.4c-3.2-3.2-8.4-3.2-11.5 0-3.2 3.2-3.2 8.3 0 11.5 3.2 3.2 8.3 3.2 11.5 0 3.1-3.2 3.1-8.4 0-11.5zm-2.3 2.3c1.9 1.9 1.9 5 0 6.9-1.9 1.9-5 1.9-6.9 0-1.9-1.9-1.9-5 0-6.9 1.9-2 4.9-2 6.9 0zm0 0" fill="#ffc810"/></svg>