<svg xmlns="http://www.w3.org/2000/svg" xmlns:xlink="http://www.w3.org/1999/xlink" viewBox="0 0 100 100"><style>.st3,.st4{fill-rule:evenodd;clip-rule:evenodd;fill:#ffc810}.st4{fill:#2d3047}</style><g id="Layer_2"><defs><path id="SVGID_3_" d="M0 9.4h100v81.3H0z"/></defs><clipPath id="SVGID_4_"><use xlink:href="#SVGID_3_" overflow="visible"/></clipPath><path d="M82.9 14.5c-2.7.1-5.4.8-7.9 2.3L56.8 27.3c-6 3.5-9 10.1-8.3 16.6.1.5.4 1 .9 1.2.5.2 1 .2 1.5 0l7.3-4.3c.3-.2.6-.5.7-.9.5-1.6 1.6-3 3.1-3.9l17.8-10.4c3.3-1.9 7.3-.9 9.2 2.3 1.8 3.2.7 7.3-2.6 9.2L68.6 47.6c-1.6.9-3.3 1.1-4.9.8-.4-.1-.8 0-1.1.2l-7.3 4.3c-.5.3-.7.7-.8 1.3 0 .5.2 1 .6 1.3 5.2 3.9 12.4 4.6 18.4 1.1L91.7 46c8-4.7 10.7-14.9 6.1-23-3.2-5.6-9-8.7-14.9-8.5zm0 3.1c4.8-.1 9.5 2.3 12.1 6.9 3.8 6.6 1.6 14.9-5 18.7L71.9 53.8c-4 2.3-8.4 1.9-12.3.1l4.6-2.6c2 .2 4.1.1 6-1L88 39.9c4.7-2.7 6.4-8.8 3.7-13.5C89 21.8 83 20.2 78.3 23L60.5 33.3c-1.9 1.1-3 2.9-3.8 4.8l-4.5 2.6c.4-4.3 2.2-8.4 6.2-10.7l18.2-10.6c2-1.1 4.2-1.7 6.3-1.8zM34.4 42.7c-2.7.1-5.4.8-7.9 2.3L8.3 55.5c-8 4.6-10.7 14.9-6.1 23 4.6 8 14.8 10.8 22.8 6.2l18.2-10.6c6-3.5 9-10.1 8.2-16.6-.1-.5-.4-1-.8-1.2-.5-.2-1-.2-1.5 0l-7.3 4.3c-.3.2-.6.5-.7.9-.5 1.6-1.6 3-3.1 3.9L20.2 75.7c-3.3 1.9-7.3.9-9.2-2.3-1.8-3.2-.7-7.3 2.6-9.2l17.8-10.4c1.6-.9 3.3-1.1 4.9-.8.4.1.8 0 1.1-.2l7.3-4.3c.4-.3.7-.7.8-1.3 0-.5-.2-1-.6-1.3-3-2.2-6.7-3.3-10.5-3.2zm.1 3.1c2 0 3.9 1 5.7 1.8l-4.4 2.6c-2-.2-4.1-.2-6 .9L12 61.5c-4.7 2.7-6.4 8.8-3.7 13.4 2.7 4.7 8.7 6.2 13.5 3.5L39.6 68c1.9-1.1 3-2.9 3.8-4.8l4.5-2.6c-.4 4.3-2.2 8.4-6.3 10.7L23.5 81.9C17 85.7 8.7 83.5 5 76.9 1.2 70.3 3.4 62 10 58.2l18.1-10.6c2-1.2 4.2-1.8 6.4-1.8z" clip-path="url(#SVGID_4_)" fill="#2d3047"/><path d="M64.9 35.9c-1.9-.5-4-.2-5.9.9L33.7 51.4c-3.7 2.2-5.1 6.8-3 10.5 2.1 3.6 6.9 4.8 10.5 2.6l25.3-14.7c3.7-2.1 5.1-6.8 3-10.5-1-1.8-2.7-3-4.6-3.4zm-.8 3c1.1.3 2.1 1 2.7 2 1.2 2.1.4 4.9-1.9 6.2L39.7 61.8c-2.3 1.4-5.1.6-6.3-1.5-1.2-2.1-.4-4.9 1.9-6.2l25.3-14.7c1.1-.6 2.4-.8 3.5-.5z" fill="#2d3047"/><path class="st3" d="M48.4 10.8v7.1h3.1v-7.1h-3.1zm0 72.8v7h3.1v-7h-3.1zm33.5-25.9l-.8 3 6.7 1.8.8-3-6.7-1.8zM12.2 38.9l-.8 3 6.8 1.8.8-3-6.8-1.8zm53 41l-2.8 1.3 2.9 6.4 2.8-1.3-2.9-6.4zM34.8 13.8L32 15.1l3 6.4 2.8-1.3-3-6.4zm40 58.3l-2.1 2.3 5.1 4.8 2.1-2.3-5.1-4.8zM22.3 22.2l-2.2 2.3 5.1 4.8 2.1-2.3-5-4.8z"/></g></svg>