<svg xmlns="http://www.w3.org/2000/svg" xmlns:xlink="http://www.w3.org/1999/xlink" viewBox="0 0 2002 2001"><defs><style>.cls-1{fill:url(#radial-gradient);}.cls-2{mask:url(#mask);}.cls-3{fill:none;stroke:#6c64c9;stroke-linecap:round;stroke-linejoin:round;}.cls-4{fill:#6c64c9;}.cls-5{filter:url(#AI_GaussianBlur_4);}.cls-6{fill:url(#linear-gradient);}.cls-7{fill:#71e9ff;}.cls-8{fill:#fff;}.cls-9{fill:url(#linear-gradient-2);}.cls-10{fill:url(#radial-gradient-2);}.cls-11{fill:url(#radial-gradient-3);}.cls-12{fill:#2d3047;}.cls-13{fill:url(#linear-gradient-3);}.cls-14{opacity:0.75;}.cls-15{fill:#ddd;}.cls-16{fill:#efefef;}</style><radialGradient id="radial-gradient" cx="900.56" cy="1099.47" r="900.46" gradientTransform="translate(-0.11 -221) scale(1.11)" gradientUnits="userSpaceOnUse"><stop offset="0" stop-color="#fff"/><stop offset="0.32" stop-color="#fff" stop-opacity="0.99"/><stop offset="0.46" stop-color="#fff" stop-opacity="0.96"/><stop offset="0.56" stop-color="#fff" stop-opacity="0.92"/><stop offset="0.65" stop-color="#fff" stop-opacity="0.85"/><stop offset="0.72" stop-color="#fff" stop-opacity="0.75"/><stop offset="0.79" stop-color="#fff" stop-opacity="0.64"/><stop offset="0.85" stop-color="#fff" stop-opacity="0.51"/><stop offset="0.9" stop-color="#fff" stop-opacity="0.36"/><stop offset="0.95" stop-color="#fff" stop-opacity="0.19"/><stop offset="1" stop-color="#fff" stop-opacity="0"/></radialGradient><mask id="mask" x="0" y="0" width="2002" height="2001" maskUnits="userSpaceOnUse"><g transform="translate(0.5 0.5)"><rect class="cls-1" width="2000" height="2000"/></g></mask><filter id="AI_GaussianBlur_4" name="AI_GaussianBlur_4"><feGaussianBlur stdDeviation="4"/></filter><linearGradient id="linear-gradient" x1="314.49" y1="1671.72" x2="1007.44" y2="1671.72" gradientUnits="userSpaceOnUse"><stop offset="0" stop-color="#e6e4f6"/><stop offset="1" stop-color="#c0bde8"/></linearGradient><linearGradient id="linear-gradient-2" x1="651" y1="1838.78" x2="651" y2="1475.02" gradientUnits="userSpaceOnUse"><stop offset="0" stop-color="#e6e4f6"/><stop offset="1" stop-color="#9691d9"/></linearGradient><radialGradient id="radial-gradient-2" cx="928.64" cy="1250.33" r="607.42" gradientTransform="matrix(Infinity, Infinity, Infinity, Infinity, Infinity, Infinity)" xlink:href="#linear-gradient"/><radialGradient id="radial-gradient-3" cx="1224.03" cy="738.68" r="536.3" gradientTransform="matrix(Infinity, Infinity, Infinity, Infinity, Infinity, Infinity)" xlink:href="#linear-gradient"/><linearGradient id="linear-gradient-3" x1="796.35" y1="743.78" x2="1638" y2="743.78" xlink:href="#linear-gradient-2"/></defs><title>pwa-illustration</title><g id="circles"><g class="cls-2"><line class="cls-3" x1="69.64" y1="1999.79" x2="1.53" y2="1960.47"/><line class="cls-3" x1="2000.33" y1="1960.02" x2="0.5" y2="805.41"/><line class="cls-3" x1="2000.5" y1="1383.32" x2="0.5" y2="228.62"/><polyline class="cls-3" points="1746.71 0.5 873.6 504.59 0.5 1008.67"/><polyline class="cls-3" points="2000.5 431.32 1000.5 1008.67 0.5 1586.02"/><polyline class="cls-3" points="2000.5 1008.67 1141.55 1504.59 282.6 2000.5"/><polyline class="cls-3" points="2000.5 1586.02 1641.55 1793.26 1282.61 2000.5"/><line class="cls-3" x1="1071.57" y1="2000.5" x2="0.5" y2="1382.12"/><line class="cls-3" x1="2000.5" y1="805.54" x2="606.12" y2="0.5"/><line class="cls-3" x1="0.5" y1="431.07" x2="746.26" y2="0.5"/><circle class="cls-4" cx="177.37" cy="907.04" r="12.5"/><circle class="cls-4" cx="177.37" cy="331.14" r="12.5"/><circle class="cls-4" cx="1174.92" cy="331.14" r="12.5"/><circle class="cls-4" cx="1676.76" cy="619.29" r="12.5"/><circle class="cls-4" cx="1676.76" cy="1195.6" r="12.5"/><circle class="cls-4" cx="1676.76" cy="1771.9" r="12.5"/><circle class="cls-4" cx="177.37" cy="1484.74" r="12.5"/><circle class="cls-4" cx="676.73" cy="619.29" r="12.5"/><circle class="cls-4" cx="676.73" cy="42.68" r="12.5"/><g class="cls-5"><line class="cls-3" x1="70.64" y1="1999.79" x2="2.53" y2="1960.47"/><line class="cls-3" x1="2001.33" y1="1960.02" x2="1.5" y2="805.41"/><line class="cls-3" x1="2001.5" y1="1383.32" x2="1.5" y2="228.62"/><polyline class="cls-3" points="1747.71 0.5 874.6 504.59 1.5 1008.67"/><polyline class="cls-3" points="2001.5 431.32 1001.5 1008.67 1.5 1586.02"/><polyline class="cls-3" points="2001.5 1008.67 1142.55 1504.59 283.6 2000.5"/><polyline class="cls-3" points="2001.5 1586.02 1642.55 1793.26 1283.61 2000.5"/><line class="cls-3" x1="1072.57" y1="2000.5" x2="1.5" y2="1382.12"/><line class="cls-3" x1="2001.5" y1="805.54" x2="607.12" y2="0.5"/><line class="cls-3" x1="1.5" y1="431.07" x2="747.26" y2="0.5"/></g><g class="cls-5"><line class="cls-3" x1="70.64" y1="1999.79" x2="2.53" y2="1960.47"/><line class="cls-3" x1="2001.33" y1="1960.02" x2="1.5" y2="805.41"/><line class="cls-3" x1="2001.5" y1="1383.32" x2="1.5" y2="228.62"/><polyline class="cls-3" points="1747.71 0.5 874.6 504.59 1.5 1008.67"/><polyline class="cls-3" points="2001.5 431.32 1001.5 1008.67 1.5 1586.02"/><polyline class="cls-3" points="2001.5 1008.67 1142.55 1504.59 283.6 2000.5"/><polyline class="cls-3" points="2001.5 1586.02 1642.55 1793.26 1283.61 2000.5"/><line class="cls-3" x1="1072.57" y1="2000.5" x2="1.5" y2="1382.12"/><line class="cls-3" x1="2001.5" y1="805.54" x2="607.12" y2="0.5"/><line class="cls-3" x1="1.5" y1="431.07" x2="747.26" y2="0.5"/></g></g></g><g id="Phone_-_3D" data-name="Phone - 3D"><path class="cls-6" d="M327,1589.17l204.5-118.07a48,48,0,0,1,48,0l331.78,191.55h0l83.68,48.3a25,25,0,0,1,0,43.31l-204.5,118.06a48,48,0,0,1-48,0L327,1632.47A25,25,0,0,1,327,1589.17Z" transform="translate(0.5 0.5)"/><path class="cls-7" d="M874.38,1678.48" transform="translate(0.5 0.5)"/><path class="cls-7" d="M874.38,1678.48" transform="translate(0.5 0.5)"/><path class="cls-7" d="M874.89,1677.59" transform="translate(0.5 0.5)"/></g><g id="Phone_-_Shell" data-name="Phone - Shell"><path class="cls-8" d="M905.49,1659.27,577.14,1469.69c-11.91-6.87-31.39-6.87-43.3,0L327.14,1589c-11.91,6.88-11.91,18.13,0,25l306.7,177.07,43.3,25,67.65,39.06c11.91,6.88,31.4,6.88,43.3,0l206.7-119.34c11.91-6.87,11.91-18.12,0-25l-89.3-51.55" transform="translate(0.5 0.5)"/></g><g id="Phone_-_Screen" data-name="Phone - Screen"><polygon class="cls-9" points="335.99 1602.03 555.99 1475.02 966.01 1711.74 746.05 1838.78 335.99 1602.03"/></g><g id="Keyboard_3D" data-name="Keyboard 3D"><path class="cls-10" d="M200.26,1127.55,729.51,822a48,48,0,0,1,48,0L1657,1330.15a25,25,0,0,1,0,43.31l-529.27,305.19a48,48,0,0,1-48,0L200.26,1170.85A25,25,0,0,1,200.26,1127.55Z" transform="translate(0.5 0.5)"/></g><g id="Laptop_-_Keyboard" data-name="Laptop - Keyboard"><path class="cls-8" d="M200.41,1152.46c-11.91-6.88-11.91-18.13,0-25l531.46-306.8c11.91-6.88,31.39-6.88,43.3,0l881.72,509.41c11.91,6.88,11.9,18.12,0,25l-531.46,306.46c-11.91,6.87-31.4,6.86-43.31,0Z" transform="translate(0.5 0.5)"/></g><g id="Shell_3D" data-name="Shell 3D"><path class="cls-11" d="M753.53,780.44l.22-611.6a25,25,0,0,1,37.5-21.64l879.29,507.66a48,48,0,0,1,24,41.57v612.08a25,25,0,0,1-37.51,21.64L777.52,822A48,48,0,0,1,753.53,780.44Z" transform="translate(0.5 0.5)"/></g><g id="Laptop_-_Shell" data-name="Laptop - Shell"><path class="cls-12" d="M771.8,153.48c-11.91-6.87-21.65-1.25-21.66,12.5l-.22,614.13c0,13.75,9.73,30.63,21.64,37.5L1653.28,1327c11.91,6.88,21.65,1.26,21.65-12.49V699.9c0-13.75-9.75-30.62-21.65-37.5Z" transform="translate(0.5 0.5)"/></g><g id="Laptop_-_Screen" data-name="Laptop - Screen"><polygon class="cls-13" points="794.03 785.58 794.24 213.8 1639.04 701.54 1639.04 1273.77 794.03 785.58"/></g><g id="Laptop_-_Keyboard-2" data-name="Laptop - Keyboard"><g class="cls-14"><path class="cls-15" d="M784.23,973.62c-2.38-1.38-2.38-3.63,0-5l41.34-23.87a9.57,9.57,0,0,1,8.66,0l41.34,23.87c2.38,1.37,2.38,3.62,0,5l-41.34,23.86a9.57,9.57,0,0,1-8.66,0Z" transform="translate(0.5 0.5)"/><path class="cls-15" d="M720.59,936.82c-2.38-1.37-2.38-3.62,0-5L761.93,908a9.57,9.57,0,0,1,8.66,0l41.34,23.86c2.38,1.38,2.38,3.63,0,5l-41.34,23.87a9.57,9.57,0,0,1-8.66,0Z" transform="translate(0.5 0.5)"/><path class="cls-15" d="M845.59,1009c-2.38-1.38-2.38-3.63,0-5l41.34-23.87a9.57,9.57,0,0,1,8.66,0L936.93,1004c2.38,1.37,2.38,3.62,0,5l-41.34,23.86a9.57,9.57,0,0,1-8.66,0Z" transform="translate(0.5 0.5)"/><path class="cls-15" d="M970.73,1081.23c-2.38-1.37-2.38-3.62,0-5l41.34-23.87a9.64,9.64,0,0,1,8.66,0l41.34,23.87c2.38,1.38,2.38,3.63,0,5l-41.34,23.87a9.64,9.64,0,0,1-8.66,0Z" transform="translate(0.5 0.5)"/><path class="cls-15" d="M909.09,1045.44c-2.38-1.38-2.38-3.63,0-5l41.34-23.87a9.57,9.57,0,0,1,8.66,0l41.34,23.87c2.38,1.37,2.38,3.62,0,5l-41.34,23.87a9.61,9.61,0,0,1-8.66,0Z" transform="translate(0.5 0.5)"/><path class="cls-15" d="M1034.09,1117.59c-2.38-1.37-2.38-3.62,0-5l41.34-23.87a9.64,9.64,0,0,1,8.66,0l41.34,23.87c2.38,1.38,2.38,3.63,0,5l-41.34,23.87a9.64,9.64,0,0,1-8.66,0Z" transform="translate(0.5 0.5)"/><path class="cls-15" d="M1159.23,1190.12c-2.38-1.37-2.38-3.62,0-5l41.34-23.86a9.57,9.57,0,0,1,8.66,0l41.34,23.86c2.38,1.38,2.38,3.63,0,5L1209.23,1214a9.57,9.57,0,0,1-8.66,0Z" transform="translate(0.5 0.5)"/><path class="cls-15" d="M1097.59,1154.33c-2.38-1.38-2.38-3.63,0-5l41.34-23.87a9.64,9.64,0,0,1,8.66,0l41.34,23.87c2.38,1.37,2.38,3.62,0,5l-41.34,23.87a9.64,9.64,0,0,1-8.66,0Z" transform="translate(0.5 0.5)"/><path class="cls-15" d="M1222.59,1226.48c-2.38-1.37-2.38-3.62,0-5l41.34-23.86a9.57,9.57,0,0,1,8.66,0l41.34,23.86c2.38,1.38,2.38,3.63,0,5l-41.34,23.87a9.57,9.57,0,0,1-8.66,0Z" transform="translate(0.5 0.5)"/><path class="cls-15" d="M1347.73,1298.74c-2.38-1.38-2.38-3.63,0-5l41.34-23.87a9.57,9.57,0,0,1,8.66,0l41.34,23.87c2.38,1.37,2.38,3.62,0,5l-41.34,23.86a9.57,9.57,0,0,1-8.66,0Z" transform="translate(0.5 0.5)"/><path class="cls-15" d="M1284.09,1261.94c-2.38-1.37-2.38-3.62,0-5l41.34-23.86a9.57,9.57,0,0,1,8.66,0l41.34,23.86c2.38,1.38,2.38,3.63,0,5l-41.34,23.87a9.57,9.57,0,0,1-8.66,0Z" transform="translate(0.5 0.5)"/><path class="cls-15" d="M1409.09,1334.1c-2.38-1.38-2.38-3.63,0-5l41.34-23.87a9.57,9.57,0,0,1,8.66,0l41.34,23.87c2.38,1.37,2.38,3.62,0,5L1459.09,1358a9.61,9.61,0,0,1-8.66,0Z" transform="translate(0.5 0.5)"/><path class="cls-15" d="M722.17,1009.33c-2.39-1.38-2.39-3.63,0-5l41.33-23.87a9.66,9.66,0,0,1,8.67,0l41.33,23.87c2.39,1.37,2.39,3.62,0,5l-41.34,23.87a9.64,9.64,0,0,1-8.66,0Z" transform="translate(0.5 0.5)"/><path class="cls-15" d="M658.53,972.54c-2.38-1.38-2.38-3.63,0-5l41.34-23.87a9.57,9.57,0,0,1,8.66,0l41.34,23.87c2.38,1.37,2.38,3.62,0,5L708.53,996.4a9.57,9.57,0,0,1-8.66,0Z" transform="translate(0.5 0.5)"/><path class="cls-15" d="M783.53,1044.69c-2.38-1.38-2.38-3.63,0-5l41.34-23.87a9.64,9.64,0,0,1,8.66,0l41.34,23.87c2.38,1.37,2.38,3.62,0,5l-41.34,23.87a9.64,9.64,0,0,1-8.66,0Z" transform="translate(0.5 0.5)"/><path class="cls-15" d="M908.66,1116.94c-2.38-1.37-2.38-3.62,0-5L950,1088.07a9.66,9.66,0,0,1,8.67,0l41.33,23.87c2.39,1.38,2.39,3.63,0,5l-41.34,23.87a9.64,9.64,0,0,1-8.66,0Z" transform="translate(0.5 0.5)"/><path class="cls-15" d="M847,1081.15c-2.38-1.38-2.38-3.63,0-5l41.34-23.87a9.64,9.64,0,0,1,8.66,0l41.34,23.87c2.38,1.37,2.38,3.62,0,5L897,1105a9.64,9.64,0,0,1-8.66,0Z" transform="translate(0.5 0.5)"/><path class="cls-15" d="M972,1153.3c-2.38-1.37-2.38-3.62,0-5l41.34-23.86a9.57,9.57,0,0,1,8.66,0l41.34,23.86c2.38,1.38,2.38,3.63,0,5L1022,1177.17a9.57,9.57,0,0,1-8.66,0Z" transform="translate(0.5 0.5)"/><path class="cls-15" d="M1097.17,1225.83c-2.39-1.37-2.39-3.62,0-5L1138.5,1197a9.6,9.6,0,0,1,8.67,0l41.33,23.86c2.39,1.38,2.39,3.63,0,5l-41.33,23.87a9.6,9.6,0,0,1-8.67,0Z" transform="translate(0.5 0.5)"/><path class="cls-15" d="M1035.53,1190c-2.38-1.37-2.38-3.62,0-5l41.34-23.87a9.64,9.64,0,0,1,8.66,0l41.34,23.87c2.38,1.38,2.38,3.63,0,5l-41.34,23.87a9.64,9.64,0,0,1-8.66,0Z" transform="translate(0.5 0.5)"/><path class="cls-15" d="M1160.53,1262.2c-2.38-1.38-2.38-3.63,0-5l41.34-23.87a9.57,9.57,0,0,1,8.66,0l41.34,23.87c2.38,1.37,2.38,3.62,0,5l-41.34,23.86a9.57,9.57,0,0,1-8.66,0Z" transform="translate(0.5 0.5)"/><path class="cls-15" d="M1285.66,1334.45c-2.38-1.38-2.38-3.63,0-5l41.34-23.87a9.66,9.66,0,0,1,8.67,0l41.33,23.87c2.39,1.37,2.39,3.62,0,5l-41.34,23.87a9.64,9.64,0,0,1-8.66,0Z" transform="translate(0.5 0.5)"/><path class="cls-15" d="M1222,1297.66c-2.38-1.38-2.38-3.63,0-5l41.34-23.87a9.57,9.57,0,0,1,8.66,0l41.34,23.87c2.38,1.37,2.38,3.62,0,5L1272,1321.52a9.57,9.57,0,0,1-8.66,0Z" transform="translate(0.5 0.5)"/><path class="cls-15" d="M1347,1369.81c-2.38-1.38-2.38-3.63,0-5l41.34-23.87a9.64,9.64,0,0,1,8.66,0l41.34,23.87c2.38,1.37,2.38,3.62,0,5L1397,1393.68a9.64,9.64,0,0,1-8.66,0Z" transform="translate(0.5 0.5)"/><path class="cls-15" d="M659.18,1045.46c-2.39-1.37-2.39-3.62,0-5l41.34-23.86a9.57,9.57,0,0,1,8.66,0l41.34,23.86c2.38,1.38,2.38,3.63,0,5l-41.34,23.87a9.57,9.57,0,0,1-8.66,0Z" transform="translate(0.5 0.5)"/><path class="cls-15" d="M595.54,1008.67c-2.38-1.37-2.38-3.62,0-5l41.34-23.87a9.64,9.64,0,0,1,8.66,0l41.34,23.87c2.38,1.38,2.38,3.63,0,5l-41.34,23.87a9.64,9.64,0,0,1-8.66,0Z" transform="translate(0.5 0.5)"/><path class="cls-15" d="M720.54,1080.83c-2.38-1.38-2.38-3.63,0-5L761.88,1052a9.57,9.57,0,0,1,8.66,0l41.34,23.87c2.38,1.37,2.38,3.62,0,5l-41.34,23.86a9.57,9.57,0,0,1-8.66,0Z" transform="translate(0.5 0.5)"/><path class="cls-15" d="M845.68,1153.08c-2.39-1.38-2.39-3.63,0-5L887,1124.21a9.64,9.64,0,0,1,8.66,0L937,1148.08c2.38,1.37,2.38,3.62,0,5L895.68,1177a9.64,9.64,0,0,1-8.66,0Z" transform="translate(0.5 0.5)"/><path class="cls-15" d="M784,1117.29c-2.38-1.38-2.38-3.63,0-5l41.34-23.87a9.57,9.57,0,0,1,8.66,0l41.34,23.87c2.38,1.37,2.38,3.62,0,5L834,1141.15a9.57,9.57,0,0,1-8.66,0Z" transform="translate(0.5 0.5)"/><path class="cls-15" d="M909,1189.44c-2.38-1.38-2.38-3.63,0-5l41.34-23.87a9.64,9.64,0,0,1,8.66,0l41.34,23.87c2.38,1.37,2.38,3.62,0,5L959,1213.31a9.64,9.64,0,0,1-8.66,0Z" transform="translate(0.5 0.5)"/><path class="cls-15" d="M1034.18,1262c-2.39-1.37-2.39-3.62,0-5l41.34-23.87a9.64,9.64,0,0,1,8.66,0l41.34,23.87c2.38,1.38,2.38,3.63,0,5l-41.34,23.87a9.64,9.64,0,0,1-8.66,0Z" transform="translate(0.5 0.5)"/><path class="cls-15" d="M972.54,1226.18c-2.38-1.38-2.38-3.63,0-5l41.34-23.87a9.64,9.64,0,0,1,8.66,0l41.34,23.87c2.38,1.37,2.38,3.62,0,5l-41.34,23.87a9.64,9.64,0,0,1-8.66,0Z" transform="translate(0.5 0.5)"/><path class="cls-15" d="M1097.54,1298.33c-2.38-1.37-2.38-3.62,0-5l41.34-23.87a9.64,9.64,0,0,1,8.66,0l41.34,23.87c2.38,1.38,2.38,3.63,0,5l-41.34,23.87a9.64,9.64,0,0,1-8.66,0Z" transform="translate(0.5 0.5)"/><path class="cls-15" d="M1222.68,1370.59c-2.39-1.38-2.39-3.63,0-5l41.34-23.87a9.57,9.57,0,0,1,8.66,0l41.34,23.87c2.38,1.37,2.38,3.62,0,5l-41.34,23.86a9.57,9.57,0,0,1-8.66,0Z" transform="translate(0.5 0.5)"/><path class="cls-15" d="M1159,1333.79c-2.38-1.37-2.38-3.62,0-5l41.34-23.87a9.64,9.64,0,0,1,8.66,0l41.34,23.87c2.38,1.38,2.38,3.63,0,5L1209,1357.66a9.64,9.64,0,0,1-8.66,0Z" transform="translate(0.5 0.5)"/><path class="cls-15" d="M1284,1406c-2.38-1.38-2.38-3.63,0-5l41.34-23.87a9.57,9.57,0,0,1,8.66,0l41.34,23.87c2.38,1.37,2.38,3.62,0,5L1334,1429.81a9.57,9.57,0,0,1-8.66,0Z" transform="translate(0.5 0.5)"/><path class="cls-15" d="M597.11,1081.18c-2.38-1.38-2.38-3.63,0-5l41.34-23.87a9.57,9.57,0,0,1,8.66,0l41.34,23.87c2.38,1.37,2.38,3.62,0,5L647.11,1105a9.57,9.57,0,0,1-8.66,0Z" transform="translate(0.5 0.5)"/><path class="cls-15" d="M533.47,1044.38c-2.38-1.37-2.38-3.62,0-5l41.34-23.86a9.57,9.57,0,0,1,8.66,0l41.34,23.86c2.39,1.38,2.39,3.63,0,5l-41.34,23.87a9.57,9.57,0,0,1-8.66,0Z" transform="translate(0.5 0.5)"/><path class="cls-15" d="M658.47,1116.54c-2.38-1.38-2.38-3.63,0-5l41.34-23.87a9.57,9.57,0,0,1,8.66,0l41.34,23.87c2.39,1.37,2.39,3.62,0,5l-41.34,23.86a9.57,9.57,0,0,1-8.66,0Z" transform="translate(0.5 0.5)"/><path class="cls-15" d="M783.61,1188.79c-2.38-1.37-2.38-3.62,0-5L825,1159.92a9.64,9.64,0,0,1,8.66,0L875,1183.79c2.38,1.38,2.38,3.63,0,5l-41.34,23.87a9.64,9.64,0,0,1-8.66,0Z" transform="translate(0.5 0.5)"/><path class="cls-15" d="M722,1153c-2.38-1.38-2.38-3.63,0-5l41.34-23.87a9.64,9.64,0,0,1,8.66,0L813.31,1148c2.39,1.37,2.39,3.62,0,5L772,1176.87a9.64,9.64,0,0,1-8.66,0Z" transform="translate(0.5 0.5)"/><path class="cls-15" d="M847,1225.15c-2.38-1.37-2.38-3.62,0-5l41.34-23.87a9.64,9.64,0,0,1,8.66,0l41.34,23.87c2.39,1.38,2.39,3.63,0,5L897,1249a9.64,9.64,0,0,1-8.66,0Z" transform="translate(0.5 0.5)"/><path class="cls-15" d="M972.11,1297.68c-2.38-1.37-2.38-3.62,0-5l41.34-23.86a9.57,9.57,0,0,1,8.66,0l41.34,23.86c2.38,1.38,2.38,3.63,0,5l-41.34,23.87a9.57,9.57,0,0,1-8.66,0Z" transform="translate(0.5 0.5)"/><path class="cls-15" d="M910.47,1261.89c-2.38-1.38-2.38-3.63,0-5L951.81,1233a9.64,9.64,0,0,1,8.66,0l41.34,23.87c2.39,1.37,2.39,3.62,0,5l-41.34,23.87a9.64,9.64,0,0,1-8.66,0Z" transform="translate(0.5 0.5)"/><path class="cls-15" d="M1035.47,1334c-2.38-1.37-2.38-3.62,0-5l41.34-23.86a9.57,9.57,0,0,1,8.66,0l41.34,23.86c2.39,1.38,2.39,3.63,0,5l-41.34,23.87a9.57,9.57,0,0,1-8.66,0Z" transform="translate(0.5 0.5)"/><path class="cls-15" d="M1160.61,1406.3c-2.38-1.38-2.38-3.63,0-5l41.34-23.87a9.57,9.57,0,0,1,8.66,0L1252,1401.3c2.38,1.37,2.38,3.62,0,5l-41.34,23.86a9.57,9.57,0,0,1-8.66,0Z" transform="translate(0.5 0.5)"/><path class="cls-15" d="M1097,1369.5c-2.38-1.37-2.38-3.62,0-5l41.34-23.86a9.57,9.57,0,0,1,8.66,0l41.34,23.86c2.39,1.38,2.39,3.63,0,5L1147,1393.37a9.57,9.57,0,0,1-8.66,0Z" transform="translate(0.5 0.5)"/><path class="cls-15" d="M1222,1441.66c-2.38-1.38-2.38-3.63,0-5l41.34-23.87a9.64,9.64,0,0,1,8.66,0l41.34,23.87c2.39,1.37,2.39,3.62,0,5L1272,1465.53a9.64,9.64,0,0,1-8.66,0Z" transform="translate(0.5 0.5)"/></g><path class="cls-12" d="M783.23,969.62c-2.38-1.38-2.38-3.63,0-5l41.34-23.87a9.57,9.57,0,0,1,8.66,0l41.34,23.87c2.38,1.37,2.38,3.62,0,5l-41.34,23.86a9.57,9.57,0,0,1-8.66,0Z" transform="translate(0.5 0.5)"/><path class="cls-12" d="M719.59,932.82c-2.38-1.37-2.38-3.62,0-5L760.93,904a9.57,9.57,0,0,1,8.66,0l41.34,23.86c2.38,1.38,2.38,3.63,0,5l-41.34,23.87a9.57,9.57,0,0,1-8.66,0Z" transform="translate(0.5 0.5)"/><path class="cls-12" d="M844.59,1005c-2.38-1.38-2.38-3.63,0-5l41.34-23.87a9.57,9.57,0,0,1,8.66,0L935.93,1000c2.38,1.37,2.38,3.62,0,5l-41.34,23.86a9.57,9.57,0,0,1-8.66,0Z" transform="translate(0.5 0.5)"/><path class="cls-12" d="M969.73,1077.23c-2.38-1.37-2.38-3.62,0-5l41.34-23.87a9.64,9.64,0,0,1,8.66,0l41.34,23.87c2.38,1.38,2.38,3.63,0,5l-41.34,23.87a9.64,9.64,0,0,1-8.66,0Z" transform="translate(0.5 0.5)"/><path class="cls-12" d="M908.09,1041.44c-2.38-1.38-2.38-3.63,0-5l41.34-23.87a9.57,9.57,0,0,1,8.66,0l41.34,23.87c2.38,1.37,2.38,3.62,0,5l-41.34,23.87a9.61,9.61,0,0,1-8.66,0Z" transform="translate(0.5 0.5)"/><path class="cls-12" d="M1033.09,1113.59c-2.38-1.37-2.38-3.62,0-5l41.34-23.87a9.64,9.64,0,0,1,8.66,0l41.34,23.87c2.38,1.38,2.38,3.63,0,5l-41.34,23.87a9.64,9.64,0,0,1-8.66,0Z" transform="translate(0.5 0.5)"/><path class="cls-12" d="M1158.23,1186.12c-2.38-1.37-2.38-3.62,0-5l41.34-23.86a9.57,9.57,0,0,1,8.66,0l41.34,23.86c2.38,1.38,2.38,3.63,0,5L1208.23,1210a9.57,9.57,0,0,1-8.66,0Z" transform="translate(0.5 0.5)"/><path class="cls-12" d="M1096.59,1150.33c-2.38-1.38-2.38-3.63,0-5l41.34-23.87a9.64,9.64,0,0,1,8.66,0l41.34,23.87c2.38,1.37,2.38,3.62,0,5l-41.34,23.87a9.64,9.64,0,0,1-8.66,0Z" transform="translate(0.5 0.5)"/><path class="cls-12" d="M1221.59,1222.48c-2.38-1.37-2.38-3.62,0-5l41.34-23.86a9.57,9.57,0,0,1,8.66,0l41.34,23.86c2.38,1.38,2.38,3.63,0,5l-41.34,23.87a9.57,9.57,0,0,1-8.66,0Z" transform="translate(0.5 0.5)"/><path class="cls-12" d="M1346.73,1294.74c-2.38-1.38-2.38-3.63,0-5l41.34-23.87a9.57,9.57,0,0,1,8.66,0l41.34,23.87c2.38,1.37,2.38,3.62,0,5l-41.34,23.86a9.57,9.57,0,0,1-8.66,0Z" transform="translate(0.5 0.5)"/><path class="cls-12" d="M1283.09,1257.94c-2.38-1.37-2.38-3.62,0-5l41.34-23.86a9.57,9.57,0,0,1,8.66,0l41.34,23.86c2.38,1.38,2.38,3.63,0,5l-41.34,23.87a9.57,9.57,0,0,1-8.66,0Z" transform="translate(0.5 0.5)"/><path class="cls-12" d="M1408.09,1330.1c-2.38-1.38-2.38-3.63,0-5l41.34-23.87a9.57,9.57,0,0,1,8.66,0l41.34,23.87c2.38,1.37,2.38,3.62,0,5L1458.09,1354a9.61,9.61,0,0,1-8.66,0Z" transform="translate(0.5 0.5)"/><path class="cls-12" d="M721.17,1005.33c-2.39-1.38-2.39-3.63,0-5l41.33-23.87a9.66,9.66,0,0,1,8.67,0l41.33,23.87c2.39,1.37,2.39,3.62,0,5l-41.34,23.87a9.64,9.64,0,0,1-8.66,0Z" transform="translate(0.5 0.5)"/><path class="cls-12" d="M657.53,968.54c-2.38-1.38-2.38-3.63,0-5l41.34-23.87a9.57,9.57,0,0,1,8.66,0l41.34,23.87c2.38,1.37,2.38,3.62,0,5L707.53,992.4a9.57,9.57,0,0,1-8.66,0Z" transform="translate(0.5 0.5)"/><path class="cls-12" d="M782.53,1040.69c-2.38-1.38-2.38-3.63,0-5l41.34-23.87a9.64,9.64,0,0,1,8.66,0l41.34,23.87c2.38,1.37,2.38,3.62,0,5l-41.34,23.87a9.64,9.64,0,0,1-8.66,0Z" transform="translate(0.5 0.5)"/><path class="cls-12" d="M907.66,1112.94c-2.38-1.37-2.38-3.62,0-5L949,1084.07a9.66,9.66,0,0,1,8.67,0L999,1107.94c2.39,1.38,2.39,3.63,0,5l-41.34,23.87a9.64,9.64,0,0,1-8.66,0Z" transform="translate(0.5 0.5)"/><path class="cls-12" d="M846,1077.15c-2.38-1.38-2.38-3.63,0-5l41.34-23.87a9.64,9.64,0,0,1,8.66,0l41.34,23.87c2.38,1.37,2.38,3.62,0,5L896,1101a9.64,9.64,0,0,1-8.66,0Z" transform="translate(0.5 0.5)"/><path class="cls-12" d="M971,1149.3c-2.38-1.37-2.38-3.62,0-5l41.34-23.86a9.57,9.57,0,0,1,8.66,0l41.34,23.86c2.38,1.38,2.38,3.63,0,5L1021,1173.17a9.57,9.57,0,0,1-8.66,0Z" transform="translate(0.5 0.5)"/><path class="cls-12" d="M1096.17,1221.83c-2.39-1.37-2.39-3.62,0-5L1137.5,1193a9.6,9.6,0,0,1,8.67,0l41.33,23.86c2.39,1.38,2.39,3.63,0,5l-41.33,23.87a9.6,9.6,0,0,1-8.67,0Z" transform="translate(0.5 0.5)"/><path class="cls-12" d="M1034.53,1186c-2.38-1.37-2.38-3.62,0-5l41.34-23.87a9.64,9.64,0,0,1,8.66,0l41.34,23.87c2.38,1.38,2.38,3.63,0,5l-41.34,23.87a9.64,9.64,0,0,1-8.66,0Z" transform="translate(0.5 0.5)"/><path class="cls-12" d="M1159.53,1258.2c-2.38-1.38-2.38-3.63,0-5l41.34-23.87a9.57,9.57,0,0,1,8.66,0l41.34,23.87c2.38,1.37,2.38,3.62,0,5l-41.34,23.86a9.57,9.57,0,0,1-8.66,0Z" transform="translate(0.5 0.5)"/><path class="cls-12" d="M1284.66,1330.45c-2.38-1.38-2.38-3.63,0-5l41.34-23.87a9.66,9.66,0,0,1,8.67,0l41.33,23.87c2.39,1.37,2.39,3.62,0,5l-41.34,23.87a9.64,9.64,0,0,1-8.66,0Z" transform="translate(0.5 0.5)"/><path class="cls-12" d="M1221,1293.66c-2.38-1.38-2.38-3.63,0-5l41.34-23.87a9.57,9.57,0,0,1,8.66,0l41.34,23.87c2.38,1.37,2.38,3.62,0,5L1271,1317.52a9.57,9.57,0,0,1-8.66,0Z" transform="translate(0.5 0.5)"/><path class="cls-12" d="M1346,1365.81c-2.38-1.38-2.38-3.63,0-5l41.34-23.87a9.64,9.64,0,0,1,8.66,0l41.34,23.87c2.38,1.37,2.38,3.62,0,5L1396,1389.68a9.64,9.64,0,0,1-8.66,0Z" transform="translate(0.5 0.5)"/><path class="cls-12" d="M658.18,1041.46c-2.39-1.37-2.39-3.62,0-5l41.34-23.86a9.57,9.57,0,0,1,8.66,0l41.34,23.86c2.38,1.38,2.38,3.63,0,5l-41.34,23.87a9.57,9.57,0,0,1-8.66,0Z" transform="translate(0.5 0.5)"/><path class="cls-12" d="M594.54,1004.67c-2.38-1.37-2.38-3.62,0-5l41.34-23.87a9.64,9.64,0,0,1,8.66,0l41.34,23.87c2.38,1.38,2.38,3.63,0,5l-41.34,23.87a9.64,9.64,0,0,1-8.66,0Z" transform="translate(0.5 0.5)"/><path class="cls-12" d="M719.54,1076.83c-2.38-1.38-2.38-3.63,0-5L760.88,1048a9.57,9.57,0,0,1,8.66,0l41.34,23.87c2.38,1.37,2.38,3.62,0,5l-41.34,23.86a9.57,9.57,0,0,1-8.66,0Z" transform="translate(0.5 0.5)"/><path class="cls-12" d="M844.68,1149.08c-2.39-1.38-2.39-3.63,0-5L886,1120.21a9.64,9.64,0,0,1,8.66,0L936,1144.08c2.38,1.37,2.38,3.62,0,5L894.68,1173a9.64,9.64,0,0,1-8.66,0Z" transform="translate(0.5 0.5)"/><path class="cls-12" d="M783,1113.29c-2.38-1.38-2.38-3.63,0-5l41.34-23.87a9.57,9.57,0,0,1,8.66,0l41.34,23.87c2.38,1.37,2.38,3.62,0,5L833,1137.15a9.57,9.57,0,0,1-8.66,0Z" transform="translate(0.5 0.5)"/><path class="cls-12" d="M908,1185.44c-2.38-1.38-2.38-3.63,0-5l41.34-23.87a9.64,9.64,0,0,1,8.66,0l41.34,23.87c2.38,1.37,2.38,3.62,0,5L958,1209.31a9.64,9.64,0,0,1-8.66,0Z" transform="translate(0.5 0.5)"/><path class="cls-12" d="M1033.18,1258c-2.39-1.37-2.39-3.62,0-5l41.34-23.87a9.64,9.64,0,0,1,8.66,0l41.34,23.87c2.38,1.38,2.38,3.63,0,5l-41.34,23.87a9.64,9.64,0,0,1-8.66,0Z" transform="translate(0.5 0.5)"/><path class="cls-12" d="M971.54,1222.18c-2.38-1.38-2.38-3.63,0-5l41.34-23.87a9.64,9.64,0,0,1,8.66,0l41.34,23.87c2.38,1.37,2.38,3.62,0,5l-41.34,23.87a9.64,9.64,0,0,1-8.66,0Z" transform="translate(0.5 0.5)"/><path class="cls-12" d="M1096.54,1294.33c-2.38-1.37-2.38-3.62,0-5l41.34-23.87a9.64,9.64,0,0,1,8.66,0l41.34,23.87c2.38,1.38,2.38,3.63,0,5l-41.34,23.87a9.64,9.64,0,0,1-8.66,0Z" transform="translate(0.5 0.5)"/><path class="cls-12" d="M1221.68,1366.59c-2.39-1.38-2.39-3.63,0-5l41.34-23.87a9.57,9.57,0,0,1,8.66,0l41.34,23.87c2.38,1.37,2.38,3.62,0,5l-41.34,23.86a9.57,9.57,0,0,1-8.66,0Z" transform="translate(0.5 0.5)"/><path class="cls-12" d="M1158,1329.79c-2.38-1.37-2.38-3.62,0-5l41.34-23.87a9.64,9.64,0,0,1,8.66,0l41.34,23.87c2.38,1.38,2.38,3.63,0,5L1208,1353.66a9.64,9.64,0,0,1-8.66,0Z" transform="translate(0.5 0.5)"/><path class="cls-12" d="M1283,1402c-2.38-1.38-2.38-3.63,0-5l41.34-23.87a9.57,9.57,0,0,1,8.66,0l41.34,23.87c2.38,1.37,2.38,3.62,0,5L1333,1425.81a9.57,9.57,0,0,1-8.66,0Z" transform="translate(0.5 0.5)"/><path class="cls-12" d="M596.11,1077.18c-2.38-1.38-2.38-3.63,0-5l41.34-23.87a9.57,9.57,0,0,1,8.66,0l41.34,23.87c2.38,1.37,2.38,3.62,0,5L646.11,1101a9.57,9.57,0,0,1-8.66,0Z" transform="translate(0.5 0.5)"/><path class="cls-12" d="M532.47,1040.38c-2.38-1.37-2.38-3.62,0-5l41.34-23.86a9.57,9.57,0,0,1,8.66,0l41.34,23.86c2.39,1.38,2.39,3.63,0,5l-41.34,23.87a9.57,9.57,0,0,1-8.66,0Z" transform="translate(0.5 0.5)"/><path class="cls-12" d="M657.47,1112.54c-2.38-1.38-2.38-3.63,0-5l41.34-23.87a9.57,9.57,0,0,1,8.66,0l41.34,23.87c2.39,1.37,2.39,3.62,0,5l-41.34,23.86a9.57,9.57,0,0,1-8.66,0Z" transform="translate(0.5 0.5)"/><path class="cls-12" d="M782.61,1184.79c-2.38-1.37-2.38-3.62,0-5L824,1155.92a9.64,9.64,0,0,1,8.66,0L874,1179.79c2.38,1.38,2.38,3.63,0,5l-41.34,23.87a9.64,9.64,0,0,1-8.66,0Z" transform="translate(0.5 0.5)"/><path class="cls-12" d="M721,1149c-2.38-1.38-2.38-3.63,0-5l41.34-23.87a9.64,9.64,0,0,1,8.66,0L812.31,1144c2.39,1.37,2.39,3.62,0,5L771,1172.87a9.64,9.64,0,0,1-8.66,0Z" transform="translate(0.5 0.5)"/><path class="cls-12" d="M846,1221.15c-2.38-1.37-2.38-3.62,0-5l41.34-23.87a9.64,9.64,0,0,1,8.66,0l41.34,23.87c2.39,1.38,2.39,3.63,0,5L896,1245a9.64,9.64,0,0,1-8.66,0Z" transform="translate(0.5 0.5)"/><path class="cls-12" d="M971.11,1293.68c-2.38-1.37-2.38-3.62,0-5l41.34-23.86a9.57,9.57,0,0,1,8.66,0l41.34,23.86c2.38,1.38,2.38,3.63,0,5l-41.34,23.87a9.57,9.57,0,0,1-8.66,0Z" transform="translate(0.5 0.5)"/><path class="cls-12" d="M909.47,1257.89c-2.38-1.38-2.38-3.63,0-5L950.81,1229a9.64,9.64,0,0,1,8.66,0l41.34,23.87c2.39,1.37,2.39,3.62,0,5l-41.34,23.87a9.64,9.64,0,0,1-8.66,0Z" transform="translate(0.5 0.5)"/><path class="cls-12" d="M1034.47,1330c-2.38-1.37-2.38-3.62,0-5l41.34-23.86a9.57,9.57,0,0,1,8.66,0l41.34,23.86c2.39,1.38,2.39,3.63,0,5l-41.34,23.87a9.57,9.57,0,0,1-8.66,0Z" transform="translate(0.5 0.5)"/><path class="cls-12" d="M1159.61,1402.3c-2.38-1.38-2.38-3.63,0-5l41.34-23.87a9.57,9.57,0,0,1,8.66,0L1251,1397.3c2.38,1.37,2.38,3.62,0,5l-41.34,23.86a9.57,9.57,0,0,1-8.66,0Z" transform="translate(0.5 0.5)"/><path class="cls-12" d="M1096,1365.5c-2.38-1.37-2.38-3.62,0-5l41.34-23.86a9.57,9.57,0,0,1,8.66,0l41.34,23.86c2.39,1.38,2.39,3.63,0,5L1146,1389.37a9.57,9.57,0,0,1-8.66,0Z" transform="translate(0.5 0.5)"/><path class="cls-12" d="M1221,1437.66c-2.38-1.38-2.38-3.63,0-5l41.34-23.87a9.64,9.64,0,0,1,8.66,0l41.34,23.87c2.39,1.37,2.39,3.62,0,5L1271,1461.53a9.64,9.64,0,0,1-8.66,0Z" transform="translate(0.5 0.5)"/><path class="cls-16" d="M650.05,1157.24a9.63,9.63,0,0,1,8.67,0l365.48,211c2.38,1.37,2.38,3.62,0,5L844.72,1477.14a9.55,9.55,0,0,1-8.65,0L469.9,1265.59c-2.38-1.38-2.38-3.62,0-5Z" transform="translate(0.5 0.5)"/></g></svg>