<svg width="340" height="135" viewBox="0 0 340 135" fill="none" xmlns="http://www.w3.org/2000/svg">
<path d="M0 0H340V135H0V0Z" fill="#050505"/>
<path d="M125.39 75C125.787 76.0721 126.388 77.057 127.16 77.9C127.912 78.6973 128.826 79.3247 129.84 79.74C130.909 80.1762 132.055 80.3938 133.21 80.38C134.905 80.3971 136.564 79.8892 137.959 78.9259C139.353 77.9626 140.416 76.5912 141 75C141.442 73.807 141.659 72.5422 141.64 71.27V50H146.8V84.41H141.69V81.21C140.555 82.4096 139.182 83.3597 137.66 84C136.076 84.6601 134.376 85 132.66 85C130.898 85.0023 129.153 84.6627 127.52 84C125.969 83.387 124.562 82.4572 123.39 81.27C122.2 80.05 121.265 78.6052 120.64 77.02C119.952 75.2588 119.612 73.3807 119.64 71.49V50H124.8V71.24C124.766 72.5188 124.966 73.793 125.39 75V75Z" fill="white"/>
<path d="M155.72 50V62.54C156.871 61.3886 158.228 60.4627 159.72 59.81C161.271 59.1335 162.948 58.7927 164.64 58.81C166.41 58.7885 168.166 59.1288 169.8 59.81C172.965 61.1288 175.481 63.6448 176.8 66.81C177.479 68.427 177.82 70.1662 177.8 71.92C177.823 73.6676 177.482 75.4009 176.8 77.01C175.481 80.1752 172.965 82.6912 169.8 84.01C168.166 84.6912 166.41 85.0315 164.64 85.01C162.941 85.0265 161.258 84.6858 159.7 84.01C158.207 83.3586 156.851 82.4325 155.7 81.28V84.43H150.79V50H155.72ZM156.29 75.32C156.719 76.3475 157.344 77.2816 158.13 78.07C158.921 78.8611 159.854 79.4956 160.88 79.94C161.949 80.4041 163.104 80.6392 164.27 80.63C165.423 80.6359 166.564 80.4009 167.62 79.94C168.639 79.4975 169.562 78.8625 170.34 78.07C171.116 77.2715 171.743 76.34 172.19 75.32C172.655 74.2473 172.89 73.0891 172.88 71.92C172.888 70.7479 172.653 69.5868 172.19 68.51C171.751 67.4768 171.123 66.5342 170.34 65.73C169.566 64.9402 168.641 64.3144 167.62 63.89C166.041 63.228 164.301 63.0495 162.621 63.3771C160.94 63.7046 159.395 64.5235 158.18 65.73C157.384 66.528 156.749 67.4719 156.31 68.51C155.861 69.5891 155.63 70.7463 155.63 71.915C155.63 73.0837 155.861 74.2409 156.31 75.32H156.29Z" fill="white"/>
<path d="M180.59 66.86C181.227 65.3197 182.146 63.9122 183.3 62.71C184.455 61.501 185.843 60.5384 187.38 59.88C188.995 59.1928 190.735 58.8521 192.49 58.88C194.207 58.8733 195.908 59.2134 197.49 59.88C198.994 60.5114 200.354 61.44 201.49 62.61C202.621 63.8017 203.504 65.2053 204.09 66.74C204.722 68.3965 205.038 70.157 205.02 71.93V73.5H184.62C184.853 74.9754 185.473 76.3624 186.419 77.5187C187.364 78.675 188.6 79.559 190 80.08C190.957 80.4503 191.974 80.6368 193 80.63C194.416 80.6568 195.816 80.3341 197.077 79.6905C198.338 79.0468 199.421 78.1021 200.23 76.94L203.82 79.59C202.6 81.2378 201.02 82.5854 199.2 83.53C197.279 84.4982 195.151 84.9855 193 84.95C191.208 84.9568 189.433 84.6172 187.77 83.95C185.36 82.9847 183.298 81.3139 181.855 79.1565C180.411 76.999 179.653 74.4557 179.68 71.86C179.651 70.1497 179.961 68.4506 180.59 66.86V66.86ZM187.5 64.92C186.086 66.1173 185.109 67.7488 184.72 69.56H200C199.641 67.749 198.679 66.1133 197.27 64.92C195.891 63.789 194.163 63.1709 192.38 63.1709C190.597 63.1709 188.869 63.789 187.49 64.92H187.5Z" fill="white"/>
<path d="M214.31 65.48C213.213 66.7813 212.652 68.4506 212.74 70.15V84.41H207.74V59.34H212.65V62.44C213.258 61.4309 214.111 60.5917 215.13 60C216.214 59.386 217.445 59.0784 218.69 59.11H220.41V63.73H218.35C217.59 63.7125 216.836 63.8599 216.138 64.162C215.441 64.4641 214.817 64.9137 214.31 65.48V65.48Z" fill="white"/>
</svg>
