<svg width="680" height="270" viewBox="0 0 680 270" fill="none" xmlns="http://www.w3.org/2000/svg">
<path d="M0 0H680V270H0V0Z" fill="white"/>
<path d="M250.78 150C251.574 152.144 252.776 154.114 254.32 155.8C255.824 157.395 257.652 158.649 259.68 159.48C261.818 160.352 264.11 160.788 266.42 160.76C269.81 160.794 273.128 159.778 275.918 157.852C278.706 155.925 280.832 153.182 282 150C282.884 147.614 283.318 145.084 283.28 142.54V100H293.6V168.82H283.38V162.42C281.11 164.819 278.364 166.719 275.32 168C272.152 169.32 268.752 170 265.32 170C261.796 170.005 258.306 169.325 255.04 168C251.938 166.774 249.124 164.914 246.78 162.54C244.4 160.1 242.53 157.21 241.28 154.04C239.904 150.518 239.224 146.761 239.28 142.98V100H249.6V142.48C249.532 145.038 249.932 147.586 250.78 150Z" fill="#050505"/>
<path d="M311.44 100V125.08C313.742 122.777 316.456 120.925 319.44 119.62C322.542 118.267 325.896 117.585 329.28 117.62C332.82 117.577 336.332 118.258 339.6 119.62C345.93 122.258 350.962 127.29 353.6 133.62C354.958 136.854 355.64 140.332 355.6 143.84C355.646 147.335 354.964 150.802 353.6 154.02C350.962 160.35 345.93 165.382 339.6 168.02C336.332 169.382 332.82 170.063 329.28 170.02C325.882 170.053 322.516 169.372 319.4 168.02C316.414 166.717 313.702 164.865 311.4 162.56V168.86H301.58V100H311.44ZM312.58 150.64C313.438 152.695 314.688 154.563 316.26 156.14C317.842 157.722 319.708 158.991 321.76 159.88C323.898 160.808 326.208 161.278 328.54 161.26C330.846 161.272 333.128 160.802 335.24 159.88C337.278 158.995 339.124 157.725 340.68 156.14C342.232 154.543 343.486 152.68 344.38 150.64C345.31 148.495 345.78 146.178 345.76 143.84C345.776 141.496 345.306 139.174 344.38 137.02C343.502 134.954 342.246 133.068 340.68 131.46C339.132 129.88 337.282 128.629 335.24 127.78C332.082 126.456 328.602 126.099 325.242 126.754C321.88 127.409 318.79 129.047 316.36 131.46C314.768 133.056 313.498 134.944 312.62 137.02C311.722 139.178 311.26 141.493 311.26 143.83C311.26 146.167 311.722 148.482 312.62 150.64H312.58Z" fill="#050505"/>
<path d="M361.18 133.72C362.454 130.639 364.292 127.824 366.6 125.42C368.91 123.002 371.686 121.077 374.76 119.76C377.99 118.386 381.47 117.704 384.98 117.76C388.414 117.747 391.816 118.427 394.98 119.76C397.988 121.023 400.708 122.88 402.98 125.22C405.242 127.603 407.008 130.411 408.18 133.48C409.444 136.793 410.076 140.314 410.04 143.86V147H369.24C369.706 149.951 370.946 152.725 372.838 155.037C374.728 157.35 377.2 159.118 380 160.16C381.914 160.901 383.948 161.274 386 161.26C388.832 161.314 391.632 160.668 394.154 159.381C396.676 158.094 398.842 156.204 400.46 153.88L407.64 159.18C405.2 162.476 402.04 165.171 398.4 167.06C394.558 168.996 390.302 169.971 386 169.9C382.416 169.914 378.866 169.234 375.54 167.9C370.72 165.969 366.596 162.628 363.71 158.313C360.822 153.998 359.306 148.911 359.36 143.72C359.302 140.299 359.922 136.901 361.18 133.72ZM375 129.84C372.172 132.235 370.218 135.498 369.44 139.12H400C399.282 135.498 397.358 132.227 394.54 129.84C391.782 127.578 388.326 126.342 384.76 126.342C381.194 126.342 377.738 127.578 374.98 129.84H375Z" fill="#050505"/>
<path d="M428.62 130.96C426.426 133.563 425.304 136.901 425.48 140.3V168.82H415.48V118.68H425.3V124.88C426.516 122.862 428.222 121.183 430.26 120C432.428 118.772 434.89 118.157 437.38 118.22H440.82V127.46H436.7C435.18 127.425 433.672 127.72 432.276 128.324C430.882 128.928 429.634 129.827 428.62 130.96Z" fill="#050505"/>
</svg>
