<svg xmlns="http://www.w3.org/2000/svg" xmlns:xlink="http://www.w3.org/1999/xlink" viewBox="0 0 750 1334"><defs><linearGradient x1="0%" y1="0%" x2="102%" y2="101%" id="a"><stop stop-color="#110C8A" offset="0%"/><stop stop-color="#9691D9" offset="100%"/></linearGradient><path d="M76.05 0h557.9c25.705 0 35.577 2.785 45.354 8.014s17.45 12.903 22.68 22.68S710 50.344 710 76.05v31.902c0 25.705-2.785 35.577-8.014 45.354s-12.903 17.45-22.68 22.68S659.656 184 633.95 184H76.05c-25.705 0-35.577-2.785-45.354-8.014s-17.45-12.903-22.68-22.68S0 133.656 0 107.95v-31.9c0-25.705 2.785-35.577 8.014-45.354s12.903-17.45 22.68-22.68S50.344 0 76.05 0z" id="b"/><linearGradient x1="50%" y1="0%" x2="50%" y2="100%" id="c"><stop stop-color="#1D6FF2" offset="0%"/><stop stop-color="#1BC8FC" offset="100%"/></linearGradient><rect id="d" x="17.333" y="32.667" width="85.333" height="54.667" rx="3"/><linearGradient x1="50%" y1="0%" x2="50%" y2="100%" id="g"><stop stop-color="#67FF81" offset="0%"/><stop stop-color="#01B41F" offset="100%"/></linearGradient><linearGradient x1="50%" y1="0%" x2="50%" y2="100%" id="h"><stop stop-color="#21CCFC" offset="0%"/><stop stop-color="#2D78F2" offset="100%"/></linearGradient><linearGradient x1="50%" y1="50%" x2="50%" y2="50.128%" id="i"><stop stop-color="#FF3A30" offset="0%"/><stop stop-color="#fff" offset="100%"/></linearGradient><linearGradient x1="50%" y1="0%" x2="50%" y2="100%" id="j"><stop stop-color="#5EF878" offset="0%"/><stop stop-color="#06BC29" offset="100%"/></linearGradient><linearGradient x1="-.002%" y1="50.054%" x2="99.999%" y2="50.054%" id="k"><stop stop-color="#FFF000" offset="50%"/><stop stop-color="#FFC810" offset="100%"/></linearGradient><linearGradient x1="49.98%" y1="100.01%" x2="49.98%" y2="-.09%" id="l"><stop stop-color="#FFF000" offset="50%"/><stop stop-color="#FFC810" offset="100%"/></linearGradient><linearGradient x1="50.03%" y1="100.009%" x2="50.03%" y2="-.081%" id="m"><stop stop-color="#FFF000" offset="50%"/><stop stop-color="#FFC810" offset="100%"/></linearGradient><path id="f" d="M502 73.538l-.008-4.3-.054-3.62c-.07-2.63-.226-5.282-.692-7.882-.474-2.64-1.248-5.096-2.47-7.494a25.178 25.178 0 0 0-11.018-11.018c-2.396-1.22-4.852-1.994-7.5-2.468-2.602-.468-5.254-.622-7.884-.694l-3.622-.054-4.3-.008h-44.924l-4.298.008-3.622.054c-2.63.072-5.284.226-7.884.694-2.638.474-5.094 1.248-7.5 2.468a25.19 25.19 0 0 0-6.382 4.636 25.178 25.178 0 0 0-4.636 6.382c-1.222 2.398-1.996 4.854-2.47 7.494-.466 2.6-.622 5.252-.692 7.882l-.054 3.62V122.762l.054 3.62c.07 2.63.226 5.282.692 7.882.474 2.64 1.248 5.098 2.47 7.496 1.2 2.356 2.766 4.5 4.636 6.378s4.024 3.438 6.382 4.638c2.396 1.22 4.852 1.994 7.5 2.468 2.6.466 5.254.624 7.884.694l3.622.054 4.298.008 49.224-.008 3.622-.054c2.63-.07 5.282-.228 7.884-.694 2.638-.474 5.094-1.248 7.5-2.468a25.14 25.14 0 0 0 6.382-4.638 25.158 25.158 0 0 0 4.636-6.378c1.222-2.398 1.996-4.856 2.47-7.496.466-2.6.622-5.252.692-7.882l.054-3.62.008-4.3V73.538z"/></defs><g fill="none"><path d="M0 0h750v1334H0z" fill="url(#a)"/><g transform="translate(20 1130)"><g fill="#fff"><use style="mix-blend-mode:overlay" xlink:href="#b" fill-opacity=".3"/><use style="mix-blend-mode:overlay" xlink:href="#b" fill-opacity=".3"/><use xlink:href="#b" fill-opacity="0"/></g><g transform="translate(558 36)"><path d="M120 37.538l-.008-4.3-.054-3.62c-.07-2.63-.226-5.282-.692-7.882-.474-2.64-1.248-5.096-2.47-7.494a25.18 25.18 0 0 0-4.636-6.382 25.227 25.227 0 0 0-6.382-4.636c-2.396-1.22-4.852-1.994-7.5-2.468-2.602-.468-5.254-.622-7.884-.694L86.762.008 82.462 0H37.538L33.24.008l-3.622.054c-2.63.072-5.284.226-7.884.694-2.638.474-5.094 1.248-7.5 2.468A25.19 25.19 0 0 0 7.862 7.86a25.18 25.18 0 0 0-4.636 6.382C2.004 16.64 1.23 19.096.756 21.736c-.456 2.6-.622 5.252-.692 7.882l-.054 3.62-.01 4.3.01 49.224.054 3.62c.07 2.63.226 5.282.692 7.882.474 2.64 1.248 5.098 2.47 7.496a25.16 25.16 0 0 0 4.636 6.378 25.1 25.1 0 0 0 6.382 4.638c2.396 1.22 4.852 1.994 7.5 2.468 2.6.466 5.254.624 7.884.694l3.622.054 4.298.008 49.224-.008 3.622-.054c2.63-.07 5.282-.228 7.884-.694 2.638-.474 5.094-1.248 7.5-2.468a25.137 25.137 0 0 0 6.382-4.638 25.16 25.16 0 0 0 4.636-6.378c1.222-2.398 1.996-4.856 2.47-7.496.466-2.6.622-5.252.692-7.882l.054-3.62.008-4.3V37.538z" fill="url(#c)"/><mask id="e" fill="#fff"><use xlink:href="#d"/></mask><path d="M19.333 32.667h81.333L64.243 69.09a6 6 0 0 1-8.485 0L19.333 32.667zm-2 2L42.667 60 17.333 85.333V34.667zm85.333 0v50.667L77.333 60l25.333-25.333zM44.667 62l11.396 9.9a6 6 0 0 0 7.874 0L75.333 62l25.333 25.333H19.333L44.667 62z" mask="url(#e)" fill="#fff"/></g><use xlink:href="#f" fill="url(#g)"/><g fill="#fff"><path d="M398 93.5c0-21.158 19.802-36.535 44-36.5s44 15.342 44 36.5-21.476 36.5-44 36.5c-3.698 0-7.792-.537-11.177-.792S420.554 135.4 412 134.592c4.654-3.193 6.466-6.903 7.005-10.127C406.782 118.183 398 107.03 398 93.5z"/><use xlink:href="#f" x="-174"/></g><circle cx="268" cy="96" r="52" fill="url(#h)"/><path d="M264.223 52.832a.661.661 0 0 1-.722-.606l-.35-3.985c-.032-.367.24-.7.606-.723s.7.24.722.606l.35 3.985c.032.367-.24.7-.606.722m-7.44 1.312a.67.67 0 0 1-.817-.472l-1.035-3.863a.667.667 0 1 1 1.286-.345l1.035 3.864a.67.67 0 0 1-.47.817m-7.096 2.582a.67.67 0 0 1-.886-.322l-1.7-3.625a.67.67 0 0 1 .323-.886.666.666 0 0 1 .886.322l1.7 3.625a.67.67 0 0 1-.323.886m-6.54 3.777a.67.67 0 0 1-.93-.163l-2.294-3.277a.67.67 0 0 1 .163-.93.67.67 0 0 1 .93.163l2.294 3.277a.67.67 0 0 1-.163.93m-5.788 4.855a.67.67 0 0 1-.943 0l-2.83-2.83a.67.67 0 0 1 0-.943.67.67 0 0 1 .943 0l2.83 2.83a.67.67 0 0 1 0 .943m-4.855 5.787a.67.67 0 0 1-.93.163l-3.277-2.294a.67.67 0 0 1-.163-.93.665.665 0 0 1 .93-.163l3.277 2.294a.67.67 0 0 1 .163.93m-3.777 6.54a.67.67 0 0 1-.886.323l-3.625-1.7a.667.667 0 0 1 .564-1.209l3.625 1.7a.67.67 0 0 1 .322.886m-2.583 7.108a.664.664 0 0 1-.817.47l-3.864-1.035a.664.664 0 0 1-.47-.816.67.67 0 0 1 .817-.472l3.863 1.036c.355.095.567.46.47.816m-1.312 7.43a.666.666 0 0 1-.722.606l-3.985-.35a.666.666 0 1 1 .117-1.328l3.985.35a.666.666 0 0 1 .606.722m-.001 7.553c.032.367-.24.7-.606.722l-3.985.35a.67.67 0 0 1-.723-.606.661.661 0 0 1 .606-.722l3.985-.35c.367-.032.7.24.722.606m1.314 7.44a.67.67 0 0 1-.47.816l-3.863 1.035a.67.67 0 0 1-.817-.472.67.67 0 0 1 .47-.816l3.864-1.036a.67.67 0 0 1 .817.472m2.582 7.1a.67.67 0 0 1-.322.886l-3.625 1.7a.67.67 0 0 1-.886-.322.67.67 0 0 1 .322-.886l3.625-1.7a.67.67 0 0 1 .886.322m3.777 6.54a.67.67 0 0 1-.163.93l-3.277 2.294a.67.67 0 0 1-.93-.164.665.665 0 0 1 .163-.928l3.277-2.294a.67.67 0 0 1 .93.164m4.855 5.784c.26.26.26.682 0 .942l-2.83 2.83a.67.67 0 0 1-.943 0 .67.67 0 0 1 0-.943l2.83-2.828a.67.67 0 0 1 .943 0m5.787 4.856c.3.2.375.626.163.93l-2.294 3.276a.67.67 0 0 1-.93.164.664.664 0 0 1-.163-.93l2.294-3.277a.67.67 0 0 1 .93-.163m6.54 3.776a.67.67 0 0 1 .323.886l-1.7 3.625a.667.667 0 0 1-1.209-.563l1.7-3.626a.667.667 0 0 1 .886-.322m7.1 2.583c.355.095.567.46.47.817l-1.035 3.864a.665.665 0 1 1-1.286-.346l1.035-3.864a.67.67 0 0 1 .817-.471m7.438 1.312a.666.666 0 0 1 .606.722l-.35 3.985a.667.667 0 1 1-1.328-.117l.35-3.984a.664.664 0 0 1 .722-.606m7.553 0a.66.66 0 0 1 .722.606l.35 3.984c.032.368-.24.7-.606.723s-.7-.24-.722-.606l-.35-3.985a.661.661 0 0 1 .606-.722m7.44-1.312a.67.67 0 0 1 .817.471l1.035 3.864a.666.666 0 1 1-1.286.346l-1.035-3.864a.67.67 0 0 1 .47-.817m7.096-2.583a.67.67 0 0 1 .886.322l1.7 3.626c.156.333.01.73-.322.885a.67.67 0 0 1-.886-.322l-1.7-3.625a.67.67 0 0 1 .322-.886m6.54-3.776a.67.67 0 0 1 .93.163l2.294 3.277a.67.67 0 0 1-.163.93.67.67 0 0 1-.929-.164l-2.294-3.276a.67.67 0 0 1 .163-.93m5.786-4.857a.67.67 0 0 1 .943 0l2.83 2.828a.67.67 0 0 1 0 .943.67.67 0 0 1-.943 0l-2.828-2.83a.666.666 0 0 1 0-.942m4.854-5.785a.67.67 0 0 1 .93-.164l3.277 2.294c.3.2.375.627.163.928a.67.67 0 0 1-.93.164l-3.277-2.294a.67.67 0 0 1-.163-.93m3.777-6.54a.667.667 0 0 1 .886-.322l3.625 1.7a.667.667 0 0 1-.563 1.208l-3.626-1.7a.67.67 0 0 1-.322-.886m2.583-7.098a.667.667 0 0 1 .817-.472l3.864 1.036c.355.095.566.46.47.816a.67.67 0 0 1-.817.472l-3.864-1.035a.664.664 0 0 1-.47-.816m1.312-7.44a.666.666 0 0 1 .722-.606l3.985.35a.667.667 0 1 1-.117 1.328l-3.985-.35a.665.665 0 0 1-.606-.722m.001-7.553a.66.66 0 0 1 .606-.722l3.985-.35c.367-.032.7.24.723.606a.67.67 0 0 1-.606.722l-3.985.35a.661.661 0 0 1-.722-.606m-1.313-7.44a.67.67 0 0 1 .47-.816l3.864-1.036a.67.67 0 0 1 .817.472.67.67 0 0 1-.47.816l-3.864 1.035a.667.667 0 0 1-.817-.47m-2.583-7.1a.67.67 0 0 1 .322-.886l3.626-1.7a.667.667 0 0 1 .885.323.67.67 0 0 1-.322.886l-3.625 1.7a.67.67 0 0 1-.886-.323m-3.777-6.54a.67.67 0 0 1 .163-.93l3.277-2.294a.67.67 0 0 1 .93.163.67.67 0 0 1-.163.93l-3.277 2.294a.67.67 0 0 1-.93-.163m-4.856-5.787a.67.67 0 0 1 0-.943l2.828-2.83a.67.67 0 0 1 .943 0 .67.67 0 0 1 0 .943l-2.83 2.83a.67.67 0 0 1-.943 0m-5.785-4.853a.667.667 0 0 1-.163-.93l2.294-3.277a.67.67 0 0 1 .93-.163.666.666 0 0 1 .163.93l-2.294 3.277a.67.67 0 0 1-.93.163m-6.54-3.777a.667.667 0 0 1-.322-.886l1.7-3.625a.667.667 0 1 1 1.208.564l-1.7 3.625a.67.67 0 0 1-.886.322m-7.1-2.583a.665.665 0 0 1-.47-.817l1.035-3.864a.667.667 0 1 1 1.286.345l-1.035 3.863a.67.67 0 0 1-.817.472m-7.438-1.3a.666.666 0 0 1-.606-.722l.35-3.985a.666.666 0 1 1 1.328.117l-.35 3.985a.666.666 0 0 1-.722.606m-3.775 4.5c-.37 0-.667-.3-.667-.667V48c0-.368.298-.667.667-.667a.67.67 0 0 1 .667.667v8.667a.667.667 0 0 1-.667.667m-6.715.586a.67.67 0 0 1-.773-.541l-1.505-8.535a.67.67 0 0 1 .54-.772.67.67 0 0 1 .773.54l1.505 8.535a.666.666 0 0 1-.54.772m-6.5 1.746a.667.667 0 0 1-.855-.4l-2.965-8.144a.67.67 0 0 1 .399-.855.666.666 0 0 1 .855.4l2.965 8.144a.67.67 0 0 1-.399.854m-6.1 2.85a.651.651 0 0 1-.9-.244l-4.333-7.506c-.184-.318-.075-.726.244-.9s.727-.076.9.243l4.333 7.506a.651.651 0 0 1-.244.9m-5.54 3.867a.67.67 0 0 1-.939-.082l-5.57-6.64a.67.67 0 0 1 .082-.94.667.667 0 0 1 .94.083l5.57 6.64c.237.282.2.703-.083.94m-4.765 4.764a.67.67 0 0 1-.94.083l-6.64-5.57a.667.667 0 1 1 .857-1.022l6.64 5.57c.282.236.32.657.082.94m-3.866 5.52a.656.656 0 0 1-.9.244l-7.506-4.333c-.32-.184-.428-.6-.243-.9s.6-.428.9-.244l7.506 4.333c.32.184.428.6.244.9m-2.84 6.108a.664.664 0 0 1-.855.398l-8.144-2.964a.67.67 0 0 1-.4-.855.67.67 0 0 1 .855-.398l8.144 2.965a.67.67 0 0 1 .4.854m-1.754 6.5a.67.67 0 0 1-.773.542l-8.535-1.505a.66.66 0 0 1 .232-1.314l8.535 1.505a.66.66 0 0 1 .54.772M229.333 96a.67.67 0 0 1-.667.667H220a.67.67 0 0 1-.667-.667.67.67 0 0 1 .667-.667h8.667a.67.67 0 0 1 .667.667m.586 6.714a.67.67 0 0 1-.54.772l-8.535 1.505a.67.67 0 0 1-.772-.542.667.667 0 0 1 .54-.772l8.535-1.505a.67.67 0 0 1 .773.542m1.744 6.5a.666.666 0 0 1-.4.854l-8.144 2.965a.667.667 0 1 1-.455-1.254l8.144-2.964a.667.667 0 0 1 .855.398m2.848 6.12a.651.651 0 0 1-.244.9l-7.506 4.333a.65.65 0 0 1-.9-.244c-.174-.32-.075-.727.243-.9l7.506-4.333a.65.65 0 0 1 .9.244m8.623 10.287c.282.236.32.657.083.94l-5.57 6.64a.666.666 0 1 1-1.022-.858l5.57-6.64a.666.666 0 0 1 .94-.082m5.53 3.866c.32.184.428.592.244.9l-4.333 7.505c-.184.32-.6.43-.9.244s-.428-.6-.244-.9l4.333-7.505c.184-.32.6-.428.9-.244m6.1 2.848a.67.67 0 0 1 .4.854l-2.965 8.144a.667.667 0 0 1-.855.398.67.67 0 0 1-.399-.855l2.965-8.144a.667.667 0 0 1 .855-.398m6.518 1.747a.66.66 0 0 1 .54.772l-1.505 8.535a.66.66 0 0 1-.773.54.653.653 0 0 1-.54-.772l1.505-8.535a.66.66 0 0 1 .773-.54m6.715.587c.37 0 .667.298.667.667V144a.666.666 0 1 1-1.334 0v-8.667c0-.37.298-.667.667-.667m6.714-.586a.667.667 0 0 1 .773.54l1.505 8.535c.064.363-.18.7-.54.772a.67.67 0 0 1-.773-.54l-1.505-8.535a.666.666 0 0 1 .54-.772m6.5-1.746a.67.67 0 0 1 .855.398l2.965 8.144a.67.67 0 0 1-.399.855.667.667 0 0 1-.855-.398l-2.965-8.144a.666.666 0 0 1 .4-.854m6.118-2.85a.651.651 0 0 1 .9.244l4.333 7.505a.65.65 0 0 1-.244.9c-.32.173-.727.075-.9-.244l-4.333-7.505a.65.65 0 0 1 .244-.9m5.52-3.866a.667.667 0 0 1 .94.082l5.57 6.64a.67.67 0 0 1-.082.939.67.67 0 0 1-.94-.082l-5.57-6.64a.667.667 0 0 1 .082-.94m4.767-4.765a.666.666 0 0 1 .94-.082l6.64 5.57c.282.237.32.658.082.94a.67.67 0 0 1-.94.082l-6.64-5.57a.666.666 0 0 1-.082-.94m3.866-5.52a.654.654 0 0 1 .9-.244l7.505 4.333c.32.184.43.6.244.9s-.6.43-.9.244l-7.505-4.333a.658.658 0 0 1-.244-.9m2.848-6.1a.663.663 0 0 1 .855-.398l8.144 2.964a.67.67 0 0 1 .399.854.67.67 0 0 1-.855.399l-8.143-2.965a.67.67 0 0 1-.4-.854m1.746-6.5a.67.67 0 0 1 .772-.542l8.535 1.505a.66.66 0 1 1-.232 1.314l-8.535-1.505a.66.66 0 0 1-.54-.772m.586-6.715c0-.368.298-.667.667-.667H316c.37 0 .667.3.667.667a.67.67 0 0 1-.667.667h-8.667c-.37 0-.667-.3-.667-.667m-.586-6.715a.665.665 0 0 1 .54-.772l8.535-1.505c.363-.064.7.18.772.542a.66.66 0 0 1-.54.772l-8.535 1.505a.67.67 0 0 1-.772-.542m-1.746-6.528a.666.666 0 0 1 .4-.854l8.143-2.965a.67.67 0 0 1 .855.398.67.67 0 0 1-.399.855l-8.144 2.964a.67.67 0 0 1-.855-.398m-2.848-6.108a.651.651 0 0 1 .244-.9l7.505-4.333c.32-.184.727-.075.9.244s.075.727-.244.9l-7.505 4.333a.65.65 0 0 1-.9-.244m-8.632-10.287a.666.666 0 0 1-.082-.94l5.57-6.64a.666.666 0 0 1 .94-.083.67.67 0 0 1 .082.939l-5.57 6.64a.67.67 0 0 1-.94.082m-5.52-3.865a.654.654 0 0 1-.244-.9l4.333-7.506c.184-.32.6-.428.9-.243s.43.6.244.9l-4.333 7.506a.66.66 0 0 1-.9.244m-6.1-2.85a.67.67 0 0 1-.399-.854l2.965-8.144a.67.67 0 0 1 .855-.4.67.67 0 0 1 .399.855l-2.965 8.144a.67.67 0 0 1-.855.4m-6.5-1.746a.66.66 0 0 1-.54-.772l1.505-8.535a.66.66 0 0 1 .773-.54c.373.065.605.4.54.772l-1.505 8.535a.67.67 0 0 1-.773.541" fill="#fff"/><path d="M60 11.333L66.667 60 60 108.667 53.333 60z" transform="rotate(50 125.399 301.029)" fill="url(#i)"/><path d="M152 69.538l-.008-4.3-.054-3.62c-.07-2.63-.226-5.282-.692-7.882-.474-2.64-1.248-5.096-2.47-7.494a25.178 25.178 0 0 0-11.018-11.018c-2.396-1.22-4.852-1.994-7.5-2.468-2.602-.468-5.254-.622-7.884-.694l-3.622-.054-4.3-.008H69.538l-4.298.008-3.622.054c-2.63.072-5.284.226-7.884.694-2.638.474-5.094 1.248-7.5 2.468a25.19 25.19 0 0 0-6.382 4.636 25.178 25.178 0 0 0-4.636 6.382c-1.222 2.398-1.996 4.854-2.47 7.494-.466 2.6-.622 5.252-.692 7.882L32 65.238V118.762l.054 3.62c.07 2.63.226 5.282.692 7.882.474 2.64 1.248 5.098 2.47 7.496 1.2 2.356 2.766 4.5 4.636 6.378s4.024 3.438 6.382 4.638c2.396 1.22 4.852 1.994 7.5 2.468 2.6.466 5.254.624 7.884.694l3.622.054 4.298.008 49.224-.008 3.622-.054c2.63-.07 5.282-.228 7.884-.694 2.638-.474 5.094-1.248 7.5-2.468a25.14 25.14 0 0 0 6.382-4.638 25.158 25.158 0 0 0 4.636-6.378c1.222-2.398 1.996-4.856 2.47-7.496.466-2.6.622-5.252.692-7.882l.054-3.62.008-4.3V69.538z" fill="url(#j)"/><path d="M60.815 84.297c-4.452-8.07-6.15-14.577-6.15-18.972s1.08-5.655 2.175-6.673 6.036-4.064 6.878-4.632 4.055-1.672 6.07 1.226 5.81 8.717 8.425 12.583c4.105 5.476.835 7.88-.222 9.32-1.944 2.65-3.063 3.305-3.063 6.56s9.097 12.503 11.273 14.782c2.16 2.26 11.224 10.208 14.032 10.633 2.83.428 6.615-2.567 7.42-3.326 4.096-3.145 6.408-.76 8.294.276s10.4 6.348 13.052 8.138c2.486 1.8 2.33 4.557 2.33 4.557s-1.77 5.163-5.75 9.115c-.98.97-2.64 2.116-6.837 2.116s-8.678-.766-19.33-6.625c-8.716-4.793-17.026-12.3-21.376-16.694-4.506-4.395-12.14-13.165-17.224-22.383z" fill="#fff"/></g><rect x="53" y="95" width="120" height="120" rx="30" fill="#fff"/><path d="M121.033 137.058l1.413-.818c3.05-1.86 11.008-5.728 19.562-.893l.893.52-.074 1.042a25.6 25.6 0 0 1-.893 4.76l-1.34 3.57s-14.876-3.198-17.33-1.7l-2.23-6.47zm-37.636 13.76l-2.455-3.05c-1.86-2.603-3.05-5.653-3.273-8.85l-.074-1.042.818-.52c10.488-6.47 20.53.818 20.9 1.116l1.934 9.074-17.85 3.273z" fill="#FFF000"/><path d="M73.802 177.372c-1.636-.372-3.198-.893-4.76-1.488-.67-.223-1.04-.893-1.04-1.562.372-8.033 3.198-14.43 8.405-18.967 9.744-8.703 24.322-7.8 24.917-7.8.893.074 1.562.818 1.488 1.71 0 .297 4.388 1.562 4.314 4.686-.074 6.173-4.612 16.14-4.314 16.66.446.744.223 1.785-.595 2.23-.595.372-13.76 7.885-28.413 4.538z" fill="url(#k)"/><path d="M134.273 169.488a45.21 45.21 0 0 1-11.23-4.166c-.744-.446-1.04-1.488-.595-2.23.223-.372-5.653-5.132-5.876-9.595-.223-4.612 5.207-8.777 5.207-9.223-.074-.893.595-1.637 1.488-1.71a46.27 46.27 0 0 1 15.917 2.157c10.785 3.57 17.107 11.083 18.074 21.793a1.554 1.554 0 0 1-1.04 1.637c-7.96 3.198-15.843 2.752-21.942 1.34z" fill="url(#l)"/><path d="M113.967 195.67c-.298-.074-.52-.223-.744-.446-9.967-9.744-12.347-19.785-12.57-26.405-.223-4.24.446-8.48 2.008-12.422.372-.818 2.455-5.058 3.273-4.686.372.148 2.53-3.868 5.876-4.166 3.868-.297 5.504 2.975 5.876 2.678.744-.52 4.017 3.72 4.537 4.388 2.678 3.942 4.463 8.48 5.207 13.314 1.04 7.14-.223 17.702-12.05 27.446-.446.297-.967.372-1.413.297z" fill="url(#m)"/><path d="M98.124 135.72c.372 4.686-.298 11.083 2.23 16.958.52 1.2 1.2 2.306 2.083 3.272 3.273 3.422 8.033 3.347 8.926 3.347 2.603 0 5.132-.818 7.29-2.38 1.413-1.116 2.603-2.53 3.42-4.166 3.273-6.173 2.826-13.686 2.678-16.8-.074 0-27-4.835-26.628-.223z" fill="#FF8500"/><path d="M92.248 118.686c1.34-1.71 5.43 1.34 8.48-.446 2.008-1.2 1.264-3.05 3.124-3.793s2.975 1.2 7.215 1.265c1.34.148 2.603 0 3.868-.446 1.636-.595 2.38-1.414 3.42-1.116a3.665 3.665 0 0 1 1.785 1.7c.744 1.2.446 1.71 1.04 2.23.67.595 1.562.15 3.198-.074.446-.074 5.43-.67 6.397 1.116.074.372.15.744.15 1.116.074 2.455-.52 3.05-.15 3.868.298.744.818.52 2.826 1.71 1.562.967 2.53 1.636 2.678 2.603 0 .744-.223 1.488-.744 2.008-1.34 2.008-2.826 1.86-3.124 3.273-.15.744-.15 1.487-.15 2.23s0 1.04-.15 1.264c-.372.372-1.04.074-2.38-.15a7.432 7.432 0 0 0-3.124-.223c-.967.223-1.86.818-2.455 1.562-1.562 1.637-1.264 2.976-2.157 3.2-1.413.446-2.53-2.752-4.76-2.678-1.2.074-2.23.967-3.72 2.23-1.34 1.116-1.86 2.008-2.455 1.86s-.446-.967-1.34-2.008a4.71 4.71 0 0 0-2.231-1.562c-.298-.074-.967-.223-4.463.967-1.86.595-1.86.744-2.23.67-2.083-.297-1.785-4.165-3.793-4.76-.67-.223-.744.297-3.198.595s-2.975-.075-3.124-.223c-.298-.372-.223-.967-.15-1.934s.372-1.116.223-1.562c-.223-.818-1.34-.744-2.603-1.636-.818-.595-2.008-1.934-1.785-3.124s2.157-2.083 2.975-2.455 1.488-.446 2.008-1.04a3.76 3.76 0 0 0 .67-1.71c.074-.967-.372-1.265-.446-2.23.074-.893.223-1.636.67-2.306z" fill="#FFC000"/><path d="M99.463 132.074c-.446-.52.595-2.306 1.86-3.645 3.57-3.793 9.15-3.942 10.636-3.942s7.364.074 10.04 4.016c1.04 1.488 1.636 3.645 1.2 3.942-.298.223-.818-.595-2.083-.967-1.785-.52-2.53.744-5.504 1.264-1.264.15-2.603.15-3.868.075-1.116 0-2.23 0-3.347-.15-2.603-.446-2.826-1.265-4.686-1.34-2.38-.15-3.793 1.2-4.24.744z" fill="#FF8500"/><g fill="#fff"><g font-size="24"><text font-family="SFProText-Medium, SF Pro Text" transform="translate(53 95)"><tspan x="14.502" y="151">Daffodil</tspan></text><text font-family="SFProText-Regular, SF Pro Text" transform="translate(598 22)"><tspan x="5.707" y="23">100%</tspan></text></g><path d="M716 31c1.725.444 3 2 3 3.874s-1.275 3.43-3 3.874V31z" fill-opacity=".5"/><rect x="674" y="28" width="36" height="13" rx="2"/><text font-family="SFProText-Semibold, SF Pro Text" font-size="24" font-weight="500" transform="translate(0 15)"><tspan x="328.48" y="30">9:41 AM</tspan></text><path d="M124.29 39.877L120.045 44l-4.325-4.19a5.717 5.717 0 0 1 4.255-1.873c1.73 0 3.278.753 4.314 1.94zm4.358-4.234l-2.178 2.116a8.834 8.834 0 0 0-6.494-2.806 8.84 8.84 0 0 0-6.437 2.744l-2.18-2.112c2.155-2.226 5.218-3.617 8.617-3.617 3.428 0 6.514 1.415 8.672 3.674zm4.353-4.23l-2.176 2.115c-2.716-2.797-6.572-4.544-10.85-4.544-4.25 0-8.083 1.724-10.796 4.5l-2.18-2.11c3.27-3.305 7.875-5.363 12.975-5.363 5.126 0 9.75 2.08 13.025 5.414z"/><text font-family="SFProText-Regular, SF Pro Text" font-size="24" transform="translate(0 15)"><tspan x="68" y="30">GS</tspan></text><path d="M54 25.995c0-.55.444-.995 1-.995h3a1 1 0 0 1 1 .995v17.01c0 .55-.444.995-1 .995h-3a1 1 0 0 1-1-.995v-17.01zm-8 5.012A1 1 0 0 1 47 30h3c.552 0 1 .45 1 1.007v11.986A1 1 0 0 1 50 44h-3c-.552 0-1-.45-1-1.007V31.007zm-8 3.99c0-.55.444-.996 1-.996h3c.552 0 1 .456 1 .996v8.01c0 .55-.444.996-1 .996h-3c-.552 0-1-.456-1-.996v-8.01zm-8 3.995c0-.547.444-.99 1-.99h3a1 1 0 0 1 1 .991v4.02c0 .547-.444.99-1 .99h-3a1 1 0 0 1-1-.991v-4.02z"/></g></g></svg>