<svg xmlns="http://www.w3.org/2000/svg" xmlns:xlink="http://www.w3.org/1999/xlink" viewBox="0 0 100 100"><style>.st0{display:none}.st1{display:inline}.st3,.st4{fill-rule:evenodd;clip-rule:evenodd;fill:#ffc810}.st4{fill:#2d3047}.st5{fill:#ffc810}.st7{fill:#2d3047}.st8{fill:#fff}</style><g id="fast_icon" class="st0"><g class="st1"><defs><path id="SVGID_1_" d="M-2-1.4h104V99.4H-2z"/></defs><clipPath id="SVGID_2_"><use xlink:href="#SVGID_1_" overflow="visible"/></clipPath><path d="M36.9 29c-5.5-.7-11.6 1.3-17.2 5.3-7.5 5.2-14.4 14-19.1 24.9-.3.7-.1 1.5.5 1.9.6.4 1.4.4 2 0C9.9 55.8 15.2 53 19 52.4c3.7-.6 5.8.4 7.7 3.6.3.5.9.9 1.5.8.6 0 1.2-.4 1.4-1 3.8-8.7 8.3-16.3 13.3-22.8.3-.4.4-.9.3-1.4-.1-.5-.4-.9-.9-1.1-1.7-.7-3.5-1.3-5.4-1.5zm-5.2 3.4c2.5-.5 4.8.2 7.1.9-4.2 5.7-8 12.1-11.2 19.3-2.4-2.5-5.4-4-9.2-3.4-3.3.6-7.1 2.6-11.4 5.3 4.2-7.5 9.1-13.8 14.6-17.6 3.4-2.4 6.8-3.9 10.1-4.5zm36 24.2c-.4 0-.7.1-1 .3-6.5 5-14.1 9.6-22.8 13.3-.6.2-.9.8-1 1.4 0 .6.3 1.2.8 1.5 3.2 1.8 4.3 3.9 3.6 7.7-.6 3.7-3.5 9.1-8.7 15.9-.5.6-.5 1.4 0 2 .4.6 1.2.8 1.9.5 11-4.7 19.7-11.6 24.9-19.1 5.2-7.5 7.1-15.7 3.6-22.6-.1-.5-.6-.8-1.3-.9zM66.5 61c1.6 5.1.6 11.1-3.7 17.2-3.8 5.4-10.2 10.4-17.6 14.6 2.7-4.2 4.8-8.1 5.3-11.4.6-3.8-.9-6.8-3.4-9.2 7.3-3.2 13.7-7 19.4-11.2zm-43.6-.8l-1 1.9-3.6 6.5 13 12.9 8.1-4.7-16.5-16.6zm.8 5.4l10.5 10.5-2.3 1.4-9.5-9.4 1.3-2.5zm0 0" clip-path="url(#SVGID_2_)" fill-rule="evenodd" clip-rule="evenodd" fill="#2d3047"/><path class="st3" d="M17.6 74.5l-7.7 7.7 1.5 1.5 7.7-7.7-1.5-1.5zm-9.2 9.2l-1.5 1.5 1.5 1.5 1.5-1.5-1.5-1.5zm12.3-6.1L8.4 89.9l1.5 1.5 12.3-12.3-1.5-1.5zM6.8 91.4l-1.5 1.5 1.5 1.6 1.5-1.6-1.5-1.5zm17-10.8l-9.2 9.2 1.5 1.5 9.2-9.2-1.5-1.5zM13 91.4l-1.5 1.5 1.5 1.6 1.6-1.6-1.6-1.5zm0 0"/><path class="st4" d="M70.4 6.7c-.3 0-.5.1-.7.2-21.4 10.8-36.2 30.9-44 49.7-.3.6-.1 1.3.4 1.8l15.4 15.4c.5.5 1.2.6 1.8.4 18.8-7.7 39.2-22.6 50-44 .4-.8.1-1.8-.7-2.2-.8-.4-1.8-.1-2.2.7C80.1 48.8 60.9 63 42.9 70.6L29.2 56.9C36.8 39 51 20 71.2 9.8c.7-.3 1-1.1.9-1.8-.3-.8-.9-1.3-1.7-1.3zm0 0"/><path class="st4" d="M73 5.3c-.2 0-.4 0-.6.1-1.7.7-4.8 2.6-6 3.2-.5.2-.8.7-.9 1.2-.1.5.1 1 .5 1.4l22.8 22.5c.4.4.9.5 1.4.4.5-.1 1-.4 1.2-.9.3-.6.9-1.7 1.5-2.7.6-1.1 1.2-2.1 1.6-3 .3-.6.1-1.3-.3-1.8l-20-20c-.3-.2-.7-.4-1.2-.4zm-.2 3.6L91 27.2c-.3.5-.5 1.1-.9 1.7-.2.4-.4.6-.5 1L69.8 10.5c1.1-.6 2.1-1.1 3-1.6zm0 0"/><path class="st4" d="M97.9.2c-9.4 0-17.9 2-25.7 5.3-.5.2-.9.7-1 1.2-.1.5.1 1.1.4 1.4l20.1 20.1c.4.4.9.5 1.5.4.5-.1 1-.5 1.2-1 3.3-7.8 5.2-16.5 5.2-25.9 0-.7-.8-1.5-1.7-1.5zm-1.8 3.5c-.2 7.3-1.6 14.1-4 20.4L75.9 7.7c6.2-2.3 13-3.8 20.2-4zm0 0"/><path class="st5" d="M71.4 28.4c-3.2-3.2-8.4-3.2-11.5 0-3.2 3.2-3.2 8.3 0 11.5 3.2 3.2 8.3 3.2 11.5 0 3.1-3.2 3.1-8.4 0-11.5zm-2.3 2.3c1.9 1.9 1.9 5 0 6.9-1.9 1.9-5 1.9-6.9 0-1.9-1.9-1.9-5 0-6.9 1.9-2 4.9-2 6.9 0zm0 0"/></g></g><g id="Layer_2" class="st0"><g class="st1"><defs><path id="SVGID_3_" d="M0 9.4h100v81.3H0z"/></defs><clipPath id="SVGID_4_"><use xlink:href="#SVGID_3_" overflow="visible"/></clipPath><path d="M82.9 14.5c-2.7.1-5.4.8-7.9 2.3L56.8 27.3c-6 3.5-9 10.1-8.3 16.6.1.5.4 1 .9 1.2.5.2 1 .2 1.5 0l7.3-4.3c.3-.2.6-.5.7-.9.5-1.6 1.6-3 3.1-3.9l17.8-10.4c3.3-1.9 7.3-.9 9.2 2.3 1.8 3.2.7 7.3-2.6 9.2L68.6 47.6c-1.6.9-3.3 1.1-4.9.8-.4-.1-.8 0-1.1.2l-7.3 4.3c-.5.3-.7.7-.8 1.3 0 .5.2 1 .6 1.3 5.2 3.9 12.4 4.6 18.4 1.1L91.7 46c8-4.7 10.7-14.9 6.1-23-3.2-5.6-9-8.7-14.9-8.5zm0 3.1c4.8-.1 9.5 2.3 12.1 6.9 3.8 6.6 1.6 14.9-5 18.7L71.9 53.8c-4 2.3-8.4 1.9-12.3.1l4.6-2.6c2 .2 4.1.1 6-1L88 39.9c4.7-2.7 6.4-8.8 3.7-13.5C89 21.8 83 20.2 78.3 23L60.5 33.3c-1.9 1.1-3 2.9-3.8 4.8l-4.5 2.6c.4-4.3 2.2-8.4 6.2-10.7l18.2-10.6c2-1.1 4.2-1.7 6.3-1.8zM34.4 42.7c-2.7.1-5.4.8-7.9 2.3L8.3 55.5c-8 4.6-10.7 14.9-6.1 23 4.6 8 14.8 10.8 22.8 6.2l18.2-10.6c6-3.5 9-10.1 8.2-16.6-.1-.5-.4-1-.8-1.2-.5-.2-1-.2-1.5 0l-7.3 4.3c-.3.2-.6.5-.7.9-.5 1.6-1.6 3-3.1 3.9L20.2 75.7c-3.3 1.9-7.3.9-9.2-2.3-1.8-3.2-.7-7.3 2.6-9.2l17.8-10.4c1.6-.9 3.3-1.1 4.9-.8.4.1.8 0 1.1-.2l7.3-4.3c.4-.3.7-.7.8-1.3 0-.5-.2-1-.6-1.3-3-2.2-6.7-3.3-10.5-3.2zm.1 3.1c2 0 3.9 1 5.7 1.8l-4.4 2.6c-2-.2-4.1-.2-6 .9L12 61.5c-4.7 2.7-6.4 8.8-3.7 13.4 2.7 4.7 8.7 6.2 13.5 3.5L39.6 68c1.9-1.1 3-2.9 3.8-4.8l4.5-2.6c-.4 4.3-2.2 8.4-6.3 10.7L23.5 81.9C17 85.7 8.7 83.5 5 76.9 1.2 70.3 3.4 62 10 58.2l18.1-10.6c2-1.2 4.2-1.8 6.4-1.8z" clip-path="url(#SVGID_4_)" fill="#2d3047"/><path class="st7" d="M64.9 35.9c-1.9-.5-4-.2-5.9.9L33.7 51.4c-3.7 2.2-5.1 6.8-3 10.5 2.1 3.6 6.9 4.8 10.5 2.6l25.3-14.7c3.7-2.1 5.1-6.8 3-10.5-1-1.8-2.7-3-4.6-3.4zm-.8 3c1.1.3 2.1 1 2.7 2 1.2 2.1.4 4.9-1.9 6.2L39.7 61.8c-2.3 1.4-5.1.6-6.3-1.5-1.2-2.1-.4-4.9 1.9-6.2l25.3-14.7c1.1-.6 2.4-.8 3.5-.5z"/><path class="st3" d="M48.4 10.8v7.1h3.1v-7.1h-3.1zm0 72.8v7h3.1v-7h-3.1zm33.5-25.9l-.8 3 6.7 1.8.8-3-6.7-1.8zM12.2 38.9l-.8 3 6.8 1.8.8-3-6.8-1.8zm53 41l-2.8 1.3 2.9 6.4 2.8-1.3-2.9-6.4zM34.8 13.8L32 15.1l3 6.4 2.8-1.3-3-6.4zm40 58.3l-2.1 2.3 5.1 4.8 2.1-2.3-5.1-4.8zM22.3 22.2l-2.2 2.3 5.1 4.8 2.1-2.3-5-4.8z"/></g></g><g id="Layer_3" class="st0"><g class="st1"><path class="st7" d="M1.8 0C.8 0 0 .8 0 1.8v96.4c0 1 .8 1.8 1.8 1.8h96.4c1 0 1.8-.8 1.8-1.8V1.8c0-1-.8-1.8-1.8-1.8H1.8zm1.8 3.6h92.9v92.9H3.6V3.6z"/><path class="st4" d="M1.8 14.3h96.4v3.6H1.8z"/><path class="st5" d="M10.7 8.9c0 1-.8 1.8-1.8 1.8s-1.8-.8-1.8-1.8.8-1.8 1.8-1.8 1.8.8 1.8 1.8zm7.2 0c0 1-.8 1.8-1.8 1.8s-1.8-.8-1.8-1.8.8-1.8 1.8-1.8 1.8.8 1.8 1.8zm7.1 0c0 1-.8 1.8-1.8 1.8s-1.8-.8-1.8-1.8.8-1.8 1.8-1.8 1.8.8 1.8 1.8zM45.1 28.6c-1 0-1.8.8-1.8 1.8v4.3c-1.6.5-3.1 1.1-4.6 1.9l-3-3c-.7-.7-1.8-.7-2.5 0l-6.9 6.9c-.7.7-.7 1.8 0 2.5l3 3c-.8 1.5-1.4 3-1.9 4.6h-4.3c-1 0-1.8.8-1.8 1.8V62c0 1 .8 1.8 1.8 1.8h4.3c.5 1.6 1.1 3.1 1.9 4.6l-3 3c-.7.7-.7 1.8 0 2.5l6.9 6.9c.7.7 1.8.7 2.5 0l3-3c1.5.8 3 1.4 4.6 1.9V84c0 1 .8 1.8 1.8 1.8h9.7c1 0 1.8-.8 1.8-1.8v-4.3c1.6-.5 3.1-1.1 4.6-1.9l3 3c.7.7 1.8.7 2.5 0l6.9-6.9c.7-.7.7-1.8 0-2.5l-3-3c.8-1.5 1.4-3 1.9-4.6h4.3c1 0 1.8-.8 1.8-1.8v-9.7c0-1-.8-1.8-1.8-1.8h-4.3c-.5-1.6-1.1-3.1-1.9-4.6l3-3c.7-.7.7-1.8 0-2.5l-6.9-6.9c-.7-.7-1.8-.7-2.5 0l-3 3c-1.5-.8-3-1.4-4.6-1.9v-4.3c0-1-.8-1.8-1.8-1.8h-9.7zm1.8 3.5h6.2v3.7c0 .8.6 1.5 1.4 1.7 2.2.5 4.3 1.4 6.2 2.6.7.4 1.6.3 2.2-.2l2.6-2.6 4.4 4.4-2.6 2.6c-.6.6-.7 1.5-.2 2.2 1.2 1.9 2.1 4 2.6 6.2.2.8.9 1.4 1.7 1.4H75v6.2h-3.7c-.8 0-1.6.6-1.7 1.4-.5 2.2-1.4 4.3-2.6 6.2-.4.7-.3 1.6.2 2.2l2.6 2.6-4.3 4.3-2.6-2.6c-.6-.6-1.5-.7-2.2-.2-1.9 1.2-4 2.1-6.2 2.6-.8.2-1.4.9-1.4 1.7v3.7h-6.2v-3.7c0-.8-.6-1.6-1.4-1.7-2.2-.5-4.3-1.4-6.2-2.6-.7-.4-1.6-.3-2.2.2L34.5 77l-4.4-4.4 2.6-2.6c.6-.6.7-1.5.2-2.2-1.2-1.9-2.1-4-2.6-6.2-.2-.8-.9-1.4-1.7-1.4H25V54h3.7c.8 0 1.6-.6 1.7-1.4.5-2.2 1.4-4.3 2.6-6.2.4-.7.3-1.6-.2-2.2l-2.6-2.6 4.4-4.4 2.6 2.6c.6.6 1.5.7 2.2.2 1.9-1.2 4-2.1 6.2-2.6.8-.2 1.4-.9 1.4-1.7v-3.6z"/><path class="st5" d="M50 47.5c-5.3 0-9.7 4.3-9.7 9.7 0 5.3 4.3 9.7 9.7 9.7 5.3 0 9.7-4.3 9.7-9.7 0-5.4-4.4-9.7-9.7-9.7zm0 3.6c3.4 0 6.1 2.7 6.1 6.1 0 3.4-2.7 6.1-6.1 6.1-3.4 0-6.1-2.7-6.1-6.1 0-3.4 2.7-6.1 6.1-6.1z"/></g></g><g id="Layer_5" class="st0"><g class="st1"><path class="st7" d="M1.6 14.1c-.9 0-1.6.7-1.6 1.6v43.8c0 .9.7 1.6 1.6 1.6h29.7V58H3.1v-3.1h28.1v-3.1H3.1V17.2h62.5V36h3.1V15.6c0-.9-.7-1.6-1.6-1.6H1.6zm0 0"/><path class="st7" d="M23.4 57.8c-.9 0-1.6.7-1.5 1.6v9.4c0 .6.3 1.1.8 1.4.5.3 1.1.3 1.6 0s.8-.8.8-1.4v-9.4c0-.4-.2-.8-.5-1.1-.4-.4-.8-.5-1.2-.5zm0 0"/><path class="st4" d="M15.6 67.2h37.5v3.1H15.6z"/><path class="st7" d="M32.8 35.9c-.9 0-1.6.7-1.6 1.6v31.2c0 .9.7 1.6 1.6 1.6h26.6v-3.1h-25V39.1h46.9v6.2h3.1v-7.8c0-.9-.7-1.6-1.6-1.6h-50zm0 0"/><path class="st7" d="M26.6 67.2c-.9 0-1.6.7-1.6 1.6 0 4.3 3.5 7.8 7.8 7.8h26.6v-3.1H32.8c-2 0-3.4-1.4-4-3.1h30.6v-3.1H26.6zm0 0"/><path class="st5" d="M60.9 42.2c-.9 0-1.6.7-1.6 1.6v37.5c0 .9.7 1.6 1.6 1.6h21.9c.9 0 1.6-.7 1.6-1.6V60.9h4.7c.9 0 1.6-.7 1.6-1.6V43.7c0-.9-.7-1.6-1.6-1.6H60.9zm1.6 3.1h25v12.5h-4.7c-.9 0-1.6.7-1.6 1.6v20.3H62.5V45.3zm0 0"/><path class="st5" d="M82.8 57.8c-.9 0-1.6.7-1.6 1.6v25c0 .9.7 1.6 1.6 1.6h15.6c.9 0 1.6-.7 1.6-1.6v-25c0-.9-.7-1.6-1.6-1.6H82.8zm1.6 3.1h12.5v21.9H84.4V60.9zm0 0"/><path class="st3" d="M82.8 76.6h15.6v3.1H82.8z"/></g></g><g id="Layer_4"><path class="st4" d="M5.9 14.3v3.6H63v-3.6H5.9zm0 64.3v3.6H63v-3.6H5.9z"/><path class="st7" d="M61.2 0H7.6c-1 0-1.8.8-1.8 1.8v96.4c0 1 .8 1.8 1.8 1.8h53.6c1 0 1.8-.8 1.8-1.8V1.8c0-1-.8-1.8-1.8-1.8zm-1.8 96.4h-50V3.6h50v92.8z"/><path class="st7" d="M34.4 85.7c-2 0-3.6 1.6-3.6 3.6s1.6 3.6 3.6 3.6 3.6-1.6 3.6-3.6-1.6-3.6-3.6-3.6z"/><path class="st4" d="M39.8 10.7H29.1c-1 0-1.8-.8-1.8-1.8s.8-1.8 1.8-1.8h10.7c1 0 1.8.8 1.8 1.8s-.8 1.8-1.8 1.8z"/><path class="st8" d="M97.8 32.5v30.2H86.1v9.2l-7.5-8.8-28.4-.4V32.5z"/><path class="st8" d="M37.2 26.2v30.2h11.7v9.1l7.5-8.8 28.4-.3V26.2z"/><path class="st7" d="M98.9 30.5H84.8v2.2h13v30.2H87.2c-.6 0-1.1.5-1.1 1.1v8l-7.5-8.8c-.2-.3-.5-.4-.8-.4H51.2L49.3 65h28l9.1 10.6c.3.3.8.5 1.2.3.4-.2.7-.6.7-1V65H99c.6 0 1.1-.5 1.1-1.1V31.6c-.1-.6-.6-1.1-1.2-1.1z"/><path class="st5" d="M71.5 37.2c2.2 0 4 1.8 4 4s-1.8 4-4 4-4-1.8-4-4 1.8-4 4-4zm0 2.2c-1 0-1.9.8-1.9 1.9 0 1 .8 1.9 1.9 1.9 1 0 1.8-.8 1.8-1.9.1-1.1-.8-1.9-1.8-1.9zM61 37.2c2.2 0 4 1.8 4 4s-1.8 4-4 4-4-1.8-4-4 1.8-4 4-4zm0 2.2c-1 0-1.8.8-1.9 1.9 0 1 .8 1.9 1.9 1.9 1 0 1.8-.8 1.8-1.9 0-1.1-.8-1.9-1.8-1.9zm-10.5-2.2c2.2 0 4 1.8 4 4s-1.8 4-4 4-4-1.8-4-4 1.8-4 4-4zm0 2.2c-1 0-1.8.8-1.8 1.9 0 1 .8 1.9 1.8 1.9s1.9-.8 1.9-1.9c-.1-1.1-.9-1.9-1.9-1.9z"/><path class="st5" d="M85.9 24H36.1c-.6 0-1.1.5-1.1 1.1v32.4c0 .6.5 1.1 1.1 1.1h10.7v9.9c0 .4.3.9.7 1 .4.2.9 0 1.2-.3l3.5-4.1 5.6-6.5H86c.6 0 1.1-.5 1.1-1.1V25.1c-.1-.6-.6-1.1-1.2-1.1zm-1.1 32.4H57.2c-.3 0-.6.2-.8.4l-5.2 6.1-1.9 2.1-.4.5v-8.1c0-.5-.4-1-.9-1H37.2V26.2h47.7v30.2z"/></g></svg>