<svg xmlns="http://www.w3.org/2000/svg" viewBox="0 0 340 135"><defs><clipPath id="a"><path fill="none" d="M97.37 50h145.27v35H97.37z"/></clipPath></defs><path d="M0 0h340v135H0z" fill="#fafafa"/><g clip-path="url(#a)"><path d="M154.19 84.88h1V83H157c.85 0 2.25 0 2.25-1.5S157.83 80 157 80h-2.78zm1-2.75v-1.37h2c.56 0 1 0 1 .68s-.49.69-1 .69zm5.22 2.75h1l.53-1.12h2.88l.52 1.12h1L164 79.94h-1.13zm2-1.94l1-2.25 1 2.25zm6.46 2h1v-2h1.56l1.45 2H174l-1.53-2a1.43 1.43 0 0 0 1-.43 1.41 1.41 0 0 0 .38-1c0-1.21-.84-1.47-2-1.47h-3zm1-2.76v-1.45h1.9c.8 0 1.2.11 1.2.7s-.41.7-1.2.7zm7.11-2.21h1v4.94h-1zm7.89 1.5c-.16-.43-.56-.82-1.75-.82-.67 0-1.33.17-1.33.62 0 .21.13.44 1.12.55L184 82c1.13.16 1.78.6 1.78 1.42 0 1.16-1.12 1.61-2.45 1.61-2.14 0-2.67-1.05-2.78-1.43l.93-.29c.19.38.56.89 1.87.89.81 0 1.46-.27 1.46-.69s-.37-.53-1.08-.62l-1.2-.16c-1.15-.15-1.79-.66-1.79-1.41 0-1.48 1.94-1.48 2.32-1.48 2.16 0 2.52 1 2.65 1.32zm37.51-9.28c.41 3.43 2.21 2.92 2.3 3.22h-7s2 0 1.59-3l-1.81-13.4c-.08-.36-.08-.75-.28-.68S211 72.72 211 72.72c-.08.23-.23.37-.43 0S205 60.55 205 60.55c-.27-.59-.75-1.55-.83-1.72s-.37-.33-.34.68l-1.42 13.58c-.34 2.37 1.91 2.19 1.87 2.33h-4.91c-.07-.11 1.65.11 2-2.38l1.63-15c-.12-2.91-2.17-2.75-2.17-3H206l.08.16 5.51 11.93a3.33 3.33 0 0 0 .16.3c.16.35.15.58.34.13l5.4-12.56h5c0 .18-2 .09-2 2.58zM108.55 74.7c4.8-.06 4.58-3.69 4.9-3.66l-.83 4.36H97.77c0-.12 2.85-.17 2.89-2.18V58c0-2.49-2.68-2.55-2.56-2.73h8.38c-.18.19-2.9.2-2.9 2.62v15.8c0 1.16 1.17 1 2.16 1h2.81m31.64-1.4c.29 2.51 2.21 1.87 2.21 2.11H137c0-.24 2.15 0 2.11-2.27V57.86c0-2.64-2.28-2.64-2.33-2.85h5.4l11.17 13.75V57.6a2.42 2.42 0 0 0-2.18-2.6h5.64a2.77 2.77 0 0 0-2.34 2.65v17.3s.2 1.31-.6.27L140.4 58.26c-.12-.14-.17 0-.18.43v14.39zm-18.12-7.82c-.55 0-.47-.32-.26-.82l2-5.09c.28-.72.58-.57.79 0l1.85 5.13c.18.57.41.75-.21.75h-4.23M133 72.83l-7.51-17.7c-.55-.6-.75.08-.75.08-.75 1.71-7.61 18.13-7.61 18.13-.94 2.19-2.15 1.93-2.15 2.08h4.86c0-.24-2.62.16-1.72-2.12l2.6-6.33c.27-.4.3-.5.93-.5h4.87c.59 0 .62 0 .87.58l2.46 6c.72 2.4-1.46 2.25-1.43 2.41h6.9c.07-.2-1.05.48-2.3-2.57m55.28-21.35L180 54l8.23-4 8.26 4zm0 23.11h-.07c-4 0-6.55-3.69-6.55-9.44 0-6.58 2.66-9.77 6.61-9.77s6.63 3.19 6.63 9.77c0 5.72-2.71 9.4-6.63 9.43m0-20a10.4 10.4 0 0 0-10.58 10.5 10.16 10.16 0 0 0 10.52 10.26 10.29 10.29 0 0 0 10.67-10.24 10.43 10.43 0 0 0-10.61-10.5M168.68 74.6c4.65-.08 6.74-3.29 7.15-3.43a8.34 8.34 0 0 1-7.2 4.2c-11.08 0-10.89-10-10.89-10 .34-7 6-11.19 11.52-10.61a13 13 0 0 1 3.18.72c.5.16 1.87.9 2.41.7.37-.15.66-.94.75-1l.05 5.46c-.38 0-1.61-5.25-6.89-5.25-4.32 0-7.59 4.91-7.53 9.73.12 8 5.76 9.48 7.46 9.45m63.19-9.27V73c0 1.52-.12 1.7.87 1.71h5.49a4.76 4.76 0 0 0 2.75-.86c1.26-1 1-2.48 1.22-2.53l-.13 4.08h-15.4c-.06-.15 2.29.24 2.29-3.1V58.21c0-3.36-2.17-2.84-2.14-3.1h15.27l.13 4c-.31 0 .5-3.15-4-3.43h-5.07c-.88 0-1.24 0-1.24 1.67v5.34c0 .74 0 .81 1.06.81h4.9c2.47 0 2.14-2.21 2.35-2.21v5.24c-.21 0 .11-2.43-2.24-2.36h-5c-1.08 0-1.12.38-1.12 1.12z"/></g></svg>