<svg xmlns="http://www.w3.org/2000/svg" xmlns:xlink="http://www.w3.org/1999/xlink" viewBox="0 0 340 135">
<style type="text/css">
	.st0{fill:#FAFAFA;}
	.st1{fill:#FFFFFF;}
	.st2{fill:#007042;}
	.st3{opacity:0.99;fill:#FFFFFF;enable-background:new    ;}
	.st4{fill:#231F20;}
</style>
<path class="st0" d="M0,0h340v135H0V0z"/>
<path class="st1" d="M132.2,67.6c0,9.7-7.9,17.5-17.6,17.4c-9.7,0-17.5-7.9-17.4-17.6c0-9.7,7.8-17.4,17.5-17.4
	C124.4,50,132.2,57.9,132.2,67.6z"/>
<path class="st2" d="M114.5,56.2c0.6,0.4,1.2,0.8,1.8,1.3l-0.2,0.2c-1-0.1-2-0.1-2.9,0
		c-0.1-0.1-0.3-0.3-0.1-0.4L114.5,56.2L114.5,56.2z M131.9,68.4c0.1,0.4,0,0.9-0.1,1.3c-1.8,0.5-3-1.4-4.7-1.1l0.2,1
		c1.6,0,2.6,1.6,4.3,1.5c-0.2,0.5,0.1,1.7-0.9,1.2c-1.1-0.3-1.9-1.3-3-1.3c-0.2,0.3-0.1,0.6-0.1,0.9c1.2,0.2,2.1,1.3,3.4,1.4
		c-0.1,0.4-0.3,0.9-0.6,1.2c-1-0.2-1.8-1.2-2.9-1.1l-0.2,0.9c1,0,1.7,0.9,2.6,1.2c0,0.4-0.3,0.7-0.5,1c-0.8-0.2-1.4-1-2.4-0.9
		c0-0.4,0.2-0.8,0.1-1.1c-1,0.3-1.8-0.7-2.5-1.2c0-1.9-2.1-3.2-2.2-5c0-0.4,0-0.8,0.2-1.2c0.6-1.6,0.5-3.4-0.3-5
		c-0.3-0.4-0.6-0.7-1-0.9c0.7,1.2,1,2.5,0.9,3.9c0,1.1-0.7,2.1-0.7,3.1c0,0.4,0.1,0.8,0.3,1.1c0.8,1.5,2.4,3,1.8,4.9
		c-0.2,0.6-0.6,1-0.7,1.6c1,0.8,1.9,1.7,3.2,1.8c0.5-0.3,0.2-1.6,1.2-1l1.4,0.7c-0.1,0.4-0.4,0.7-0.7,1c-0.5-0.3-1.1-0.5-1.7-0.6
		c-0.2,0.2-0.3,0.5-0.3,0.7c0.5,0.1,0.9,0.3,1.3,0.6c-0.2,0.4-0.5,0.7-0.9,0.9l-1.1-0.4c-0.2,0.3-0.6,0.5-0.4,0.8
		c0.3,0.1,0.5,0.2,0.7,0.4c-0.5,0.5-1.1,0.9-1.7,1.2c-0.5-1.7-2.2-2.8-2-4.7h-0.1c-0.4,0.4-0.3,1.1-0.2,1.7
		c0.5,1.2,1.6,2.1,1.8,3.4c-0.2,0.3-0.6,0.4-1,0.6c0-2.4-3.6-4.2-1.2-6.6c0.8-1.2,2.1-2.3,1.6-3.9c-0.5-1.6-2.1-2.5-2.1-4.3V68
		c0.4-1.8,1.5-3.8,0.6-5.7c-0.3-0.9-0.8-1.6-1.6-2c1.3,1.5,1.6,3.5,1,5.4c-0.4,0.8-0.7,1.6-0.9,2.4l0,0c0,0.5,0.1,0.9,0.3,1.3
		c0.9,1.5,2.5,3.1,1.6,5c-1,1.5-2.8,3.1-1.8,5.1c0.7,1.2,1.8,2.4,1.5,3.9l-1.2,0.4c0.8-2.8-3-4.4-1.4-7.1c1-1.5,2.8-2.8,1.8-4.8
		c-0.6-1.2-1.8-1.9-1.8-3.4v-0.3c0.4-2.1,2-4.2,0.9-6.5c-0.3-0.7-0.9-1.3-1.6-1.8l0,0c1.3,1.4,1.7,3.4,1,5.1c-0.5,1-0.9,2-1.1,3.1
		c-0.1,0.5,0,1.1,0.3,1.6c0.8,1.3,2.3,2.8,1.4,4.5c-1,1.4-2.6,2.8-1.9,4.7c0.7,1.6,2.2,3.2,1.4,5.2l-1.2,0.3c1-2-0.5-3.9-1.3-5.6
		c-1-2.4,2.2-3.6,2.3-5.9c0-1.4-1.6-2.3-1.9-3.6c-0.7-0.6-1.4,0.2-2.2,0.1c-0.6,0.1-1.5-0.8-1.8,0.2c-0.4,1.5-2.3,2.6-1.5,4.3
		c0.8,1.6,2.7,2.7,2.1,4.7c-0.6,2-2.5,3.7-1.3,5.8c-0.5-0.2-1.4,0.1-1.4-0.6c-0.7-2.6,2.4-4.1,1.4-6.8c-0.4-1.6-2.5-2.5-2.1-4.4
		c0.3-1.6,2.1-2.7,1.9-4.4c0-0.2-0.1-0.3-0.1-0.4c-0.7-1.9-2-3.8-1.2-5.9c0.3-0.6,0.6-1.2,1.1-1.7c-1.3,0.8-2,2.2-1.9,3.6
		c0,1.6,1.1,3,1.3,4.5c0.1,0.7-0.1,1.3-0.4,1.9c-0.8,1.1-2,2.3-1.4,3.9c0.6,1.6,2.4,2.4,2.3,4.2c0,2.1-2.4,3.4-1.8,5.7l-1.2-0.4
		c-0.5-2.1,1.7-3.2,1.8-5.1c0.3-2.2-2.5-3-2.3-5.2c0-1.6,1.4-2.7,2.1-4.1c0.1-0.3,0.1-0.7,0.1-1c-0.1-1.5-1.4-2.7-1.2-4.4
		c0.1-1.2,0.5-2.4,1.3-3.3c-1.1,0.5-1.6,1.8-1.9,2.8c-0.5,1.8,0.8,3.3,0.9,4.9c0.1,0.8-0.2,1.5-0.8,2.1c-0.9,1.1-1.9,2.5-1.2,4
		c0.7,1.5,3,2.9,2,5c-0.5,1.3-1.8,2.3-1.8,3.8c-0.4-0.1-0.7-0.3-1-0.6c0-1.9,2.8-3.2,1.4-5.2c-0.1,0.4-0.1,1-0.2,1.4
		c-0.5,1.1-1.5,2.1-1.9,3.3c-0.6-0.3-1.2-0.7-1.7-1.2l0.7-0.4c-0.1-0.3-0.3-0.5-0.5-0.7c-0.4-0.1-0.8,0.2-1.1,0.3
		c-0.3-0.3-0.6-0.6-0.9-0.9c0.2-0.7,2.1-0.1,1.1-1.2c-0.6-0.4-1.3,0.2-1.8,0.4l-0.7-0.9c0.6-0.4,1.3-0.9,2.1-0.8
		c0.2,0.3,0.2,0.9,0.6,1.1c1.3,0,2.3-1,3.3-1.8c-0.9-1.1-1.1-2.5-0.7-3.8c0.5-1.3,1.8-2.4,1.9-3.8c0-0.3-0.1-0.7-0.2-1
		c-0.7-1.8-1-4.3,0.4-5.9c-0.7,0.2-1.2,1.1-1.4,1.8c-0.8,1.8,0.2,3.4,0.2,5.1c0,0.3,0,0.6-0.1,0.9c-0.7,1.4-1.8,2.6-2,4.2
		c-0.8,0.5-1.4,1.4-2.6,1.1c0,0.4,0,0.7,0.2,1.1c-0.9,0-1.5,0.6-2.3,0.9c-0.4-0.1-0.5-0.7-0.7-1c0.9-0.3,1.5-1.2,2.5-1.2
		c0.1-0.3-0.1-0.6-0.1-0.9c-1.3-0.6-3.3,2.8-3.4-0.1c1.3-0.1,2.1-1.2,3.3-1.4V71c-1.4-0.2-2.3,1.3-3.8,1.2l-0.6-1.1
		c1.6,0.1,2.6-1.4,4.2-1.4c0.2-0.3,0.3-0.7,0.3-1.1c-1.7-0.2-2.9,1.7-4.7,1.1c0,0-0.1-0.8-0.1-1.2l0,0c0-0.2,0-0.3,0-0.3
		c1.6,0.6,3-0.5,4.4-1.1c0.3-0.1,0.9,0.1,1-0.3c0-0.3,0.5-0.7,0.1-0.9c-2-0.3-3.4,2.2-5.4,1.1l-0.2-0.3c0.4-6.1,3.9-11.6,9.4-14.5
		c5.4-2.8,12-2.6,17.2,0.7c4.8,3,7.9,8.2,8,14c-2.1,1.6-3.6-1.5-5.7-0.8c0.1,0.4,0.2,0.7,0.4,1c1.9,0,3.2,2,5.3,1.2L131.9,68.4
		L131.9,68.4z M107.2,61.2c-1.4-0.9-3.1,0-4.3,0.4c-0.1-1.2-0.7-2.3-1.6-3c-0.1-0.1-0.2-0.1-0.3-0.2c-0.1,0-0.2,0-0.2,0.1
		c0.5,2.8-1.4,4.8-2.7,6.9c0.5,0.3,1.1,0.4,1.6,0.2c1.4-0.6,2.7-1.5,4.3-1.2c0.6-0.8,1.2-1.6,2-2.3
		C106.4,61.9,107,61.7,107.2,61.2L107.2,61.2z M111.4,63c0,0.2,0,0.5,0.3,0.4c0.4-0.6,1.1-0.1,1.6-0.1v-0.2
		c-0.3-0.4-0.8-0.6-1.2-0.5c-0.1,0-0.2,0-0.3,0C111.4,62.6,111.3,62.8,111.4,63C111.4,62.9,111.4,62.9,111.4,63L111.4,63z
			M117.9,61.3c-0.4-0.7-1.2-1.2-2-1.3c-0.4-0.1-0.8-0.1-1.1-0.1h-0.2c-1-0.1-2,0.4-2.7,1.2c-0.1,0.2-0.5,0.6-0.1,0.8
		c0.8,0,1.8-0.2,2.3,0.5c0,0.6,0.4,1.5-0.3,1.7c-0.6-0.5-1.2,0.2-1.8-0.2c-0.3-0.2-0.5,0-0.6,0.3c-0.1,1.7,0.7,3.4,2.2,4.3
		c0.6,0.3,1.4,0.3,2.1,0.1c1.4-0.8,2.3-2.3,2.5-3.9c0-0.3,0-0.8-0.4-0.9c-0.5,0.2-1.1,0.2-1.6,0c-0.3,0.1-0.3,0.5-0.6,0.6
		l-0.2-0.2c-0.2-0.7-0.3-1.7,0.4-2.2c0.7-0.3,1.6-0.4,2.4-0.2C118.1,61.7,117.9,61.6,117.9,61.3L117.9,61.3z M117,62.6h-0.2
		c-0.3,0.2-1.1,0.1-0.8,0.7c0.5-0.4,1.2-0.1,1.7,0.1c0.2-0.1,0.1-0.3,0.2-0.4C117.8,62.6,117.4,62.6,117,62.6z M122.7,57
		c-0.9,0.1-1.8,0.4-2.7,0.8c-0.1-0.8,0.5-1.5,0.6-2.3c-1.3,0.2-2.6,0.8-3.7,1.6c-0.3-0.7-0.6-1.3-0.8-2l1.6-1.4v-0.2l-2.1-0.1
		c-0.3-0.7-0.6-1.4-0.9-2c-0.3,0.7-0.6,1.4-0.9,2l-2.1,0.1v0.2l1.6,1.4c-0.1,0.8-0.4,1.5-0.9,2.1c-0.9-0.6-1.9-1.1-2.9-1.6
		c-0.2-0.1-0.6-0.2-0.8,0c0.4,0.7,0.7,1.5,0.7,2.3c-0.4-0.1-0.8-0.4-1.2-0.5c-0.5-0.2-1-0.3-1.5-0.2c0.8,1,1.4,2.3,1.6,3.6
		c2.7-1.4,5.8-1.9,8.9-1.4c1.4,0.3,2.8,0.8,4.1,1.3C121.2,59.3,122.1,58.1,122.7,57L122.7,57z M127.1,64.6
		c1.3,0.3,2.7,1.8,4.1,0.8c-1.2-2-3.1-3.9-2.5-6.6c0-0.2,0-0.3-0.2-0.4l0,0c-0.8,0.4-1.4,1.1-1.7,1.9c-0.1,0.5-0.2,0.9-0.4,1.4
		c-0.9-0.6-2-0.9-3.1-0.9c-0.4,0.1-1,0.1-1.1,0.5c1.3,0.8,2.4,1.8,3.2,3.1C125.9,64.5,126.5,64.5,127.1,64.6L127.1,64.6z
			M113.1,66.4v0.2c0.5,0.3,0.7,0.9,1.4,0.9c0.7,0,1.1-0.6,1.4-1C115.1,66.4,114.1,66.6,113.1,66.4L113.1,66.4z M113.8,65.4
		c0,0.1-0.1,0.3,0.1,0.3c0.4-0.1,1.2,0.2,1.4-0.3c-0.2-0.2-0.4-0.3-0.7-0.3C114.4,65.2,114.1,65.2,113.8,65.4L113.8,65.4z"/>
<path class="st3" d="M113.2,64.9h2.8v1.2h-2.8V64.9z"/>
<path class="st2" d="M113.7,65.5c0.4,0.1,0.5,0.2,0.8,0.3s0.3-0.1,0.8-0.3c0,0,0.1-0.1,0-0.1l0,0
		c-0.3-0.3-0.6-0.1-0.8-0.1s-0.5-0.2-0.8,0.1C113.7,65.4,113.6,65.5,113.7,65.5L113.7,65.5z"/>
	<path class="st2" d="M127.3,84.9v-1.7h-0.6v-0.3h1.6v0.3h-0.6v1.7H127.3z"/>
	<path class="st2" d="M128.6,84.9v-2h0.6l0.4,1.4l0.4-1.4h0.6v2h-0.4v-1.6l-0.4,1.6h-0.4l-0.4-1.6v1.6H128.6z"/>

	<path class="st4" d="M205.2,69.6c0,3.1-1.6,4.7-4.7,4.7s-4.7-1.7-4.7-4.7v-5.4h3.4v5.3c0,1.5,0.4,2.1,1.3,2.1
		c0.9,0,1.4-0.6,1.4-2.3v-5.1h3.4v5.4H205.2z"/>
	<polygon class="st4" points="156.5,66.7 156.4,74.1 153,74.1 153,66.7 150.1,66.7 150.1,64.2 159.3,64.2 159.3,66.7 	"/>
	<path class="st4" d="M165.1,66.4l-0.9,3.4h1.7L165.1,66.4z M167.3,74.1l-0.6-1.8h-3.2l-0.6,1.8h-3.4l3.4-10h4.3l3.4,10H167.3z"/>
	<path class="st4" d="M216.2,73.3l-1-2.6c-0.6,0.6-1.4,0.9-2.2,0.9c-1.3,0-2.3-1.1-2.3-2.4v-0.1c0-1.4,0.8-2.6,2.2-2.6
		c0.8,0.1,1.6,0.4,2.2,1l1-2.5c-1.2-0.6-2.5-1-3.8-1c-2.8,0-5.1,2.3-5.1,5.2c0,2.8,2.3,5.1,5.2,5.1C213.7,74.4,215,74,216.2,73.3"/>
	<polygon class="st4" points="223.9,74.1 221.7,70.5 221.7,74.1 218.4,74.1 218.4,64.2 221.7,64.2 221.7,67.8 223.8,64.2 
		227.5,64.2 224.4,69.1 227.9,74.1 	"/>
	<path class="st4" d="M144.4,74.3c2.1,0,4.4-0.8,4.4-3.3c0-2.3-1.9-2.9-3.3-3.2c-1.1-0.2-1.6-0.4-1.6-0.8s0.7-0.7,1.1-0.7
		c1,0,1.9,0.4,2.7,0.9l0.9-2.3c-1.2-0.6-2.5-0.9-3.9-0.9c-2.2,0-4,1.1-4,3.4c0,1.9,1.3,2.6,2.8,3c1,0.3,1.7,0.3,1.7,0.9
		s-0.5,0.7-1,0.7c-1,0-2-0.4-2.8-1.1l-1.1,2.2C141.5,73.9,142.9,74.3,144.4,74.3"/>
	<path class="st4" d="M232.9,74.3c2.1,0,4.4-0.8,4.4-3.3c0-2.3-1.9-2.9-3.3-3.2c-1.1-0.2-1.6-0.4-1.6-0.8c0-0.6,0.7-0.7,1.1-0.7
		c1,0,1.9,0.4,2.7,0.9l0.9-2.3c-1.2-0.6-2.5-0.9-3.9-0.9c-2.2,0-4,1.1-4,3.4c0,1.9,1.3,2.6,2.8,3c1,0.3,1.7,0.3,1.7,0.9
		s-0.5,0.7-1,0.7c-1,0-2-0.4-2.8-1.1l-1.1,2.2C230.1,73.9,231.5,74.3,232.9,74.3"/>
	<path class="st4" d="M179.8,70.4c1.1-0.5,1.8-1.6,1.8-2.8c0-2.3-1.5-3.4-3.7-3.4h-5.1v10h3.3v-3h0.8l1.7,2.9h3.6L179.8,70.4z
		 M178.2,67.6c0,0.6-0.4,1-1,1H176v-2h1.2c0.5,0,1,0.3,1,0.9C178.2,67.4,178.2,67.5,178.2,67.6L178.2,67.6z"/>
	<path class="st4" d="M191.4,69c1.1-0.1,1.9-1.1,1.9-2.2c0-1.7-1.2-2.7-3.3-2.7h-5.4v10.1h5.2c2.5,0,3.8-0.9,3.8-2.8
		c0.1-1.2-0.8-2.2-2-2.3C191.5,69,191.5,69,191.4,69 M187.8,66.3h1.2c0.6,0,1,0.3,1,0.9l0,0c0,0.6-0.4,0.9-1.1,0.9h-1.2L187.8,66.3z
		 M190.1,71c0,0.6-0.4,0.9-1.1,0.9h-1.2v-1.8h1.2C189.6,70.1,190.1,70.4,190.1,71L190.1,71z"/>
	<path class="st4" d="M239.8,64.7h-0.7V67h-0.4v-2.3H238v-0.4h1.8L239.8,64.7z M240.6,67h-0.4v-2.7h0.6l0.7,2l0.7-2h0.6V67h-0.4
		v-2.2l0,0l-0.8,2.2h-0.2l-0.8-2.2l0,0V67z"/>
</svg>
