<svg xmlns="http://www.w3.org/2000/svg" viewBox="0 0 340 135"><defs><style>.cls-2{fill:#010202}</style></defs><path d="M0 0h340v135H0z" fill="#fafafa"/><path class="cls-2" d="M125.39 75a8.83 8.83 0 0 0 1.77 2.9 7.69 7.69 0 0 0 2.68 1.84 8.65 8.65 0 0 0 3.37.64A8.21 8.21 0 0 0 141 75a10.28 10.28 0 0 0 .64-3.73V50h5.16v34.41h-5.11v-3.2a11.9 11.9 0 0 1-4.03 2.79 13 13 0 0 1-5 1 13.62 13.62 0 0 1-5.14-1 12 12 0 0 1-4.13-2.73 12.83 12.83 0 0 1-2.75-4.25 14.6 14.6 0 0 1-1-5.53V50h5.16v21.24a10.52 10.52 0 0 0 .59 3.76zM155.72 50v12.54a13.06 13.06 0 0 1 4-2.73 12 12 0 0 1 4.92-1 13 13 0 0 1 5.16 1 13 13 0 0 1 7 7 12.82 12.82 0 0 1 1 5.11 12.62 12.62 0 0 1-1 5.09 13 13 0 0 1-7 7 13 13 0 0 1-5.16 1 12.12 12.12 0 0 1-4.94-1 13 13 0 0 1-4-2.73v3.15h-4.91V50zm.57 25.32a8.57 8.57 0 0 0 1.84 2.75 8.87 8.87 0 0 0 2.75 1.87 8.35 8.35 0 0 0 3.39.69 8.27 8.27 0 0 0 3.35-.69 8.63 8.63 0 0 0 2.72-1.87 9.3 9.3 0 0 0 1.85-2.75 8.37 8.37 0 0 0 .69-3.4 8.48 8.48 0 0 0-.69-3.41 9.07 9.07 0 0 0-1.85-2.78 8.23 8.23 0 0 0-2.72-1.84 8.65 8.65 0 0 0-9.44 1.84 8.78 8.78 0 0 0-1.87 2.78 8.87 8.87 0 0 0 0 6.81zM180.59 66.86a13.36 13.36 0 0 1 2.71-4.15 12.39 12.39 0 0 1 4.08-2.83 12.54 12.54 0 0 1 5.11-1 12.75 12.75 0 0 1 5 1 12.11 12.11 0 0 1 4 2.73 12.45 12.45 0 0 1 2.6 4.13 14.16 14.16 0 0 1 .93 5.19v1.57h-20.4a8.42 8.42 0 0 0 5.38 6.58 8.16 8.16 0 0 0 3 .55 8.61 8.61 0 0 0 7.23-3.69l3.59 2.65a13.47 13.47 0 0 1-4.62 3.94 13.29 13.29 0 0 1-6.2 1.42 13.9 13.9 0 0 1-5.23-1 12.88 12.88 0 0 1-8.09-12.09 13 13 0 0 1 .91-5zm6.91-1.94a8.39 8.39 0 0 0-2.78 4.64H200a8.16 8.16 0 0 0-2.73-4.64 7.71 7.71 0 0 0-9.78 0zM214.31 65.48a6.71 6.71 0 0 0-1.57 4.67v14.26h-5V59.34h4.91v3.1a7 7 0 0 1 2.48-2.44 6.87 6.87 0 0 1 3.56-.89h1.72v4.62h-2.06a5.26 5.26 0 0 0-4.04 1.75z"/></svg>