<svg xmlns="http://www.w3.org/2000/svg" xmlns:xlink="http://www.w3.org/1999/xlink" viewBox="0 0 555 509"><defs><style>.cls-1{fill:none;}.cls-2{fill:url(#linear-gradient);}.cls-22,.cls-28,.cls-3,.cls-31,.cls-45,.cls-47,.cls-50,.cls-51,.cls-58{opacity:0.5;}.cls-3{fill:url(#linear-gradient-2);}.cls-4{fill:#6264bf;}.cls-17,.cls-5{fill:#eae8f5;}.cls-6{fill:#efedfa;}.cls-7{fill:#b1a8e7;}.cls-8{fill:#181818;}.cls-9{fill:url(#radial-gradient);}.cls-10{fill:#5440cc;opacity:0.6;}.cls-11{fill:#1effbc;}.cls-12,.cls-18{fill:#c2bce2;}.cls-13{fill:url(#linear-gradient-3);}.cls-14{fill:#200c96;}.cls-15{fill:url(#linear-gradient-4);}.cls-16,.cls-19,.cls-23,.cls-26,.cls-28,.cls-46{fill:#fff;}.cls-16{fill-opacity:0.5;}.cls-16,.cls-17,.cls-18,.cls-19,.cls-21,.cls-24,.cls-25,.cls-26,.cls-27,.cls-29,.cls-30,.cls-53,.cls-54{fill-rule:evenodd;}.cls-20{opacity:0.3;}.cls-21{fill:#24e1c8;fill-opacity:0.9;}.cls-24{fill:url(#linear-gradient-5);}.cls-25{fill:#60e1e0;}.cls-25,.cls-26{fill-opacity:0.75;}.cls-27{fill:url(#linear-gradient-6);}.cls-29{fill:url(#linear-gradient-7);}.cls-30{fill:url(#linear-gradient-8);}.cls-31{fill:url(#linear-gradient-9);}.cls-32{fill:#d0caf1;}.cls-33{fill:#ffcea9;}.cls-34{fill:#ededed;}.cls-35{fill:#2b2a30;}.cls-36{fill:#747474;}.cls-37{fill:#d3d3d3;}.cls-38{fill:#f4f4f4;}.cls-39{fill:#2c2c2c;}.cls-40{fill:#b1b4c4;}.cls-41{fill:#616e84;}.cls-42{fill:#757b89;}.cls-43{fill:#20232d;}.cls-44{fill:#2b303f;}.cls-45,.cls-46{isolation:isolate;}.cls-45{fill:url(#linear-gradient-10);}.cls-46{opacity:0.1;}.cls-47{fill:url(#linear-gradient-11);}.cls-48{fill:#6600d0;}.cls-49{fill:#616161;}.cls-50{fill:url(#linear-gradient-12);}.cls-51{fill:url(#linear-gradient-13);}.cls-52{clip-path:url(#clip-path);}.cls-53,.cls-57{fill:#2d3047;}.cls-54,.cls-55{fill:#ffc810;}.cls-56{fill:url(#linear-gradient-14);}.cls-58{fill:url(#linear-gradient-15);}.cls-59{fill:url(#linear-gradient-16);}.cls-60{fill:url(#linear-gradient-17);}.cls-61{fill:url(#linear-gradient-18);}.cls-62{fill:#fff000;}.cls-63{fill:#ff8500;}.cls-64{fill:#ffc000;}</style><linearGradient id="linear-gradient" x1="281.11" y1="571.06" x2="274.42" y2="75.2" gradientUnits="userSpaceOnUse"><stop offset="0" stop-color="#090c9b"/><stop offset="1" stop-color="#050647"/></linearGradient><linearGradient id="linear-gradient-2" x1="364.49" y1="355.09" x2="397.23" y2="313.56" gradientUnits="userSpaceOnUse"><stop offset="0" stop-color="#9285de" stop-opacity="0.7"/><stop offset="1" stop-color="#9285de" stop-opacity="0"/></linearGradient><radialGradient id="radial-gradient" cx="301.61" cy="185.6" r="124.33" gradientTransform="translate(0 -46.4) scale(1 1.25)" gradientUnits="userSpaceOnUse"><stop offset="0" stop-color="#6264bf"/><stop offset="1" stop-color="#090c9b"/></radialGradient><linearGradient id="linear-gradient-3" x1="313.79" y1="371.73" x2="255.77" y2="46.02" gradientUnits="userSpaceOnUse"><stop offset="0" stop-color="#60e1e0"/><stop offset="1" stop-color="#60e1e0" stop-opacity="0"/></linearGradient><linearGradient id="linear-gradient-4" x1="240.06" y1="37.39" x2="318.89" y2="360.36" gradientUnits="userSpaceOnUse"><stop offset="0" stop-color="#60e1e0" stop-opacity="0"/><stop offset="0.14" stop-color="#60e1e0" stop-opacity="0.17"/><stop offset="0.34" stop-color="#60e1e0" stop-opacity="0.37"/><stop offset="0.54" stop-color="#60e1e0" stop-opacity="0.54"/><stop offset="0.72" stop-color="#60e1e0" stop-opacity="0.65"/><stop offset="0.88" stop-color="#60e1e0" stop-opacity="0.73"/><stop offset="1" stop-color="#60e1e0" stop-opacity="0.75"/></linearGradient><linearGradient id="linear-gradient-5" x1="-199.32" y1="685.8" x2="-197.37" y2="685.8" gradientTransform="translate(-81395.51 15404.65) rotate(-116.73) scale(116.38)" gradientUnits="userSpaceOnUse"><stop offset="0" stop-color="#090c9b" stop-opacity="0.35"/><stop offset="1" stop-color="#090c9b" stop-opacity="0"/></linearGradient><linearGradient id="linear-gradient-6" x1="-200.09" y1="684.14" x2="-198.15" y2="684.14" gradientTransform="translate(-59284.24 7677.18) rotate(-113.43) scale(84.24)" gradientUnits="userSpaceOnUse"><stop offset="0" stop-color="#60e1e0" stop-opacity="0.75"/><stop offset="1" stop-color="#60e1e0" stop-opacity="0"/></linearGradient><linearGradient id="linear-gradient-7" x1="-200.22" y1="685.34" x2="-198.28" y2="685.34" xlink:href="#linear-gradient-5"/><linearGradient id="linear-gradient-8" x1="-201.37" y1="683.59" x2="-199.43" y2="683.59" xlink:href="#linear-gradient-6"/><linearGradient id="linear-gradient-9" x1="156.04" y1="440.28" x2="156.04" y2="413.45" gradientUnits="userSpaceOnUse"><stop offset="0" stop-color="#9285de" stop-opacity="0"/><stop offset="1" stop-color="#9285de"/></linearGradient><linearGradient id="linear-gradient-10" x1="-2150.78" y1="-2497.9" x2="-2150.78" y2="-2478.68" gradientTransform="matrix(0.87, 0.5, 1, -0.58, 4523.61, -121.87)" gradientUnits="userSpaceOnUse"><stop offset="0.21" stop-color="#fff" stop-opacity="0"/><stop offset="1" stop-color="#fff" stop-opacity="0.2"/></linearGradient><linearGradient id="linear-gradient-11" x1="448.31" y1="227.63" x2="459.55" y2="218.69" gradientUnits="userSpaceOnUse"><stop offset="0.14" stop-color="#9285de"/><stop offset="1" stop-color="#9285de" stop-opacity="0"/></linearGradient><linearGradient id="linear-gradient-12" x1="260.2" y1="499.09" x2="260.2" y2="483.06" xlink:href="#linear-gradient-9"/><linearGradient id="linear-gradient-13" x1="376.88" y1="466.63" x2="376.88" y2="447.77" xlink:href="#linear-gradient-9"/><clipPath id="clip-path"><polygon class="cls-1" points="375.02 421.37 395.32 408.45 415.02 443.5 394.71 456.43 375.02 421.37"/></clipPath><linearGradient id="linear-gradient-14" x1="415.9" y1="88.44" x2="438.81" y2="90.46" gradientUnits="userSpaceOnUse"><stop offset="0" stop-color="#9285de" stop-opacity="0.6"/><stop offset="1" stop-color="#9285de" stop-opacity="0"/></linearGradient><linearGradient id="linear-gradient-15" x1="288.07" y1="381.25" x2="308.27" y2="366.11" gradientUnits="userSpaceOnUse"><stop offset="0" stop-color="#9285de"/><stop offset="1" stop-color="#9285de" stop-opacity="0"/></linearGradient><linearGradient id="linear-gradient-16" x1="226.92" y1="-59.4" x2="246.2" y2="-59.4" gradientTransform="matrix(0.91, 0.52, 0, -1.1, 37.58, 172.17)" gradientUnits="userSpaceOnUse"><stop offset="0.5" stop-color="#fff000"/><stop offset="1" stop-color="#ffc810"/></linearGradient><linearGradient id="linear-gradient-17" x1="260.86" y1="-63.17" x2="260.86" y2="-49.35" xlink:href="#linear-gradient-16"/><linearGradient id="linear-gradient-18" x1="249.67" y1="-75.56" x2="249.67" y2="-51.82" xlink:href="#linear-gradient-16"/></defs><title>pwa-illustration</title><g id="Layer_18" data-name="Layer 18"><path class="cls-2" d="M5,244.31,356.81,40.89c6.29-3.64,11-3.62,17.19.11L474.51,99.33a10,10,0,0,1-.08,17.21L405,157.22a10,10,0,0,0,.13,17.33L550,256.49a10,10,0,0,1,.17,17.31l-95.19,56.35a10,10,0,0,0,.21,17.33l44.57,25a10,10,0,0,1,.15,17.37L300,506.19a20,20,0,0,1-20,.06L5,348.58a10,10,0,0,1-.09-17.3l45.26-26.56a10,10,0,0,0-.09-17.3l-45-25.78A10,10,0,0,1,5,244.31Z"/><polyline class="cls-3" points="363.22 364.01 427 330 370.24 293.59 363.22 364.01"/></g><g id="Layer_17" data-name="Layer 17"><path class="cls-4" d="M477,114.26a10,10,0,0,0-2.6-14.93L373.87,41c-6.23-3.72-10.9-3.74-17.18-.11L4.91,244.31a10,10,0,0,0,0,17.33l45,25.79a10,10,0,0,1,.09,17.3L4.74,331.28A9.84,9.84,0,0,0,2,346l69.85-41.68A10,10,0,0,0,72,287.06L22,257.2a5,5,0,0,1,.07-8.63L359.75,53.68a10,10,0,0,1,9.92,0Z"/></g><g id="Layer_19" data-name="Layer 19"><path class="cls-4" d="M550.15,273.77a10,10,0,0,0-.17-17.31L405.13,174.52c-6.71-3.8-8.73,9.47-8.73,9.47Z"/></g><g id="phone"><polygon class="cls-5" points="252.18 5.06 246.52 7.9 252 13 252.18 5.06"/><path class="cls-6" d="M355.77,362.22l-94.36-54.48c-8-4.61-14.47-17-14.47-27.65V16.9C247,6.22,253.42,1.34,261.41,6l94.36,54.47c8,4.62,14.47,17,14.47,27.65v263.2C370.24,361.94,363.76,366.83,355.77,362.22Z"/><polygon class="cls-5" points="357.32 366.93 364.83 363.21 357.75 350.87 357.32 366.93"/><path class="cls-7" d="M349.75,365.22,255.4,310.74c-8-4.61-14.47-17-14.47-27.65V19.91C241,9.22,247.41,4.35,255.4,9l94.35,54.48c8,4.62,14.48,17,14.48,27.65v263.2C364.23,364.94,357.75,369.84,349.75,365.22Z"/><path class="cls-8" d="M363.22,91.76V355c0,10.67-6.47,15.56-14.47,10.95l-37-21.36-11.51-6.65-45.85-26.47c-8-4.62-14.46-17-14.46-27.65V20.58C240,9.91,246.4,5,254.39,9.63l94.36,54.48C356.75,68.73,363.22,81.1,363.22,91.76Z"/><path class="cls-9" d="M356.41,89.09V345.43c0,6.46-4.53,9.08-10.11,5.84l-5-2.9-17.14-9.89-7.37-4.26-2.6-1.51-.87-.51L307,328.55l-18.45-10.64h0l-7.6-4.39h0l-3.08-1.78-18.4-10.62-2.51-1.45c-5.6-3.23-10.12-11.08-10.12-17.55V25.76c0-6.46,4.52-9.08,10.12-5.85l89.38,51.68C351.88,74.78,356.41,82.63,356.41,89.09Z"/><path class="cls-7" d="M367.05,126.39h0c-.77.45-1.39,0-1.39-1V114.12a3.32,3.32,0,0,1,1.39-2.66h0c.77-.45,1.39,0,1.39,1.05v11.22A3.3,3.3,0,0,1,367.05,126.39Z"/><path class="cls-7" d="M367.05,144.78h0c-.77.44-1.39,0-1.39-1.05V132.5a3.36,3.36,0,0,1,1.39-2.66h0c.77-.44,1.39,0,1.39,1.06v11.22A3.3,3.3,0,0,1,367.05,144.78Z"/><path class="cls-10" d="M349.5,95.2v269c0,6.78-4.75,9.52-10.61,6.12l-5.24-3-18-10.38-7.73-4.47-2.73-1.58-.91-.53-6.67-3.83-19.35-11.17h0l-8-4.61h0l-3.23-1.86-19.31-11.15-2.63-1.52c-5.88-3.39-10.62-11.62-10.62-18.41v-269c0-6.78,4.74-9.53,10.62-6.14L338.9,76.83C344.75,80.18,349.5,88.42,349.5,95.2Z"/></g><g id="Layer_8" data-name="Layer 8"><polygon class="cls-11" points="336.62 383.77 339.56 382.15 337 381 336.62 383.77"/><polygon class="cls-12" points="227.72 23.99 224.65 25.96 228 27 227.72 23.99"/><path class="cls-12" d="M342.74,99.11v276c0,6.95-4.88,9.77-10.88,6.28l-5.39-3.12L308,367.61,300.08,363l-2.79-1.63-.94-.55-6.84-3.93-19.86-11.45h0l-8.18-4.73h0l-3.32-1.92-19.81-11.43-2.7-1.56c-6-3.48-10.9-11.93-10.9-18.9v-276c0-7,4.87-9.78,10.9-6.3l96.23,55.64C337.86,83.7,342.74,92.15,342.74,99.11Z"/><path class="cls-13" d="M342.74,99.11v276c0,6.95-4.88,9.77-10.88,6.28l-5.39-3.12L308,367.61,300.08,363l-2.79-1.63-.94-.55-6.84-3.93-19.86-11.45h0l-8.18-4.73h0l-3.32-1.92-19.81-11.43-2.7-1.56c-6-3.48-10.9-11.93-10.9-18.9v-276c0-3.73,1.39-6.26,3.61-7.29,1.93-.88,4.48-.63,7.29,1l96.23,55.64C337.86,83.7,342.74,92.15,342.74,99.11Z"/><path class="cls-14" d="M339.87,100.85V376.68c0,6.95-4.88,9.77-10.88,6.28l-5.38-3.12L305.17,369.2l-7.93-4.58-2.8-1.63-.94-.55-6.83-3.92-19.85-11.45h0l-8.18-4.73h0l-3.32-1.91L235.53,329l-2.71-1.56c-6-3.48-10.89-11.92-10.89-18.88V32.7c0-7,4.87-9.77,10.89-6.29L329,82C335,85.45,339.87,93.9,339.87,100.85Z"/><path class="cls-15" d="M339.87,100.85V376.68c0,6.95-4.88,9.77-10.88,6.28l-5.38-3.12L305.17,369.2l-7.93-4.58-2.8-1.63-.94-.55-6.83-3.92-19.85-11.45h0l-8.18-4.73h0l-3.32-1.91L235.53,329l-2.71-1.56c-6-3.48-10.89-11.92-10.89-18.88V32.7c0-7,4.87-9.77,10.89-6.29L329,82C335,85.45,339.87,93.9,339.87,100.85Z"/><path class="cls-16" d="M264.19,330.54c0-1.12.68-1.64,1.52-1.15L294.41,346a3.65,3.65,0,0,1,1.53,2.91c0,1.13-.69,1.65-1.53,1.16l-28.7-16.57a3.68,3.68,0,0,1-1.52-2.92Z"/><path class="cls-17" d="M281.92,65.18v-.67a4.15,4.15,0,0,0-1.86-3.22c-1-.59-1.86-.11-1.87,1.08V63l-.06,0c-.49-.29-.9-.06-.9.51v3.4a2,2,0,0,0,.9,1.56L282,70.69c.5.28.9,0,.9-.52v-3.4a2,2,0,0,0-.89-1.55l-.07,0ZM279,63.51v-.67c0-.66.47-.92,1-.59a2.28,2.28,0,0,1,1,1.79v.66L279,63.51Z"/><path class="cls-18" d="M317.32,86.75c0-.74.45-1.08,1-.76l7.6,4.39a2.42,2.42,0,0,1,1,1.92V95c0,.73-.45,1.07-1,.76l-7.6-4.4a2.42,2.42,0,0,1-1-1.92Z"/><path class="cls-18" d="M316.77,87.33c0-.24.15-.36.33-.25l2.35,1.36a.81.81,0,0,1,.33.63V90c0,.24-.15.35-.33.25l-2.35-1.37a.77.77,0,0,1-.33-.62Z"/><path class="cls-19" d="M317.86,87.36c0-.58.35-.84.78-.6l7,4a1.88,1.88,0,0,1,.78,1.49v2.08c0,.58-.35.84-.78.59l-7-4a1.88,1.88,0,0,1-.78-1.49Z"/><g class="cls-20"><path class="cls-19" d="M235.11,39l1.82,1v4.17l-1.82-1.05Zm2.63-.24,1.82,1v5.93l-1.82-1Zm-5.35.28,1.81,1v2.55l-1.81-1.05Zm7.77-.69,1.82,1v7.74l-1.82-1Z"/></g><path class="cls-21" d="M289.89,273.4c-7.7-4.44-13.95-.83-13.95,8.06s6.25,19.72,13.95,24.16,13.95.84,13.95-8.05S297.59,277.85,289.89,273.4Z"/><g class="cls-22"><path class="cls-23" d="M284.6,260.14l-44.89-25.91a42,42,0,0,0-1.87,11.88v28.07l20.57,11.88,3.75-21.59,3.74,25.92,20.53,11.88V274.18A65.18,65.18,0,0,0,284.6,260.14Z"/><polygon class="cls-23" points="284.6 251.5 239.71 225.59 239.71 232.07 284.6 257.99 284.6 251.5"/></g><path class="cls-24" d="M331.66,127.5c0-4.07-2.47-8.81-5.53-10.57L233.48,63.44c-3-1.76-5.53.11-5.53,4.18V143c0,4.07,2.48,8.81,5.53,10.57L326.13,207c3.06,1.77,5.53-.11,5.53-4.18Z"/><path class="cls-25" d="M318.13,135.32c0-4.07-2.48-8.81-5.54-10.57L220,71.26c-3.06-1.77-5.54.11-5.54,4.18v75.35c0,4.08,2.48,8.81,5.54,10.58l92.64,53.49c3.06,1.76,5.54-.11,5.54-4.19Z"/><path class="cls-26" d="M316.15,136.1c0-4.08-2.48-8.81-5.53-10.58L218,72c-3.05-1.76-5.53.11-5.53,4.19v75.35c0,4.07,2.48,8.81,5.53,10.57l92.65,53.5c3.05,1.76,5.53-.12,5.53-4.19V136.1Z"/><path class="cls-27" d="M316.15,136.1c0-4.08-2.48-8.81-5.53-10.58L218,72c-3.05-1.76-5.53.11-5.53,4.19v75.35c0,4.07,2.48,8.81,5.53,10.57l92.65,53.5c3.05,1.76,5.53-.12,5.53-4.19V136.1Z"/><path class="cls-28" d="M285.72,145,275,126.31a5,5,0,0,0-1.72-1.82h0l-.3-.14a2,2,0,0,0-.31-.2l-3-1.73c-.82-.48-1.58-.45-2,.1-.95,1.11-3.1,1-5.48-.37a13.56,13.56,0,0,1-5.48-6,5.15,5.15,0,0,0-2-2.45L251.65,112l-.3-.16a1.9,1.9,0,0,0-2-.36l-10.78,6.22c-1,.56-1,2.32,0,4l5.9,10.21a5,5,0,0,0,1.65,1.82,1.72,1.72,0,0,0,1.72.17l1.35-.79v25a5.39,5.39,0,0,0,2.48,4.16l21,12.21c1.34.77,2.42.14,2.42-1.4v-25l1.36,2.35a5,5,0,0,0,1.71,1.81h0a1.74,1.74,0,0,0,1.72.17l5.89-3.41C286.67,148.39,286.67,146.69,285.72,145Z"/><path class="cls-29" d="M331.66,245.37c0-4.07-2.47-8.81-5.53-10.57l-92.65-53.49c-3-1.76-5.53.11-5.53,4.18v75.36c0,4.07,2.48,8.81,5.53,10.57l92.65,53.49c3.06,1.77,5.53-.11,5.53-4.18Z"/><path class="cls-25" d="M318.13,253.19c0-4.07-2.48-8.81-5.54-10.57L220,189.13c-3.06-1.77-5.54.11-5.54,4.18v75.35c0,4.08,2.48,8.81,5.54,10.58l92.64,53.49c3.06,1.76,5.54-.11,5.54-4.19Z"/><path class="cls-26" d="M316.15,254c0-4.08-2.48-8.81-5.53-10.58L218,189.9c-3.05-1.76-5.53.11-5.53,4.19v75.35c0,4.07,2.48,8.81,5.53,10.58l92.65,53.49c3.05,1.76,5.53-.11,5.53-4.19V254Z"/><path class="cls-30" d="M316.15,254c0-4.08-2.48-8.81-5.53-10.58L218,189.9c-3.05-1.76-5.53.11-5.53,4.19v75.35c0,4.07,2.48,8.81,5.53,10.58l92.65,53.49c3.05,1.76,5.53-.11,5.53-4.19V254Z"/><g class="cls-22"><path class="cls-23" d="M282.84,256.42,238,230.5a42,42,0,0,0-1.87,11.88v28.08l20.57,11.88,3.75-21.59,3.74,25.91,20.53,11.89V270.46A65.18,65.18,0,0,0,282.84,256.42Z"/><polygon class="cls-23" points="282.84 247.78 237.95 221.86 237.95 228.34 282.84 254.26 282.84 247.78"/></g></g><g id="person"><polygon class="cls-31" points="164.9 413.45 164.9 440.28 147.18 430.12 164.9 413.45"/><polygon class="cls-12" points="164.9 413.45 164.31 405.65 158.95 411.34 164.9 413.45"/><polygon class="cls-32" points="54.9 403.43 55.6 412.03 61.21 407.72 54.9 403.43"/><path class="cls-32" d="M96.53,440.76a32.27,32.27,0,0,0,32.23,0l30.63-17.69a11,11,0,0,0,0-19.1L123.86,383.3a32.2,32.2,0,0,0-32.22,0L61,401a11,11,0,0,0,0,19.1Z"/><path class="cls-6" d="M95.94,433.39a32.25,32.25,0,0,0,32.22,0l30.63-17.69a11,11,0,0,0,0-19.1l-35.52-20.67a32.2,32.2,0,0,0-32.22,0L60.41,393.61a11,11,0,0,0,0,19.1Z"/><g id="Men_2" data-name="Men 2"><path id="_Контур_" data-name=" Контур " class="cls-33" d="M77.35,218.25c-.49,4.24-5.54,22.52-4.46,28.78s18.35,16.73,18.35,16.73L93.64,253l-9.57-9.36L86.66,226Z"/><path id="_Контур_2" data-name=" Контур 2" class="cls-34" d="M90.72,200.24a7.55,7.55,0,0,0-9.61,2.91c-2.54,4.2-5.18,18.64-5.42,21.1,0,0,3.57,4.93,8.91,4.1Z"/><path class="cls-35" d="M110.43,404a14.76,14.76,0,0,0,11.17-1.35c2.69.08,17.3-6.17,19.29-.92,1.74,4.6-4.58,8.86-8,9.68-7.38,1.79-12.84,5.47-15.8,6.09-2.21.47-5.07.77-6.83-1C108.18,414.48,108.36,406.78,110.43,404Z"/><path class="cls-36" d="M117.12,416.26c3-.63,8.42-4.31,15.8-6.1,2.84-.68,7.72-3.78,8.21-7.48.66,4.24-5,8-8.21,8.76-7.38,1.79-12.84,5.47-15.8,6.09-2.21.47-5.07.77-6.83-1a4.45,4.45,0,0,1-1-1.77C111.89,417,114.91,416.72,117.12,416.26Z"/><path class="cls-35" d="M86.72,393.39A14.76,14.76,0,0,0,97.89,392c2.69.08,17.3-6.18,19.29-.92,1.74,4.6-4.58,8.86-8,9.68-7.38,1.79-12.84,5.47-15.8,6.09-2.21.47-5.07.77-6.83-1C84.48,403.84,84.66,396.13,86.72,393.39Z"/><path class="cls-36" d="M93.42,405.61c3-.62,8.42-4.3,15.8-6.09,2.84-.68,7.72-3.79,8.21-7.48.66,4.24-5.05,8-8.21,8.76-7.38,1.79-12.84,5.47-15.8,6.09-2.21.47-5.07.77-6.83-1a4.3,4.3,0,0,1-1-1.76C88.19,406.3,91.21,406.08,93.42,405.61Z"/><path id="_Контур_3" data-name=" Контур 3" class="cls-37" d="M86.44,353.69a89.11,89.11,0,0,1,3.37-16s-1-13.81-1.51-26.9c-.58-14.83-5.73-28-1.66-39.83l45.85,10.2s-2.77,59.26-3.39,66.43a133.12,133.12,0,0,1-2,16.64c-2.1,11.5-5.5,38.86-5.5,38.86-4.85,2.81-11.21,1.25-11.21,1.25s.35-34.59.66-42.88c.38-10.12.69-9.35.69-9.35L110.18,327l-1-12.54s-1.27,9.2-2.09,17.42c-.72,7.17-2.45,13.65-4.39,27-1.67,11.57-4.39,34.83-4.39,34.83-4.85,2.82-11.43.48-11.43.48S85.12,363.73,86.44,353.69Z"/><path id="_Контур_4" data-name=" Контур 4" class="cls-33" d="M93.13,200.49c3.49.17,6.09,1.07,6.53,0a45.46,45.46,0,0,0,.8-5.46c-.41-1-.75-2.1-.75-2.1-4.39-2.7-5.77-7.44-6.35-13-1-9.43,4.11-17.68,13.55-18.67,8.86-.92,15.39,5.31,17.13,13.86.94,4.23,2.8,12.21.28,19.16-1.41,3.89-3.23,7-5,7.57a42,42,0,0,1-5.24-.46h0s-.47,2.62-.79,4.3-.2,2.57,3.15,4.63-5.06,6.3-10.56,5.89-11.68-3.74-13.37-7.29C90.57,205,90.72,200.38,93.13,200.49Z"/><path id="_Контур_5" data-name=" Контур 5" class="cls-38" d="M98.18,201c-1,2.41,1.49,5.36,8,7.42s7.15-.59,7.15-.59,9.62,4.38,12.75,6.57c3.93,2.75,5.68,10.71,6.21,24.15.61,15.56.67,38.64.15,42.62,0,0-7.36,7.33-16.77,6.56s-25.25-9.11-29.1-15.54c.11-13.64,1.71-15.86-.5-23.72-5.06-18-7.72-25.35-5.26-37.3,2-9.85,4.86-11.08,8.75-11A80.08,80.08,0,0,1,98.18,201Z"/><path id="_Контур_6" data-name=" Контур 6" class="cls-33" d="M147.14,251.43c-7.73,1.94-9.54-2.93-10.56-7-2.46-9.77-3.78-18.59-5.61-24.13-2.16-6.54-4.42-7.58-7.6-8.85-3.73-1.5-6.94,1.65-5.69,10,1.46,9.85,3.39,16.76,7.07,28.4,1,3,3.12,8.45,6.35,11.06,4,3.22,10,3.08,19.07.83,3.87-1,8.12-3.28,15.45-6.7,2-.92,3.5-1.53,7.27-3.29s7.7-4.69,9.68-7.56,1.64-4.68,1.23-5.33c-.51-.82-.79-.17-1.85,1a20.79,20.79,0,0,1-5.56,5.14s2.44-2.52,3.77-4.16a20.84,20.84,0,0,0,2.92-4.77c.7-1.67-.74-3.94-1.84-2.75s-1.61,2.4-3.61,4.8a20.29,20.29,0,0,1-3.58,3.41,38.73,38.73,0,0,0,3.3-5.3c1.27-2.59-3-1.24-5.39,1.28-1.77,1.83-3.27,2.89-3.31,2.38s-3.49,3.19-5.24,5C161.51,247,154.48,249.58,147.14,251.43Z"/><path id="_Контур_7" data-name=" Контур 7" class="cls-34" d="M120.51,210.15c5.16-.76,8.81,1.56,11.08,9.38s3.88,14.23,3.88,14.23a14,14,0,0,1-8.65,5.74c-6.17,1.5-8.39-1.45-8.39-1.45s-1.71-8.19-2.78-13.77S114.13,211.1,120.51,210.15Z"/><path class="cls-39" d="M123.72,174s8.15-12.4-9.51-14.92c-12.74-1.82-20.92,6.36-21.87,15.24-.9,8.49,4.32,17.3,8.1,20.79,1.84.66,5.8,1,11-1.33a59.72,59.72,0,0,0,.25-7S105.5,173.73,123.72,174Z"/></g><g id="Mobile"><path class="cls-6" d="M169,248.21l-7.49-4.33c-.63-.36-.55-1,.18-1.42L179.72,232a2.76,2.76,0,0,1,2.47-.1l7.49,4.32c.63.37.55,1-.18,1.43L171.41,248.1A2.73,2.73,0,0,1,169,248.21Z"/><polygon class="cls-40" points="161.06 243.26 161.06 242.57 161.87 242.87 161.06 243.26"/><polygon class="cls-40" points="190.14 236.83 190.14 236.17 189.5 236.58 190.14 236.83"/><path class="cls-41" d="M169,247.62l-7.49-4.32c-.63-.37-.55-1,.18-1.43l18.05-10.44a2.76,2.76,0,0,1,2.47-.1l7.49,4.32c.63.37.55,1-.18,1.43l-18.09,10.44A2.73,2.73,0,0,1,169,247.62Z"/><ellipse class="cls-42" cx="162.71" cy="245.31" rx="0.08" ry="0.14" transform="translate(-100.6 113.7) rotate(-29.89)"/><ellipse class="cls-42" cx="162.69" cy="244.27" rx="0.08" ry="0.14" transform="translate(-100.34 114.07) rotate(-30)"/><ellipse class="cls-42" cx="163.04" cy="244.49" rx="0.08" ry="0.14" transform="translate(-100.4 114.28) rotate(-30)"/><ellipse class="cls-42" cx="163.41" cy="244.7" rx="0.08" ry="0.14" transform="translate(-100.46 114.49) rotate(-30)"/><ellipse class="cls-42" cx="166.5" cy="246.48" rx="0.08" ry="0.14" transform="translate(-100.93 116.27) rotate(-30)"/><ellipse class="cls-42" cx="166.85" cy="246.69" rx="0.08" ry="0.14" transform="translate(-100.99 116.48) rotate(-30)"/><ellipse class="cls-42" cx="167.22" cy="246.9" rx="0.08" ry="0.14" transform="translate(-101.05 116.69) rotate(-30)"/><ellipse class="cls-42" cx="167.98" cy="248.36" rx="0.08" ry="0.14" transform="translate(-101.42 116.73) rotate(-29.89)"/><path class="cls-42" d="M165.45,246l-1-.57a.3.3,0,0,1-.11-.22h0c0-.08,0-.12.11-.08l1,.57a.26.26,0,0,1,.11.21h0C165.56,246,165.51,246.06,165.45,246Z"/><path class="cls-42" d="M187.88,238.47,187,239c-.06,0-.11,0-.11-.08h0a.31.31,0,0,1,.11-.2l.92-.53c.06,0,.1,0,.1.08h0A.2.2,0,0,1,187.88,238.47Z"/><path class="cls-42" d="M186.47,239.29l-.92.53c-.06,0-.11,0-.11-.08h0a.26.26,0,0,1,.11-.2l.92-.54c.06,0,.1,0,.1.08h0A.25.25,0,0,1,186.47,239.29Z"/><path class="cls-43" d="M169,247.52l-7.49-4.33c-.63-.36-.55-1,.18-1.42l18.05-10.45a2.76,2.76,0,0,1,2.47-.1l7.49,4.32c.63.37.55,1-.18,1.43l-18.09,10.44A2.73,2.73,0,0,1,169,247.52Z"/><path class="cls-44" d="M188.91,235.72,186,234h0a1.38,1.38,0,0,1-1.25,0,.37.37,0,0,1-.23-.48.37.37,0,0,1,.23-.24h0l-2.92-1.69a1.76,1.76,0,0,0-1.61,0l-17.62,10.17a.49.49,0,0,0,0,.93l7.1,4.09a1.76,1.76,0,0,0,1.61,0l17.61-10.17a.48.48,0,0,0,.33-.6A.5.5,0,0,0,188.91,235.72Z"/><path class="cls-45" d="M188.91,235.72,186,234h0a1.38,1.38,0,0,1-1.25,0,.37.37,0,0,1-.23-.48.37.37,0,0,1,.23-.24h0l-2.92-1.69a1.76,1.76,0,0,0-1.61,0l-17.62,10.17a.49.49,0,0,0,0,.93l7.1,4.09a1.76,1.76,0,0,0,1.61,0l17.61-10.17a.48.48,0,0,0,.33-.6A.5.5,0,0,0,188.91,235.72Z"/><ellipse class="cls-44" cx="185.17" cy="233.78" rx="0.34" ry="0.19"/><path class="cls-46" d="M185.07,233.84c-.06,0-.06-.08,0-.11a.18.18,0,0,1,.2,0,.06.06,0,0,1,0,.08l0,0A.23.23,0,0,1,185.07,233.84Z"/></g></g><g id="pwa"><polygon class="cls-47" points="448.17 231.04 462.53 222.6 453.42 217.28 448.17 231.04"/><polygon class="cls-12" points="446.54 232.02 450.75 229.5 444.57 224.07 446.54 232.02"/><polygon class="cls-32" points="396.77 143.67 400.64 141.24 401.2 146.25 396.77 143.67"/><path class="cls-32" d="M445.79,229.06l-40.26-23.21c-4.21-2.44-7.64-9-7.64-14.58v-43.8c0-5.62,3.43-8.2,7.64-5.77L445.79,165c4.22,2.43,7.63,9,7.63,14.58v43.76C453.42,228.91,450,231.55,445.79,229.06Z"/><path class="cls-6" d="M441.32,231.75l-40.26-23.22c-4.21-2.43-7.64-9-7.64-14.58V150.16c0-5.62,3.43-8.21,7.64-5.77l40.26,23.25c4.22,2.43,7.63,9,7.63,14.58V226C449,231.59,445.54,234.23,441.32,231.75Z"/><path class="cls-48" d="M428.25,203.2l6.82-16.52-4.53-2.59-4.66,10.53-3.33-15.11-3.48-2-3.56,11.16L413,181.23l-2.27,7.16,2.31,6.1,4.46,2.55,3.22-10,3.07,13.59Z"/><path class="cls-49" d="M403.48,182l2.78,1.6a8.41,8.41,0,0,0,2.25.94l.72-2.27,2-6.33a11.72,11.72,0,0,0-.52-1.14,11.41,11.41,0,0,0-4.53-4.66l-7-4v20.42l4.29,2.46Zm3.67-6.6a4.59,4.59,0,0,1,.61,2.31,2.08,2.08,0,0,1-.53,1.67c-.39.32-1.11.18-2.15-.42l-1.61-.92v-5.49l1.62.93a5.22,5.22,0,0,1,2.06,1.92Zm25.15,26.45,1.3-3.22,3.75,2.14-1.78-7,2.23-5.52,6.38,24.08-4.7-2.69-1.09-4.28Z"/></g><g id="no_connection" data-name="no connection"><polygon class="cls-50" points="269.76 468.44 269.76 500.39 250.65 489.44 269.76 468.44"/><polygon class="cls-32" points="216.64 506.31 212.43 503.79 218.6 498.36 216.64 506.31"/><polygon class="cls-12" points="266.41 417.96 262.53 415.53 261.98 420.54 266.41 417.96"/><path class="cls-32" d="M217.38,503.35l40.27-23.21c4.21-2.44,7.64-9,7.64-14.58v-43.8c0-5.62-3.43-8.2-7.64-5.77l-40.27,23.25c-4.21,2.43-7.62,9-7.62,14.58v43.76C209.76,503.2,213.17,505.84,217.38,503.35Z"/><path class="cls-6" d="M221.85,506l40.27-23.22c4.21-2.43,7.64-9,7.64-14.58V424.45c0-5.62-3.43-8.21-7.64-5.77l-40.27,23.25c-4.21,2.43-7.62,9-7.62,14.58v43.76C214.23,505.89,217.64,508.52,221.85,506Z"/><path class="cls-36" d="M240,476.28c0,2.08,1.39,3,3.11,2a7,7,0,0,0,3.12-5.55c0-2.09-1.39-3-3.11-2A7,7,0,0,0,240,476.28Zm-1.78-12.22a22.38,22.38,0,0,1,3.05-2.78l-5.3,9.43-1.75-1.11A29.28,29.28,0,0,1,238.26,464.06Zm10.25-5.63a6.42,6.42,0,0,1,3.7,1.09l-3.84,6.68a4.31,4.31,0,0,0-4.1-.23Zm6.36-11.32a10.23,10.23,0,0,1,3.32,1.39l-3.77,6.72A8,8,0,0,0,251,454Zm-19.94,9.16a35.18,35.18,0,0,1,8.24-6.7,21,21,0,0,1,6.07-2.41l-4.54,8.07c-.5.23-1,.5-1.54.79-4.22,2.42-8.2,6.67-11.2,12l-3.77-2.43A50.35,50.35,0,0,1,234.93,456.27Zm21.45-14.21-20.89,37.17-2.17-1.38,20.89-37.17Z"/></g><g id="fast"><polygon class="cls-51" points="368 436 367.93 466.63 385.84 456.2 368 436"/><polygon class="cls-32" points="421.05 473.77 425.25 471.24 419.08 465.81 421.05 473.77"/><polygon class="cls-12" points="371.28 385.41 375.15 382.98 375.71 387.99 371.28 385.41"/><path class="cls-32" d="M420.3,470.81,380,447.59c-4.21-2.43-7.64-9-7.64-14.58V389.22c0-5.62,3.43-8.21,7.64-5.78l40.26,23.25c4.22,2.44,7.63,9,7.63,14.58V465C427.93,470.65,424.52,473.29,420.3,470.81Z"/><path class="cls-6" d="M415.83,473.49l-40.26-23.21c-4.21-2.44-7.64-9-7.64-14.58V391.9c0-5.62,3.43-8.2,7.64-5.77l40.26,23.25c4.22,2.43,7.63,9,7.63,14.58v43.76C423.46,473.34,420.05,476,415.83,473.49Z"/><g class="cls-52"><path class="cls-53" d="M388.55,427.11c-1.21.44-2,1.89-2.32,4a27.33,27.33,0,0,0,1.14,11,.88.88,0,0,0,.47.6.28.28,0,0,0,.39-.25c.29-2.68.78-4.32,1.4-5s1.21-.58,2.21.3c.15.13.35.2.45.09a.47.47,0,0,0,.07-.52,61,61,0,0,1-1.86-9.58,1,1,0,0,0-.21-.53.58.58,0,0,0-.39-.27,3,3,0,0,0-1.35.15Zm-.35,1.83a2,2,0,0,1,1.56-.57,57.61,57.61,0,0,0,1.59,8.1c-1-.57-1.84-.72-2.46,0a8,8,0,0,0-1.19,3.26,23.46,23.46,0,0,1-.59-7.93,5.59,5.59,0,0,1,1.09-2.82ZM400,432.88a.31.31,0,0,0-.14.23,28.22,28.22,0,0,1-1.85,7.46.77.77,0,0,0,.08.61.82.82,0,0,0,.45.42c1,.23,1.6.82,2.2,2.23a23.3,23.3,0,0,1,1.41,6.61,1,1,0,0,0,.39.7c.2.15.39.12.47-.07a19.16,19.16,0,0,0,1.13-9.73,14.34,14.34,0,0,0-3.71-8.31.37.37,0,0,0-.43-.15Zm.62,1.68a12.59,12.59,0,0,1,2.64,6.44,19.09,19.09,0,0,1-.58,7.26,19.57,19.57,0,0,0-1.19-4.62,5.71,5.71,0,0,0-2.47-2.78,26.61,26.61,0,0,0,1.6-6.3Zm-8.66,5.14.17.78.57,2.71,5.06,2.87.66-2.64Zm1.21,1.78,4.1,2.34-.18.78-3.69-2.09Z"/></g><path class="cls-54" d="M393.68,445.33V449l.58.33v-3.63Zm0,4.34v.71l.58.34V450Zm1.21-3.65v5.81l.58.33v-5.8Zm0,6.53v.71l.61.37,0-.75Zm1.21-5.87V451l.59.34V447Zm0,5.1v.71l.61.37v-.76Z"/><path class="cls-53" d="M390.73,415.19a.32.32,0,0,0-.09.16c-2.07,6.41-1,15.24,1.12,22.75a1,1,0,0,0,.43.58l6,3.44c.2.11.36.06.43-.09,2.17-5,3.24-12.73,1.17-21.51a.92.92,0,0,0-.57-.68c-.23,0-.37.19-.29.52,1.91,8.27.94,15.59-1.09,20.47l-5.35-3.06c-2-7.17-2.95-15.54-1-21.6a.94.94,0,0,0-.18-.74c-.22-.24-.43-.34-.59-.24Z"/><path class="cls-53" d="M391,414.38a.22.22,0,0,0-.1.11c-.2.46-.43,1.5-.55,1.86a.79.79,0,0,0,.06.53,1,1,0,0,0,.37.42l8.85,5c.16.09.28.07.35,0a.49.49,0,0,0,.06-.46c-.06-.25-.15-.71-.23-1.13s-.18-.88-.28-1.24a1,1,0,0,0-.41-.59l-7.81-4.47a.37.37,0,0,0-.31,0Zm.66,1.28,7.13,4.1c0,.21.12.44.16.7a2.46,2.46,0,0,0,.1.41l-7.66-4.28.27-.93Z"/><path class="cls-53" d="M394.83,409.51a10.55,10.55,0,0,0-4,5,.74.74,0,0,0,0,.54,1,1,0,0,0,.35.44l7.85,4.49a.26.26,0,0,0,.37,0,.56.56,0,0,0,0-.49,44.54,44.54,0,0,0-4-9.66c-.14-.24-.45-.42-.63-.31Zm.33,1.44a41.38,41.38,0,0,1,3.21,7.6L392,414.86a10.14,10.14,0,0,1,3.16-3.91Z"/><path class="cls-55" d="M395.17,422.61c-1.25-.71-2.27-.07-2.25,1.43a5,5,0,0,0,2.25,4c1.25.72,2.25.08,2.25-1.43a5.18,5.18,0,0,0-2.25-4Zm0,1.09a3,3,0,0,1,1.35,2.4c0,.9-.61,1.28-1.35.86a3.07,3.07,0,0,1-1.35-2.4c0-.94.57-1.31,1.35-.86Z"/></g><g id="engaging"><polygon class="cls-56" points="409.72 92.26 441.69 94.33 424.94 84.86 409.72 92.26"/><polygon class="cls-12" points="408.51 91.6 404.3 89.08 410.47 83.65 408.51 91.6"/><polygon class="cls-32" points="458.27 3.25 454.4 0.82 453.85 5.83 458.27 3.25"/><path class="cls-32" d="M409.25,88.64l40.26-23.22c4.22-2.43,7.64-9,7.64-14.58V7.05c0-5.62-3.42-8.21-7.64-5.77L409.25,24.53c-4.22,2.43-7.63,9-7.63,14.58V82.87C401.62,88.49,405,91.12,409.25,88.64Z"/><path class="cls-6" d="M413.72,91.33,454,68.11c4.22-2.43,7.64-9,7.64-14.58V9.74c0-5.62-3.42-8.21-7.64-5.78L413.72,27.21c-4.22,2.44-7.63,9-7.63,14.58V85.55C406.09,91.17,409.5,93.81,413.72,91.33Z"/><path class="cls-57" d="M414.81,46.56l8.66-5v1.64l-8,4.56V70.22L422,66.49c.36-.21.67,0,.67.43v5.94l4.61-9.16a1.12,1.12,0,0,1,.49-.58l16.34-9.35,1.16,1-17.19,9.83-5.6,11.07c-.18.33-.49.65-.73.64a.44.44,0,0,1-.43-.49V68.44l-6.57,3.76c-.37.21-.68,0-.68-.43v-24A1.77,1.77,0,0,1,414.81,46.56Z"/><path class="cls-55" d="M431.84,41.9a5.56,5.56,0,0,0-2.46,4.38c0,1.63,1.1,2.33,2.45,1.56a5.52,5.52,0,0,0,2.46-4.37c0-1.64-1.1-2.34-2.45-1.57Zm0,1.64c.61-.36,1.16-.08,1.16.74a2.64,2.64,0,0,1-1.16,2.08c-.62.35-1.11,0-1.11-.78a2.39,2.39,0,0,1,1.11-2Zm6.45-5.33a5.56,5.56,0,0,0-2.46,4.38c0,1.63,1.1,2.33,2.45,1.56a5.52,5.52,0,0,0,2.46-4.37c0-1.64-1.1-2.34-2.45-1.57Zm0,1.64c.61-.36,1.1,0,1.16.74a2.63,2.63,0,0,1-1.17,2.08c-.61.35-1.1,0-1.1-.78a2.48,2.48,0,0,1,1.11-2Zm6.45-5.33a5.58,5.58,0,0,0-2.46,4.38c0,1.63,1.1,2.33,2.45,1.56a5.52,5.52,0,0,0,2.46-4.37c0-1.64-1.1-2.34-2.45-1.57Zm0,1.64c.61-.35,1.1,0,1.1.77a2.6,2.6,0,0,1-1.11,2c-.61.35-1.16.07-1.16-.75a2.7,2.7,0,0,1,1.17-2.07Z"/><path class="cls-55" d="M423,37.16l30.59-17.49c.36-.21.67,0,.67.43v24a1.56,1.56,0,0,1-.67,1.2L447,49.11v7.35a1.56,1.56,0,0,1-.43,1,.58.58,0,0,1-.74.2l-2.15-1.81L440.25,53l-17.33,9.91c-.36.21-.67,0-.67-.43V38.4A1.79,1.79,0,0,1,423,37.16Zm.66,23.67,16.95-9.7a.49.49,0,0,1,.5,0l3.19,2.71,1.16.89.25.23V49a1.35,1.35,0,0,1,.56-1.05l.12-.07,6.51-3.73V21.69l-29.3,16.76V60.86Z"/></g><g id="daffodil"><polygon class="cls-58" points="291.79 403.9 327.19 381.92 281.99 355.82 291.79 403.9"/><polygon class="cls-12" points="289.38 405.35 293.59 402.83 287.42 397.4 289.38 405.35"/><polygon class="cls-12" points="239.61 317 243.49 314.57 244.04 319.58 239.61 317"/><path class="cls-12" d="M288.64,402.39l-40.26-23.22c-4.22-2.43-7.65-9-7.65-14.58V320.8c0-5.62,3.43-8.21,7.65-5.77l40.26,23.25c4.21,2.43,7.62,9,7.62,14.58v43.76C296.26,402.24,292.85,404.87,288.64,402.39Z"/><path class="cls-5" d="M284.17,405.08,243.9,381.86c-4.21-2.43-7.64-9-7.64-14.58V323.49c0-5.62,3.43-8.21,7.64-5.78L284.17,341c4.21,2.44,7.62,9,7.62,14.59V399.3C291.79,404.92,288.38,407.56,284.17,405.08Z"/><path class="cls-59" d="M246.65,364.89c-.72-.62-1.43-1.29-2.12-2a1.66,1.66,0,0,1-.46-1.13c.17-4.25,1.44-7,3.75-8.13,4.37-2.2,10.88,2,11.16,2.18a1.65,1.65,0,0,1,.68,1.32c0,.16,2,2,1.94,3.64,0,3.3-2.06,7.57-1.93,7.93.2.53.08,1-.27,1.05S253.22,370.49,246.65,364.89Z"/><path class="cls-60" d="M273.75,376.11a39,39,0,0,1-5-5.14,1.31,1.31,0,0,1-.26-1.34c.1-.15-2.54-4.25-2.64-6.7s2.33-3.43,2.32-3.68c0-.5.27-.74.67-.55h0a32.36,32.36,0,0,1,7.12,5.23,25.62,25.62,0,0,1,8.12,16.47c0,.4-.15.66-.45.64C280,380.73,276.48,378.43,273.75,376.11Z"/><path class="cls-61" d="M264.66,385.08a1.69,1.69,0,0,1-.35-.43c-4.45-7.86-5.5-13.86-5.6-17.52a15.4,15.4,0,0,1,.88-6.2c.16-.35,1.09-2.12,1.46-1.72.17.19,1.14-1.45,2.64-.74,1.72.81,2.47,3,2.64,3,.32-.11,1.79,3,2,3.58a30.87,30.87,0,0,1,2.34,8.52c.47,4.13-.08,9.55-5.41,11.76A.69.69,0,0,1,264.66,385.08Z"/><path class="cls-62" d="M251,353l-1.1-2.3a16.7,16.7,0,0,1-1.48-5.64l0-.55.4-.07c4.71-.79,9.2,5.71,9.37,6l.88,5.42Z"/><path class="cls-62" d="M267.82,355.16l.64-.09c1.36-.25,4.94-.28,8.76,4.52l.4.51,0,.53a9.45,9.45,0,0,1-.4,2.35l-.58,1.6s-6.66-5.56-7.75-5.36Z"/><path class="cls-63" d="M257.54,348.57c.15,2.61-.11,5.94,1,9.76a10.77,10.77,0,0,0,.93,2.3,10.21,10.21,0,0,0,4,4.08,4.15,4.15,0,0,0,3.25.58,3,3,0,0,0,1.51-1.4c1.48-2.48,1.27-6.68,1.2-8.4C269.44,355.5,257.39,346,257.54,348.57Z"/><path class="cls-64" d="M254.92,337.82c.59-.59,2.42,2.13,3.8,1.94.88-.12.57-1.31,1.41-1.22s1.35,1.4,3.24,2.53a5.17,5.17,0,0,0,1.74.77c.75.12,1.05-.19,1.52.25a3.76,3.76,0,0,1,.8,1.4c.33.81.21,1.08.46,1.46s.69.48,1.45.79c.19.08,2.44,1.05,2.86,2.26a2.47,2.47,0,0,1,.05.65c0,1.33-.25,1.49-.08,2.05s.37.48,1.26,1.66a5.13,5.13,0,0,1,1.2,2.11,1.07,1.07,0,0,1-.34.9c-.61.73-1.27.27-1.44.95a8.15,8.15,0,0,0,0,1.22c0,.42,0,.56-.08.63s-.46-.21-1.07-.71a4.61,4.61,0,0,0-1.42-.94,1.2,1.2,0,0,0-1.1.21c-.69.48-.56,1.29-1,1.19-.63-.12-1.13-2.15-2.14-2.67-.53-.31-1-.05-1.66.27s-.82.63-1.09.38-.21-.65-.59-1.44a5,5,0,0,0-1-1.4c-.15-.13-.46-.38-2-.63-.83-.14-.84-.08-1-.21-.86-.73-.73-2.75-1.63-3.58-.31-.29-.32-.05-1.45-.51s-1.33-.79-1.39-.92a2.1,2.1,0,0,1-.06-1.07c.05-.5.16-.53.11-.78-.1-.51-.61-.76-1.15-1.56a4,4,0,0,1-.8-2.17c.12-.58,1-.58,1.34-.56s.67.14.91-.06a1.08,1.08,0,0,0,.29-.77,10.84,10.84,0,0,0-.18-1.33A1.74,1.74,0,0,1,254.92,337.82Z"/><path class="cls-63" d="M258.16,346.92c-.19-.38.27-1.09.82-1.49,1.6-1.16,4.1.19,4.76.59a10.85,10.85,0,0,1,4.5,4.73c.45,1.06.73,2.38.51,2.43s-.37-.55-.91-1c-.8-.71-1.14-.22-2.45-.71a13.58,13.58,0,0,1-1.74-.95,12.92,12.92,0,0,1-1.51-.94c-1.2-.91-1.26-1.42-2.1-1.94C259,346.92,258.35,347.3,258.16,346.92Z"/></g></svg>