<?xml version="1.0" encoding="UTF-8"?><svg xmlns="http://www.w3.org/2000/svg" xmlns:xlink="http://www.w3.org/1999/xlink" viewBox="0 0 555 509"><defs><style>.cls-1{fill:url(#linear-gradient-11);}.cls-1,.cls-2,.cls-3,.cls-4,.cls-5,.cls-6,.cls-7,.cls-8,.cls-9,.cls-10,.cls-11,.cls-12,.cls-13,.cls-14,.cls-15,.cls-16,.cls-17,.cls-18,.cls-19,.cls-20,.cls-21,.cls-22,.cls-23,.cls-24,.cls-25,.cls-26,.cls-27,.cls-28,.cls-29,.cls-30,.cls-31,.cls-32,.cls-33,.cls-34,.cls-35,.cls-36,.cls-37,.cls-38,.cls-39,.cls-40,.cls-41,.cls-42,.cls-43,.cls-44,.cls-45,.cls-46,.cls-47,.cls-48,.cls-49,.cls-50,.cls-51,.cls-52,.cls-53,.cls-54,.cls-55,.cls-56,.cls-57,.cls-58,.cls-59,.cls-60{stroke-width:0px;}.cls-1,.cls-2,.cls-3,.cls-4,.cls-17,.cls-18,.cls-61,.cls-25,.cls-26{opacity:.5;}.cls-2{fill:url(#linear-gradient-12);}.cls-3{fill:url(#linear-gradient-13);}.cls-4{fill:url(#linear-gradient-15);}.cls-5{fill:rgba(36,225,200,.9);}.cls-5,.cls-11,.cls-12,.cls-13,.cls-14,.cls-15,.cls-16,.cls-19,.cls-20,.cls-21,.cls-22,.cls-23,.cls-24{fill-rule:evenodd;}.cls-6{opacity:.1;}.cls-6,.cls-17,.cls-21,.cls-51{fill:#fff;}.cls-6,.cls-18{isolation:isolate;}.cls-62{clip-path:url(#clippath);}.cls-7{fill:none;}.cls-8{fill:url(#linear-gradient);}.cls-9{fill:url(#radial-gradient);}.cls-10{fill:url(#linear-gradient-14);}.cls-11{fill:url(#linear-gradient-8);}.cls-12{fill:url(#linear-gradient-5);}.cls-13{fill:url(#linear-gradient-7);}.cls-14{fill:url(#linear-gradient-6);}.cls-15{fill:rgba(96,225,224,.75);}.cls-16{fill:rgba(255,255,255,.75);}.cls-18{fill:url(#linear-gradient-10);}.cls-63{opacity:.3;}.cls-19,.cls-34{fill:#2d3047;}.cls-20,.cls-57{fill:#ffc810;}.cls-22,.cls-48{fill:#c2bce2;}.cls-23,.cls-59{fill:#eae8f5;}.cls-24{fill:rgba(255,255,255,.5);}.cls-25{fill:url(#linear-gradient-9);}.cls-26{fill:url(#linear-gradient-2);}.cls-27{fill:url(#linear-gradient-4);}.cls-28{fill:url(#linear-gradient-3);}.cls-29{fill:#5440cc;opacity:.6;}.cls-30{fill:#faaa31;}.cls-31{fill:#616e84;}.cls-32{fill:#616161;}.cls-33{fill:#757b89;}.cls-35{fill:#2b303f;}.cls-36{fill:#2c2c2c;}.cls-37{fill:#2b2a30;}.cls-38{fill:#6264bf;}.cls-39{fill:#181818;}.cls-40{fill:#20232d;}.cls-41{fill:#200c96;}.cls-42{fill:#1effbc;}.cls-43{fill:#d0caf1;}.cls-44{fill:#d3d3d3;}.cls-45{fill:#b1a8e7;}.cls-46{fill:#b1b4c4;}.cls-47{fill:#c1badc;}.cls-49{fill:#6600d0;}.cls-50{fill:#747474;}.cls-52{fill:#ededed;}.cls-53{fill:#f69225;}.cls-54{fill:#e8e6f3;}.cls-55{fill:#efedfa;}.cls-56{fill:#ffcea9;}.cls-58{fill:#fc6;}.cls-60{fill:#f4f4f4;}</style><linearGradient id="linear-gradient" x1="281.11" y1="571.06" x2="274.42" y2="75.2" gradientUnits="userSpaceOnUse"><stop offset="0" stop-color="#090c9b"/><stop offset="1" stop-color="#050647"/></linearGradient><linearGradient id="linear-gradient-2" x1="364.49" y1="355.09" x2="397.23" y2="313.56" gradientUnits="userSpaceOnUse"><stop offset="0" stop-color="#9285de" stop-opacity=".7"/><stop offset="1" stop-color="#9285de" stop-opacity="0"/></linearGradient><radialGradient id="radial-gradient" cx="301.61" cy="185.6" fx="301.61" fy="185.6" r="124.33" gradientTransform="translate(0 -46.4) scale(1 1.25)" gradientUnits="userSpaceOnUse"><stop offset="0" stop-color="#6264bf"/><stop offset="1" stop-color="#090c9b"/></radialGradient><linearGradient id="linear-gradient-3" x1="313.79" y1="371.73" x2="255.77" y2="46.02" gradientUnits="userSpaceOnUse"><stop offset="0" stop-color="#60e1e0"/><stop offset="1" stop-color="#60e1e0" stop-opacity="0"/></linearGradient><linearGradient id="linear-gradient-4" x1="240.06" y1="37.39" x2="318.89" y2="360.36" gradientUnits="userSpaceOnUse"><stop offset="0" stop-color="#60e1e0" stop-opacity="0"/><stop offset=".14" stop-color="#60e1e0" stop-opacity=".17"/><stop offset=".34" stop-color="#60e1e0" stop-opacity=".37"/><stop offset=".54" stop-color="#60e1e0" stop-opacity=".54"/><stop offset=".72" stop-color="#60e1e0" stop-opacity=".65"/><stop offset=".88" stop-color="#60e1e0" stop-opacity=".73"/><stop offset="1" stop-color="#60e1e0" stop-opacity=".75"/></linearGradient><linearGradient id="linear-gradient-5" x1="-199.32" y1="685.8" x2="-197.37" y2="685.8" gradientTransform="translate(-81395.51 15404.65) rotate(-116.73) scale(116.38)" gradientUnits="userSpaceOnUse"><stop offset="0" stop-color="#090c9b" stop-opacity=".35"/><stop offset="1" stop-color="#090c9b" stop-opacity="0"/></linearGradient><linearGradient id="linear-gradient-6" x1="-200.09" y1="684.14" x2="-198.15" y2="684.14" gradientTransform="translate(-59284.24 7677.18) rotate(-113.43) scale(84.24)" gradientUnits="userSpaceOnUse"><stop offset="0" stop-color="#60e1e0" stop-opacity=".75"/><stop offset="1" stop-color="#60e1e0" stop-opacity="0"/></linearGradient><linearGradient id="linear-gradient-7" x1="-200.22" y1="685.34" x2="-198.28" y2="685.34" gradientTransform="translate(-81395.51 15404.65) rotate(-116.73) scale(116.38)" gradientUnits="userSpaceOnUse"><stop offset="0" stop-color="#090c9b" stop-opacity=".35"/><stop offset="1" stop-color="#090c9b" stop-opacity="0"/></linearGradient><linearGradient id="linear-gradient-8" x1="-201.37" y1="683.59" x2="-199.43" y2="683.59" gradientTransform="translate(-59284.24 7677.18) rotate(-113.43) scale(84.24)" gradientUnits="userSpaceOnUse"><stop offset="0" stop-color="#60e1e0" stop-opacity=".75"/><stop offset="1" stop-color="#60e1e0" stop-opacity="0"/></linearGradient><linearGradient id="linear-gradient-9" x1="156.04" y1="440.28" x2="156.04" y2="413.45" gradientUnits="userSpaceOnUse"><stop offset="0" stop-color="#9285de" stop-opacity="0"/><stop offset="1" stop-color="#9285de"/></linearGradient><linearGradient id="linear-gradient-10" x1="-2150.78" y1="-2497.9" x2="-2150.78" y2="-2478.68" gradientTransform="translate(4523.61 -121.87) rotate(29.89) scale(1 -1) skewX(29.94)" gradientUnits="userSpaceOnUse"><stop offset=".21" stop-color="#fff" stop-opacity="0"/><stop offset="1" stop-color="#fff" stop-opacity=".2"/></linearGradient><linearGradient id="linear-gradient-11" x1="448.31" y1="227.63" x2="459.55" y2="218.69" gradientUnits="userSpaceOnUse"><stop offset=".14" stop-color="#9285de"/><stop offset="1" stop-color="#9285de" stop-opacity="0"/></linearGradient><linearGradient id="linear-gradient-12" x1="260.2" y1="499.09" x2="260.2" y2="483.06" gradientUnits="userSpaceOnUse"><stop offset="0" stop-color="#9285de" stop-opacity="0"/><stop offset="1" stop-color="#9285de"/></linearGradient><linearGradient id="linear-gradient-13" x1="376.88" y1="466.63" x2="376.88" y2="447.77" gradientUnits="userSpaceOnUse"><stop offset="0" stop-color="#9285de" stop-opacity="0"/><stop offset="1" stop-color="#9285de"/></linearGradient><clipPath id="clippath"><polygon class="cls-7" points="375.02 421.37 395.32 408.45 415.02 443.5 394.71 456.43 375.02 421.37"/></clipPath><linearGradient id="linear-gradient-14" x1="415.9" y1="88.44" x2="438.81" y2="90.46" gradientUnits="userSpaceOnUse"><stop offset="0" stop-color="#9285de" stop-opacity=".6"/><stop offset="1" stop-color="#9285de" stop-opacity="0"/></linearGradient><linearGradient id="linear-gradient-15" x1="288.07" y1="381.25" x2="308.27" y2="366.11" gradientUnits="userSpaceOnUse"><stop offset="0" stop-color="#9285de"/><stop offset="1" stop-color="#9285de" stop-opacity="0"/></linearGradient></defs><g id="Layer_18"><path class="cls-8" d="m5.03,244.31L356.81,40.89c6.29-3.64,10.95-3.62,17.19.11l100.51,58.33c6.52,3.9,6.48,13.37-.08,17.21l-69.44,40.68c-6.65,3.9-6.58,13.54.13,17.33l144.84,81.94c6.69,3.79,6.79,13.39.17,17.31l-95.19,56.35c-6.63,3.93-6.52,13.56.21,17.33l44.57,24.96c6.75,3.78,6.83,13.47.15,17.37l-199.88,116.37c-6.18,3.6-13.81,3.62-20.01.07L4.96,348.58c-6.66-3.82-6.71-13.41-.09-17.3l45.26-26.55c6.62-3.89,6.58-13.48-.09-17.3l-44.98-25.79c-6.69-3.83-6.71-13.47-.03-17.33Z"/><polyline class="cls-26" points="363.22 364.01 427 330 370.24 293.59 363.22 364.01"/></g><g id="Layer_17"><path class="cls-38" d="m476.98,114.26c3.71-4.5,2.85-11.67-2.61-14.93l-100.51-58.33c-6.23-3.73-10.9-3.75-17.19-.11L4.91,244.31c-6.67,3.86-6.66,13.5.03,17.33l44.98,25.79c6.66,3.82,6.71,13.41.09,17.3l-45.26,26.55c-4.97,2.91-6.74,9.72-2.74,14.72l69.85-41.68c6.64-3.8,6.73-13.34.16-17.27l-50-29.86c-3.28-1.96-3.24-6.72.06-8.62L359.75,53.68c3.06-1.77,6.84-1.79,9.92-.05l107.31,60.62Z"/></g><g id="Layer_19"><path class="cls-38" d="m550.15,273.77c6.62-3.92,6.52-13.52-.17-17.31l-144.84-81.94c-6.71-3.8-8.73,9.47-8.73,9.47l153.75,89.78Z"/></g><g id="phone"><polygon class="cls-59" points="252.18 5.06 246.52 7.9 252 13 252.18 5.06"/><path class="cls-55" d="m355.77,362.22l-94.36-54.48c-8-4.61-14.47-17-14.47-27.65V16.9c.03-10.68,6.48-15.56,14.47-10.94l94.36,54.47c8,4.62,14.47,17,14.47,27.65v263.2c0,10.66-6.48,15.55-14.47,10.94Z"/><polygon class="cls-59" points="357.33 366.93 364.83 363.21 357.75 350.86 357.33 366.93"/><path class="cls-45" d="m349.75,365.22l-94.35-54.48c-8-4.61-14.47-17-14.47-27.65V19.91c.04-10.69,6.48-15.56,14.47-10.95l94.35,54.48c8,4.62,14.48,17,14.48,27.65v263.2c0,10.65-6.48,15.55-14.48,10.93Z"/><path class="cls-39" d="m363.22,91.76v263.19c0,10.67-6.47,15.56-14.47,10.95l-37-21.36-11.51-6.65-45.85-26.47c-8-4.62-14.46-17-14.46-27.65V20.58c.04-10.67,6.47-15.56,14.46-10.95l94.36,54.48c8,4.62,14.47,16.99,14.47,27.65Z"/><path class="cls-9" d="m356.41,89.09v256.34c0,6.46-4.53,9.08-10.11,5.84l-5-2.9-17.14-9.89-7.37-4.26-2.6-1.51-.87-.51-6.35-3.65-18.45-10.64h0l-7.6-4.39h0l-3.08-1.78-18.4-10.62-2.51-1.45c-5.6-3.23-10.12-11.08-10.12-17.55V25.76c0-6.46,4.52-9.08,10.12-5.85l89.38,51.68c5.57,3.19,10.1,11.04,10.1,17.5Z"/><path class="cls-45" d="m367.05,126.39h0c-.77.45-1.39,0-1.39-1v-11.27c.01-1.06.53-2.05,1.39-2.66h0c.77-.45,1.39,0,1.39,1.05v11.22c-.01,1.06-.53,2.05-1.39,2.66Z"/><path class="cls-45" d="m367.05,144.78h0c-.77.44-1.39,0-1.39-1.05v-11.23c.02-1.06.53-2.04,1.39-2.66h0c.77-.44,1.39,0,1.39,1.06v11.22c-.01,1.06-.53,2.04-1.39,2.66Z"/><path class="cls-29" d="m349.5,95.2v268.97c0,6.78-4.75,9.53-10.61,6.13l-5.25-3.04-17.98-10.38-7.73-4.47-2.73-1.58-.91-.54-6.66-3.83-19.36-11.16h0l-7.97-4.61h0l-3.23-1.87-19.31-11.14-2.63-1.52c-5.88-3.39-10.62-11.63-10.62-18.41V28.75c0-6.78,4.74-9.53,10.62-6.14l93.78,54.23c5.84,3.35,10.6,11.58,10.6,18.36Z"/></g><g id="Layer_8"><polygon class="cls-42" points="336.61 383.77 339.56 382.15 337 381 336.61 383.77"/><polygon class="cls-48" points="227.72 23.99 224.65 25.96 228 27 227.72 23.99"/><path class="cls-48" d="m342.74,99.11v275.99c0,6.96-4.88,9.78-10.88,6.29l-5.38-3.12-18.45-10.65-7.93-4.59-2.8-1.63-.94-.55-6.84-3.93-19.86-11.46h0l-8.18-4.73h0l-3.32-1.92-19.81-11.43-2.7-1.56c-6.03-3.48-10.9-11.93-10.9-18.9V30.93c0-6.96,4.87-9.78,10.9-6.3l96.23,55.64c6,3.43,10.87,11.89,10.87,18.84Z"/><path class="cls-28" d="m342.74,99.11v275.99c0,6.96-4.88,9.78-10.88,6.29l-5.38-3.12-18.45-10.65-7.93-4.59-2.8-1.63-.94-.55-6.84-3.93-19.86-11.46h0l-8.18-4.73h0l-3.32-1.92-19.81-11.43-2.7-1.56c-6.03-3.48-10.9-11.93-10.9-18.9V30.93c0-3.72,1.39-6.26,3.61-7.28,1.93-.89,4.48-.63,7.28.98l96.23,55.64c6,3.43,10.87,11.89,10.87,18.84Z"/><path class="cls-41" d="m339.87,100.85v275.83c0,6.95-4.87,9.77-10.88,6.28l-5.38-3.12-18.44-10.64-7.93-4.58-2.8-1.62-.94-.55-6.83-3.93-19.85-11.45h0l-8.18-4.72h0l-3.31-1.92-19.8-11.43-2.7-1.56c-6.03-3.48-10.89-11.92-10.89-18.88V32.7c0-6.95,4.86-9.77,10.89-6.29l96.18,55.61c5.99,3.43,10.87,11.88,10.87,18.83Z"/><path class="cls-27" d="m339.87,100.85v275.83c0,6.95-4.87,9.77-10.88,6.28l-5.38-3.12-18.44-10.64-7.93-4.58-2.8-1.62-.94-.55-6.83-3.93-19.85-11.45h0l-8.18-4.72h0l-3.31-1.92-19.8-11.43-2.7-1.56c-6.03-3.48-10.89-11.92-10.89-18.88V32.7c0-6.95,4.86-9.77,10.89-6.29l96.18,55.61c5.99,3.43,10.87,11.88,10.87,18.83Z"/><path class="cls-24" d="m264.19,330.54c0-1.12.68-1.64,1.53-1.15l28.7,16.57c.84.49,1.53,1.79,1.53,2.92s-.68,1.64-1.53,1.15l-28.7-16.57c-.84-.49-1.53-1.8-1.53-2.92h0Z"/><path class="cls-23" d="m281.92,65.18v-.67c0-1.19-.83-2.63-1.86-3.22-1.03-.59-1.86-.11-1.86,1.07v.66l-.06-.04c-.5-.29-.9-.05-.9.52v3.4c0,.57.4,1.27.89,1.55l3.85,2.22c.5.29.9.05.9-.52v-3.4c-.03-.63-.36-1.21-.89-1.55l-.06-.04h0Zm-2.89-1.67v-.67c0-.66.46-.93,1.03-.59.57.33,1.03,1.13,1.03,1.79v.66l-2.07-1.19h0Z"/><path class="cls-22" d="m317.32,86.75c0-.74.45-1.08,1-.76l7.6,4.39c.55.32,1,1.18,1,1.92v2.68c0,.74-.45,1.08-1,.76l-7.6-4.39c-.55-.32-1-1.18-1-1.92v-2.68Z"/><path class="cls-22" d="m316.77,87.33c0-.24.15-.35.33-.25l2.35,1.36c.18.1.33.39.33.63v.88c0,.24-.15.35-.33.25l-2.35-1.36c-.18-.1-.33-.39-.33-.63v-.88Z"/><path class="cls-21" d="m317.86,87.36c0-.58.35-.84.78-.59l7,4.05c.43.25.78.92.78,1.49v2.08c0,.57-.35.84-.78.59l-7-4.05c-.43-.25-.78-.92-.78-1.49v-2.08Z"/><g class="cls-63"><path class="cls-21" d="m235.11,38.99l1.82,1.05v4.17l-1.82-1.05v-4.17Zm2.62-.23l1.82,1.05v5.92l-1.82-1.05v-5.92Zm-5.35.27l1.82,1.05v2.56l-1.82-1.05v-2.56Zm7.77-.69l1.82,1.05v7.74l-1.82-1.05v-7.74Z"/></g><path class="cls-5" d="m289.89,273.4c-7.7-4.45-13.95-.84-13.95,8.06s6.25,19.72,13.95,24.17c7.7,4.45,13.95.84,13.95-8.06s-6.25-19.72-13.95-24.17Z"/><g class="cls-61"><path class="cls-51" d="m284.6,260.14l-44.9-25.92c-1.19,3.85-1.82,7.85-1.87,11.88v28.07l20.57,11.88,3.75-21.59,3.74,25.92,20.53,11.88v-28.09c-.1-4.73-.71-9.44-1.83-14.04Z"/><polygon class="cls-51" points="284.6 251.5 239.71 225.59 239.71 232.07 284.6 257.99 284.6 251.5"/></g><path class="cls-12" d="m331.66,127.5c0-4.07-2.48-8.81-5.53-10.57l-92.65-53.49c-3.05-1.76-5.53.11-5.53,4.18v75.35c0,4.07,2.48,8.81,5.53,10.57l92.65,53.49c3.06,1.76,5.53-.11,5.53-4.18v-75.35Z"/><path class="cls-15" d="m318.13,135.32c0-4.07-2.48-8.81-5.53-10.57l-92.65-53.49c-3.05-1.76-5.53.11-5.53,4.18v75.35c0,4.07,2.48,8.81,5.53,10.57l92.65,53.49c3.05,1.76,5.53-.11,5.53-4.18,0,0,0-75.35,0-75.35Z"/><path class="cls-16" d="m316.15,136.1c0-4.07-2.48-8.81-5.53-10.58l-92.65-53.49c-3.06-1.76-5.54.11-5.54,4.18v75.35c0,4.07,2.48,8.81,5.54,10.57l92.65,53.49c3.05,1.76,5.53-.11,5.53-4.18v-75.35h0Z"/><path class="cls-14" d="m316.15,136.1c0-4.07-2.48-8.81-5.53-10.58l-92.65-53.49c-3.06-1.76-5.54.11-5.54,4.18v75.35c0,4.07,2.48,8.81,5.54,10.57l92.65,53.49c3.05,1.76,5.53-.11,5.53-4.18v-75.35h0Z"/><path class="cls-17" d="m285.72,144.99l-10.77-18.68c-.41-.74-1-1.37-1.72-1.82h0c-.1-.06-.2-.11-.3-.14-.1-.07-.2-.14-.31-.2l-3-1.73c-.82-.48-1.59-.44-2.03.1-.95,1.11-3.11,1.01-5.48-.37-2.39-1.38-4.3-3.46-5.48-5.96-.4-1.01-1.12-1.87-2.04-2.45l-2.94-1.72c-.1-.06-.2-.11-.3-.16-.54-.51-1.33-.65-2.02-.37l-10.77,6.23c-.95.55-.95,2.32,0,3.96l5.89,10.21c.39.73.96,1.36,1.65,1.82.5.36,1.16.42,1.72.17l1.35-.79v24.97c.12,1.7,1.04,3.24,2.47,4.16l20.97,12.21c1.34.78,2.42.14,2.42-1.4v-24.97l1.36,2.35c.4.74.99,1.36,1.71,1.81h0c.5.36,1.16.42,1.72.17l5.89-3.41c.94-.59.94-2.3,0-3.99Z"/><path class="cls-13" d="m331.66,245.37c0-4.07-2.48-8.81-5.53-10.57l-92.65-53.49c-3.05-1.76-5.53.11-5.53,4.18v75.35c0,4.07,2.48,8.81,5.53,10.57l92.65,53.49c3.06,1.76,5.53-.11,5.53-4.18v-75.35Z"/><path class="cls-15" d="m318.13,253.19c0-4.07-2.48-8.81-5.53-10.57l-92.65-53.49c-3.05-1.76-5.53.11-5.53,4.18v75.35c0,4.07,2.48,8.81,5.53,10.57l92.65,53.49c3.05,1.76,5.53-.11,5.53-4.18,0,0,0-75.35,0-75.35Z"/><path class="cls-16" d="m316.15,253.97c0-4.07-2.48-8.81-5.53-10.58l-92.65-53.49c-3.06-1.76-5.54.11-5.54,4.18v75.35c0,4.07,2.48,8.81,5.54,10.57l92.65,53.49c3.05,1.76,5.53-.11,5.53-4.18v-75.35h0Z"/><path class="cls-11" d="m316.15,253.97c0-4.07-2.48-8.81-5.53-10.58l-92.65-53.49c-3.06-1.76-5.54.11-5.54,4.18v75.35c0,4.07,2.48,8.81,5.54,10.57l92.65,53.49c3.05,1.76,5.53-.11,5.53-4.18v-75.35h0Z"/><g class="cls-61"><path class="cls-51" d="m282.84,256.42l-44.9-25.92c-1.19,3.85-1.82,7.85-1.87,11.88v28.07l20.57,11.88,3.75-21.59,3.74,25.92,20.53,11.88v-28.09c-.1-4.73-.71-9.44-1.83-14.04Z"/><polygon class="cls-51" points="282.84 247.78 237.95 221.86 237.95 228.35 282.84 254.26 282.84 247.78"/></g></g><g id="person"><polygon class="cls-25" points="164.9 413.45 164.9 440.28 147.18 430.12 164.9 413.45"/><polygon class="cls-48" points="164.9 413.45 164.31 405.65 158.95 411.34 164.9 413.45"/><polygon class="cls-43" points="54.9 403.43 55.6 412.03 61.21 407.72 54.9 403.43"/><path class="cls-43" d="m96.53,440.76c9.97,5.76,22.25,5.76,32.22,0l30.63-17.69c7.35-4.24,7.35-14.85,0-19.1l-35.53-20.68c-9.97-5.76-22.25-5.76-32.22,0l-30.63,17.69c-7.35,4.24-7.35,14.85,0,19.1l35.53,20.68Z"/><path class="cls-55" d="m95.94,433.39c9.97,5.76,22.25,5.76,32.22,0l30.63-17.69c7.35-4.24,7.35-14.85,0-19.1l-35.53-20.68c-9.97-5.76-22.25-5.76-32.22,0l-30.63,17.69c-7.35,4.24-7.35,14.85,0,19.1l35.53,20.68Z"/><g id="Men_2"><path id="_Контур_" class="cls-56" d="m77.35,218.25c-.49,4.24-5.54,22.52-4.46,28.78,1.08,6.26,18.35,16.73,18.35,16.73l2.4-10.72-9.57-9.36,2.59-17.72-9.31-7.71Z"/><path id="_Контур_2" class="cls-52" d="m90.72,200.24c-3.48-1.61-7.61-.36-9.61,2.91-2.54,4.2-5.18,18.64-5.42,21.1,0,0,3.57,4.93,8.91,4.1l6.12-28.11Z"/><path class="cls-37" d="m110.43,404.03c3.76,1.04,7.77.56,11.17-1.35,2.69.08,17.3-6.17,19.29-.92,1.74,4.6-4.58,8.86-8,9.68-7.38,1.79-12.84,5.47-15.8,6.09-2.21.47-5.07.77-6.83-1-2.08-2.05-1.9-9.75.17-12.5Z"/><path class="cls-50" d="m117.12,416.26c3-.63,8.42-4.31,15.8-6.1,2.84-.68,7.72-3.78,8.21-7.48.66,4.24-5,8-8.21,8.76-7.38,1.79-12.84,5.47-15.8,6.09-2.21.47-5.07.77-6.83-1-.47-.5-.81-1.11-1-1.77,2.6,2.2,5.62,1.96,7.83,1.5Z"/><path class="cls-37" d="m86.72,393.39c3.76,1.04,7.77.56,11.17-1.35,2.69.08,17.3-6.18,19.29-.92,1.74,4.6-4.58,8.86-8,9.68-7.38,1.79-12.84,5.47-15.8,6.09-2.21.47-5.07.77-6.83-1-2.07-2.05-1.89-9.76.17-12.5Z"/><path class="cls-50" d="m93.42,405.61c3-.62,8.42-4.3,15.8-6.09,2.84-.68,7.72-3.79,8.21-7.48.66,4.24-5.05,8-8.21,8.76-7.38,1.79-12.84,5.47-15.8,6.09-2.21.47-5.07.77-6.83-1-.47-.5-.81-1.1-1-1.76,2.6,2.17,5.62,1.95,7.83,1.48Z"/><path id="_Контур_3" class="cls-44" d="m86.44,353.69c.63-5.43,1.75-10.78,3.37-16,0,0-1-13.81-1.51-26.9-.58-14.83-5.73-27.95-1.66-39.83l45.85,10.2s-2.77,59.26-3.39,66.43c-.34,5.58-1.02,11.14-2.05,16.64-2.1,11.5-5.5,38.86-5.5,38.86-4.85,2.81-11.21,1.25-11.21,1.25,0,0,.35-34.59.66-42.88.38-10.12.69-9.35.69-9.35l-1.51-25.15-1-12.54s-1.27,9.2-2.09,17.42c-.72,7.17-2.45,13.65-4.39,27-1.67,11.57-4.39,34.83-4.39,34.83-4.85,2.82-11.43.48-11.43.48,0,0-1.76-30.42-.44-40.46Z"/><path id="_Контур_4" class="cls-56" d="m93.13,200.49c3.49.17,6.09,1.07,6.53,0,.37-1.8.64-3.63.8-5.46-.41-1-.75-2.1-.75-2.1-4.39-2.7-5.77-7.44-6.35-13-1-9.43,4.11-17.68,13.55-18.67,8.86-.92,15.39,5.31,17.13,13.86.94,4.23,2.8,12.21.28,19.16-1.41,3.89-3.23,7-5.05,7.57-1.75-.04-3.5-.2-5.24-.46h0s-.47,2.62-.79,4.3-.2,2.57,3.15,4.63-5.06,6.3-10.56,5.89-11.68-3.74-13.37-7.29c-1.89-3.88-1.74-8.54.67-8.43Z"/><path id="_Контур_5" class="cls-60" d="m98.18,201.01c-1,2.41,1.49,5.36,8,7.42s7.15-.59,7.15-.59c0,0,9.62,4.38,12.75,6.57,3.93,2.75,5.68,10.71,6.21,24.15.61,15.56.67,38.64.15,42.62,0,0-7.36,7.33-16.77,6.56s-25.25-9.11-29.1-15.54c.11-13.64,1.71-15.86-.5-23.72-5.06-18-7.72-25.35-5.26-37.3,2-9.85,4.86-11.08,8.75-11,2.89.12,5.76.4,8.62.83Z"/><path id="_Контур_6" class="cls-56" d="m147.14,251.43c-7.73,1.94-9.54-2.93-10.56-7-2.46-9.77-3.78-18.59-5.61-24.13-2.16-6.54-4.42-7.58-7.6-8.85-3.73-1.5-6.94,1.65-5.69,10,1.46,9.85,3.39,16.76,7.07,28.4,1,3,3.12,8.45,6.35,11.06,4,3.22,10,3.08,19.07.83,3.87-1,8.12-3.28,15.45-6.7,2-.92,3.5-1.53,7.27-3.29s7.7-4.69,9.68-7.56,1.64-4.68,1.23-5.33c-.51-.82-.79-.17-1.85,1-1.53,2.03-3.41,3.78-5.56,5.14,0,0,2.44-2.52,3.77-4.16,1.18-1.45,2.16-3.06,2.92-4.77.7-1.67-.74-3.94-1.84-2.75s-1.61,2.4-3.61,4.8c-1.05,1.28-2.25,2.42-3.58,3.41,1.24-1.68,2.34-3.45,3.3-5.3,1.27-2.59-3-1.24-5.39,1.28-1.77,1.83-3.27,2.89-3.31,2.38s-3.49,3.19-5.24,5c-1.9,2.12-8.93,4.69-16.27,6.54Z"/><path id="_Контур_7" class="cls-52" d="m120.51,210.15c5.16-.76,8.81,1.56,11.08,9.38,2.27,7.82,3.88,14.23,3.88,14.23-2.04,2.95-5.14,5.01-8.65,5.74-6.17,1.5-8.39-1.45-8.39-1.45,0,0-1.71-8.19-2.78-13.77s-1.52-13.18,4.86-14.13Z"/><path class="cls-36" d="m123.72,173.96s8.15-12.4-9.51-14.92c-12.74-1.82-20.92,6.36-21.87,15.24-.9,8.49,4.32,17.3,8.1,20.79,1.84.66,5.8,1,11-1.33.21-2.31.3-4.63.25-6.95,0,0-6.19-13.06,12.03-12.83Z"/></g><g id="Mobile"><path class="cls-55" d="m168.98,248.21l-7.49-4.33c-.63-.36-.55-1,.18-1.42l18.05-10.45c.76-.42,1.68-.46,2.47-.1l7.49,4.32c.63.37.55,1-.18,1.43l-18.09,10.44c-.75.41-1.65.45-2.43.11Z"/><polygon class="cls-46" points="161.06 243.26 161.06 242.57 161.87 242.87 161.06 243.26"/><polygon class="cls-46" points="190.14 236.83 190.14 236.17 189.5 236.58 190.14 236.83"/><path class="cls-31" d="m168.98,247.62l-7.49-4.32c-.63-.37-.55-1,.18-1.43l18.05-10.44c.76-.42,1.68-.46,2.47-.1l7.49,4.32c.63.37.55,1-.18,1.43l-18.09,10.44c-.75.41-1.65.45-2.43.1Z"/><ellipse class="cls-33" cx="162.71" cy="245.31" rx=".08" ry=".14" transform="translate(-100.6 113.7) rotate(-29.89)"/><ellipse class="cls-33" cx="162.69" cy="244.27" rx=".08" ry=".14" transform="translate(-100.34 114.07) rotate(-30)"/><ellipse class="cls-33" cx="163.04" cy="244.49" rx=".08" ry=".14" transform="translate(-100.4 114.28) rotate(-30)"/><ellipse class="cls-33" cx="163.41" cy="244.7" rx=".08" ry=".14" transform="translate(-100.46 114.49) rotate(-30)"/><ellipse class="cls-33" cx="166.5" cy="246.48" rx=".08" ry=".14" transform="translate(-100.93 116.27) rotate(-30)"/><ellipse class="cls-33" cx="166.85" cy="246.69" rx=".08" ry=".14" transform="translate(-100.99 116.48) rotate(-30)"/><ellipse class="cls-33" cx="167.22" cy="246.9" rx=".08" ry=".14" transform="translate(-101.05 116.69) rotate(-30)"/><ellipse class="cls-33" cx="167.98" cy="248.36" rx=".08" ry=".14" transform="translate(-101.42 116.73) rotate(-29.89)"/><path class="cls-33" d="m165.45,246.02l-1-.57c-.07-.05-.11-.13-.11-.22h0c0-.08.05-.12.11-.08l1,.57c.07.05.11.13.11.21h0c0,.09-.05.13-.11.09Z"/><path class="cls-33" d="m187.88,238.47l-.92.53c-.06,0-.11,0-.11-.08h0c0-.08.05-.15.11-.2l.92-.53c.06,0,.1,0,.1.08h0c0,.08-.03.16-.1.2Z"/><path class="cls-33" d="m186.47,239.29l-.92.53c-.06,0-.11,0-.11-.08h0c0-.08.04-.16.11-.2l.92-.54c.06,0,.1,0,.1.08h0c0,.08-.04.16-.1.21Z"/><path class="cls-40" d="m168.98,247.52l-7.49-4.33c-.63-.36-.55-1,.18-1.42l18.05-10.45c.76-.42,1.68-.46,2.47-.1l7.49,4.32c.63.37.55,1-.18,1.43l-18.09,10.44c-.75.41-1.65.45-2.43.11Z"/><path class="cls-35" d="m188.91,235.72l-2.92-1.69h0c-.39.2-.86.2-1.25,0-.2-.07-.31-.28-.24-.48.04-.11.13-.2.24-.24h0l-2.92-1.69c-.51-.26-1.1-.26-1.61,0l-17.62,10.17c-.26.09-.4.36-.31.62.05.15.16.26.31.31l7.1,4.09c.51.26,1.1.26,1.61,0l17.61-10.17c.25-.08.4-.34.32-.6-.05-.16-.17-.28-.32-.32Z"/><path class="cls-18" d="m188.91,235.72l-2.92-1.69h0c-.39.2-.86.2-1.25,0-.2-.07-.31-.28-.24-.48.04-.11.13-.2.24-.24h0l-2.92-1.69c-.51-.26-1.1-.26-1.61,0l-17.62,10.17c-.26.09-.4.36-.31.62.05.15.16.26.31.31l7.1,4.09c.51.26,1.1.26,1.61,0l17.61-10.17c.25-.08.4-.34.32-.6-.05-.16-.17-.28-.32-.32Z"/><ellipse class="cls-35" cx="185.17" cy="233.78" rx=".34" ry=".19"/><path class="cls-6" d="m185.07,233.84c-.06,0-.06-.08,0-.11.06-.04.14-.04.2,0,.03.01.04.05.03.08,0,.01-.02.02-.03.03-.06.03-.14.03-.2,0Z"/></g></g><g id="pwa"><polygon class="cls-1" points="448.17 231.04 462.53 222.6 453.42 217.28 448.17 231.04"/><polygon class="cls-48" points="446.54 232.02 450.75 229.5 444.57 224.07 446.54 232.02"/><polygon class="cls-43" points="396.77 143.67 400.64 141.24 401.2 146.25 396.77 143.67"/><path class="cls-43" d="m445.79,229.06l-40.26-23.22c-4.21-2.43-7.64-8.96-7.64-14.58v-43.79c0-5.62,3.43-8.21,7.64-5.77l40.26,23.25c4.21,2.43,7.62,8.96,7.62,14.58v43.76c0,5.62-3.41,8.26-7.62,5.77Z"/><path class="cls-55" d="m441.32,231.75l-40.26-23.22c-4.21-2.43-7.64-8.96-7.64-14.58v-43.79c0-5.62,3.43-8.21,7.64-5.77l40.26,23.25c4.21,2.43,7.62,8.96,7.62,14.58v43.76c0,5.62-3.41,8.26-7.62,5.77Z"/><path class="cls-49" d="m428.25,203.2l6.82-16.52-4.53-2.59-4.67,10.53-3.33-15.1-3.48-1.99-3.56,11.16-2.52-7.45-2.27,7.16,2.31,6.11,4.46,2.55,3.22-9.99,3.08,13.6,4.47,2.56Z"/><path class="cls-32" d="m403.48,182.01l2.78,1.59c.84.48,1.59.8,2.25.95l.72-2.27,2.01-6.34c-.15-.38-.33-.76-.53-1.13-1.03-1.97-2.54-3.53-4.53-4.66l-6.99-4v20.43s4.3,2.45,4.3,2.45v-7.01Zm3.68-6.61c.4.72.61,1.49.61,2.32s-.18,1.38-.53,1.67c-.39.32-1.1.18-2.15-.42l-1.61-.92v-5.49s1.62.93,1.62.93c.97.56,1.66,1.19,2.06,1.92h0Zm25.15,26.45l1.3-3.22,3.75,2.15-1.78-7.03,2.22-5.52,6.39,24.08-4.7-2.69-1.09-4.28-6.08-3.48Z"/></g><g id="no_connection"><polygon class="cls-2" points="269.76 468.44 269.76 500.39 250.65 489.44 269.76 468.44"/><polygon class="cls-43" points="216.64 506.31 212.43 503.79 218.6 498.36 216.64 506.31"/><polygon class="cls-48" points="266.41 417.96 262.53 415.53 261.98 420.54 266.41 417.96"/><path class="cls-43" d="m217.38,503.35l40.26-23.22c4.21-2.43,7.64-8.96,7.64-14.58v-43.79c0-5.62-3.43-8.21-7.64-5.77l-40.26,23.25c-4.21,2.43-7.62,8.96-7.62,14.58v43.76c0,5.62,3.41,8.26,7.62,5.77Z"/><path class="cls-55" d="m221.85,506.04l40.26-23.22c4.21-2.43,7.64-8.96,7.64-14.58v-43.79c0-5.62-3.43-8.21-7.64-5.77l-40.26,23.25c-4.21,2.43-7.62,8.96-7.62,14.58v43.76c0,5.62,3.41,8.26,7.62,5.77Z"/><path class="cls-50" d="m240.04,476.28c0,2.08,1.39,2.97,3.12,1.99s3.12-3.47,3.12-5.55-1.39-2.97-3.12-1.98-3.12,3.47-3.12,5.55Zm-1.77-12.22c.98-1.06,2-1.99,3.05-2.78l-5.3,9.43-1.75-1.11c1.16-2.06,2.5-3.92,4-5.55Zm10.25-5.62c1.39,0,2.63.35,3.7,1.08l-3.84,6.68c-1.11-.76-2.54-.83-4.09-.23l4.24-7.54Zm6.36-11.32c1.19.27,2.3.73,3.32,1.38l-3.78,6.72c-1.03-.65-2.18-1.05-3.43-1.19l3.89-6.92Zm-19.94,9.16c2.61-2.82,5.38-5.08,8.23-6.71,2.08-1.19,4.11-1.99,6.07-2.41l-4.54,8.07c-.51.23-1.02.5-1.54.79-4.22,2.42-8.2,6.67-11.21,11.98l-3.76-2.43c1.95-3.45,4.22-6.58,6.74-9.3Zm21.45-14.21l-20.89,37.17-2.17-1.38,20.89-37.17,2.17,1.38Z"/></g><g id="fast"><polygon class="cls-3" points="368 436 367.93 466.63 385.84 456.2 368 436"/><polygon class="cls-43" points="421.05 473.77 425.25 471.24 419.08 465.81 421.05 473.77"/><polygon class="cls-48" points="371.28 385.41 375.15 382.98 375.71 387.99 371.28 385.41"/><path class="cls-43" d="m420.3,470.81l-40.26-23.22c-4.21-2.43-7.64-8.96-7.64-14.58v-43.79c0-5.62,3.43-8.21,7.64-5.77l40.26,23.25c4.21,2.43,7.62,8.96,7.62,14.58v43.76c0,5.62-3.41,8.26-7.62,5.77Z"/><path class="cls-55" d="m415.83,473.49l-40.26-23.22c-4.21-2.43-7.64-8.96-7.64-14.58v-43.79c0-5.62,3.43-8.21,7.64-5.77l40.26,23.25c4.21,2.43,7.62,8.96,7.62,14.58v43.76c0,5.62-3.41,8.26-7.62,5.77Z"/><g class="cls-62"><path class="cls-19" d="m388.55,427.11c-1.21.44-2.01,1.89-2.32,3.98-.45,2.74-.08,6.66,1.14,11.03.08.28.27.53.47.6s.35-.03.39-.25c.29-2.69.78-4.32,1.4-5,.61-.67,1.21-.58,2.21.29.16.14.35.2.45.09.12-.07.16-.29.08-.52-.96-3.5-1.56-6.7-1.86-9.58-.02-.18-.1-.36-.22-.52-.12-.16-.25-.26-.39-.27-.47-.03-.94-.02-1.35.15h0Zm-.35,1.83c.39-.48.98-.53,1.56-.57.29,2.5.8,5.2,1.59,8.1-.96-.57-1.84-.72-2.46-.04-.53.62-.88,1.79-1.19,3.26-.65-3.13-.92-5.93-.59-7.93.19-1.26.57-2.2,1.09-2.82h0Zm11.76,3.94c-.08.05-.12.12-.14.23-.29,2.55-.88,5.09-1.85,7.46-.08.14-.02.39.08.61.12.21.29.38.45.42.98.23,1.6.82,2.21,2.23.61,1.36,1.1,3.6,1.41,6.61.02.27.18.55.39.7.2.16.39.13.47-.06,1.23-3,1.58-6.48,1.13-9.74s-1.68-6.34-3.71-8.31c-.12-.16-.27-.2-.43-.15h0Zm.63,1.68c1.31,1.57,2.29,3.79,2.64,6.44.31,2.35.04,4.88-.58,7.26-.29-1.8-.65-3.41-1.19-4.62-.63-1.4-1.5-2.25-2.46-2.78.8-2.02,1.31-4.14,1.6-6.31h0Zm-8.67,5.14l.18.78.57,2.71,5.06,2.87.66-2.64-6.46-3.72Zm1.21,1.78l4.1,2.35-.18.77-3.69-2.09-.23-1.03Z"/></g><path class="cls-20" d="m393.68,445.33v3.63s.59.34.59.34v-3.63s-.59-.34-.59-.34Zm0,4.34v.71s.59.34.59.34v-.71s-.59-.34-.59-.34Zm1.21-3.65v5.81s.59.34.59.34v-5.81s-.59-.34-.59-.34Zm-.02,6.53v.71s.61.37.61.37l-.02-.74-.59-.34Zm1.21-5.87v4.34s.59.34.59.34v-4.34s-.59-.34-.59-.34Zm0,5.1v.71s.61.37.61.37v-.76s-.61-.32-.61-.32Z"/><path class="cls-19" d="m390.73,415.19c-.06.04-.08.1-.1.16-2.07,6.42-1.03,15.24,1.12,22.75.06.25.23.46.43.58l6.02,3.44c.2.11.35.06.43-.08,2.17-5.01,3.24-12.73,1.16-21.51-.08-.33-.33-.64-.57-.68-.23-.04-.37.19-.29.52,1.92,8.27.94,15.59-1.08,20.47l-5.35-3.06c-2.01-7.17-2.96-15.54-1-21.6.08-.19-.02-.51-.18-.74-.21-.24-.43-.34-.59-.24h0Z"/><path class="cls-19" d="m390.97,414.38s-.08.05-.1.11c-.2.45-.43,1.5-.55,1.86-.06.13-.02.34.06.53s.21.34.37.42l8.85,4.99c.16.09.27.06.35-.03s.12-.26.06-.46c-.06-.25-.16-.7-.23-1.13-.1-.46-.18-.88-.27-1.24-.06-.25-.23-.46-.41-.59l-7.81-4.47c-.1-.03-.21-.05-.31.01h0Zm.66,1.28l7.13,4.1c.04.21.12.44.16.7.04.16.04.26.1.41l-7.66-4.29c.1-.35.19-.64.27-.93h0Z"/><path class="cls-19" d="m394.83,409.51c-1.84,1.17-3.1,2.92-3.98,5.04-.06.13-.04.36.04.54s.23.37.35.44l7.85,4.49c.16.09.27.06.37-.05.08-.1.1-.3.04-.5-.88-3.12-2.21-6.38-4.05-9.65-.14-.24-.45-.42-.62-.31h0Zm.33,1.44c1.39,2.56,2.44,5.1,3.21,7.59l-6.37-3.69c.76-1.57,1.8-2.94,3.16-3.9h0Z"/><path class="cls-57" d="m395.17,422.61c-1.25-.72-2.27-.07-2.24,1.43,0,1.51,1,3.28,2.25,4s2.25.08,2.24-1.43c-.02-1.5-1.04-3.31-2.25-4h0Zm0,1.09c.74.42,1.35,1.5,1.35,2.4s-.6,1.28-1.35.86-1.35-1.5-1.35-2.4c-.02-.93.57-1.3,1.35-.86h0Z"/></g><g id="engaging"><polygon class="cls-10" points="409.72 92.26 441.69 94.33 424.93 84.86 409.72 92.26"/><polygon class="cls-48" points="408.51 91.6 404.3 89.08 410.47 83.65 408.51 91.6"/><polygon class="cls-43" points="458.27 3.25 454.4 .82 453.85 5.83 458.27 3.25"/><path class="cls-43" d="m409.25,88.64l40.26-23.22c4.21-2.43,7.64-8.96,7.64-14.58V7.05c0-5.62-3.43-8.21-7.64-5.77l-40.26,23.25c-4.21,2.43-7.62,8.96-7.62,14.58v43.76c0,5.62,3.41,8.26,7.62,5.77Z"/><path class="cls-55" d="m413.72,91.33l40.26-23.22c4.21-2.43,7.64-8.96,7.64-14.58V9.74c0-5.62-3.43-8.21-7.64-5.77l-40.26,23.25c-4.21,2.43-7.62,8.96-7.62,14.58v43.76c0,5.62,3.41,8.26,7.62,5.77Z"/><path class="cls-34" d="m414.81,46.56l8.66-4.95v1.63s-7.99,4.57-7.99,4.57v22.42s6.5-3.72,6.5-3.72c.37-.21.68-.02.68.43v5.94s4.61-9.17,4.61-9.17c.12-.29.31-.47.49-.58l16.34-9.35,1.17.97-17.2,9.84-5.59,11.07c-.18.33-.49.65-.74.64-.25,0-.43-.2-.43-.5v-7.35s-6.57,3.76-6.57,3.76c-.37.21-.68.02-.68-.43v-23.97c.07-.48.38-1.03.75-1.24Z"/><path class="cls-57" d="m431.84,41.9c-1.35.77-2.46,2.74-2.46,4.37s1.1,2.34,2.46,1.56,2.46-2.74,2.46-4.37-1.1-2.34-2.46-1.56h0Zm0,1.63c.61-.35,1.17-.07,1.17.74,0,.74-.49,1.69-1.17,2.08-.61.35-1.11.04-1.11-.78-.06-.78.49-1.69,1.11-2.04h0Zm6.45-5.32c-1.35.77-2.46,2.74-2.46,4.37s1.1,2.34,2.46,1.56,2.46-2.74,2.46-4.37-1.1-2.34-2.46-1.56h0Zm0,1.63c.61-.35,1.11-.04,1.17.74,0,.74-.49,1.69-1.17,2.08-.61.35-1.11.04-1.11-.78s.49-1.69,1.11-2.04h0Zm6.45-5.32c-1.35.77-2.46,2.74-2.46,4.37s1.1,2.34,2.46,1.56,2.46-2.74,2.46-4.37-1.1-2.34-2.46-1.56h0Zm0,1.63c.61-.35,1.11-.04,1.11.78,0,.74-.49,1.69-1.11,2.04s-1.17.07-1.17-.74c.06-.85.55-1.73,1.17-2.08h0Z"/><path class="cls-57" d="m423,37.16l30.59-17.5c.37-.21.68-.02.68.43v24.05c-.01.45-.32.99-.69,1.2l-6.57,3.76v7.35c0,.3-.19.77-.43.99-.25.29-.55.32-.74.2l-2.15-1.81-3.44-2.86-17.32,9.91c-.37.21-.68.02-.68-.43v-24.05c.07-.48.38-1.03.75-1.24Zm.67,23.66l16.95-9.7c.18-.11.37-.06.49.02l3.19,2.7,1.17.89.25.23v-6.01c0-.37.25-.88.56-1.06l.12-.07,6.51-3.72v-22.42s-29.29,16.76-29.29,16.76v22.42s.05-.04.05-.04Z"/></g><g id="daffodil"><polygon class="cls-4" points="291.79 403.91 327.19 381.92 281.99 355.82 291.79 403.91"/><polygon class="cls-47" points="289.21 405.46 293.42 402.94 287.25 397.51 289.21 405.46"/><polygon class="cls-47" points="239.44 317.11 243.32 314.68 243.87 319.69 239.44 317.11"/><path class="cls-47" d="m288.47,402.5l-40.26-23.22c-4.21-2.43-7.64-8.96-7.64-14.58v-43.79c0-5.62,3.43-8.21,7.64-5.77l40.26,23.25c4.21,2.43,7.62,8.96,7.62,14.58v43.76c0,5.62-3.41,8.26-7.62,5.77Z"/><path class="cls-54" d="m284,405.19l-40.26-23.22c-4.21-2.43-7.64-8.96-7.64-14.58v-43.79c0-5.62,3.43-8.21,7.64-5.77l40.26,23.25c4.21,2.43,7.62,8.96,7.62,14.58v43.76c0,5.62-3.41,8.26-7.62,5.77Z"/><polygon class="cls-58" points="274.39 354.78 274.39 363.1 270.5 358.24 264.01 358.5 257.48 350.37 253.52 350.52 253.52 342.1 264.01 341.77 274.39 354.78"/><polygon class="cls-58" points="280.8 371.11 280.8 384.4 270.5 384.97 264.01 376.96 267.93 376.76 267.93 368.42 274.39 368.12 274.39 363.1 280.8 371.11"/><polygon class="cls-58" points="264.01 376.96 257.48 377.29 246.92 364.29 246.92 350.75 253.52 350.52 253.52 355.59 260.08 363.72 260.08 372.1 264.01 376.96"/><polygon class="cls-30" points="257.48 350.37 264.01 358.5 260.08 358.66 260.08 363.72 253.52 355.59 253.52 350.51 257.48 350.37"/><polygon class="cls-30" points="274.39 363.1 274.39 368.12 267.93 368.42 267.94 363.38 264.01 358.5 270.5 358.24 274.39 363.1"/><polygon class="cls-30" points="264.01 368.6 267.93 368.42 267.93 376.76 264.01 376.96 260.08 372.1 260.08 363.72 264.01 368.6"/><polygon class="cls-53" points="267.94 363.38 267.93 368.42 264.01 368.6 260.08 363.72 260.08 358.66 264.01 358.5 267.94 363.38"/></g></svg>