<svg xmlns="http://www.w3.org/2000/svg" xmlns:xlink="http://www.w3.org/1999/xlink" viewBox="0 0 750 1334"><style>.R{font-family:SFProText-Regular,SF Pro Text}.S{fill:#000}.T{font-size:24px}.U{font-family:SFProText-Semibold,SF Pro Text}</style><defs><path d="M702 32c-6.627 0-12 5.373-12 12s5.373 12 12 12 12-5.373 12-12-5.373-12-12-12zm1.414 12l3.293 3.293a1 1 0 0 1-1.414 1.414L702 45.414l-3.293 3.293a1 1 0 0 1-1.414-1.414L700.586 44l-3.293-3.293a1 1 0 0 1 1.414-1.414L702 42.586l3.293-3.293a1 1 0 0 1 1.414 1.414L703.414 44z" id="A"/><linearGradient x1="-.002%" y1="50.054%" x2="99.999%" y2="50.054%" id="B"><stop stop-color="#FFF000" offset="50%"/><stop stop-color="#FFC810" offset="100%"/></linearGradient><linearGradient x1="49.98%" y1="100.01%" x2="49.98%" y2="-.09%" id="C"><stop stop-color="#FFF000" offset="50%"/><stop stop-color="#FFC810" offset="100%"/></linearGradient><linearGradient x1="50.03%" y1="100.009%" x2="50.03%" y2="-.081%" id="D"><stop stop-color="#FFF000" offset="50%"/><stop stop-color="#FFC810" offset="100%"/></linearGradient><path id="E" d="M0 0h750v154H0z"/><filter x="0%" y="-.2%" width="100.1%" height="100.6%" id="F"><feOffset dy=".5" in="SourceAlpha"/><feComposite in2="SourceAlpha" operator="out"/><feColorMatrix values="0 0 0 0 0 0 0 0 0 0 0 0 0 0 0 0 0 0 0.3 0"/></filter></defs><g fill="none"><path d="M0 0h750v1334H0z" fill="#EFEFF4"/><text fill="#8E8E93" class="R T"><tspan x="25" y="423">An icon will be added to your home screen so you can quickly </tspan><tspan x="25" y="452">access this website.</tspan></text><path d="M0 304h750v81H0z" fill="#fff"/><text font-size="27" fill="#8E8E93" transform="translate(0 304)" class="R"><tspan x="159" y="51">https://www.daff.io</tspan></text><path d="M160 304v1h590v-1z" fill="#C7C7CC"/><g transform="translate(0 224)"><path d="M0 0h750v80H0z" fill="#fff"/><text font-size="27" class="R S"><tspan x="159" y="51">Daffodil: Frontend toolkit for ecommerce</tspan></text><use xlink:href="#A" fill="#ccc"/></g><path d="M88.033 286.058l1.413-.818c3.05-1.86 11.008-5.728 19.562-.893l.893.52-.074 1.042a25.6 25.6 0 0 1-.893 4.76l-1.34 3.57s-14.876-3.198-17.33-1.7l-2.23-6.47zm-37.636 13.76l-2.455-3.05c-1.86-2.603-3.05-5.653-3.273-8.85l-.074-1.042.818-.52c10.488-6.47 20.53.818 20.9 1.116l1.934 9.074-17.85 3.273z" fill="#FFF000"/><path d="M40.802 326.372c-1.636-.372-3.198-.893-4.76-1.488-.67-.223-1.04-.893-1.04-1.562.372-8.033 3.198-14.43 8.405-18.967 9.744-8.703 24.322-7.8 24.917-7.8.893.074 1.562.818 1.488 1.71 0 .297 4.388 1.562 4.314 4.686-.074 6.173-4.612 16.14-4.314 16.66.446.744.223 1.785-.595 2.23-.595.372-13.76 7.885-28.413 4.538z" fill="url(#B)"/><path d="M101.273 318.488a45.21 45.21 0 0 1-11.23-4.166c-.744-.446-1.04-1.488-.595-2.23.223-.372-5.653-5.132-5.876-9.595-.223-4.612 5.207-8.777 5.207-9.223-.074-.893.595-1.637 1.488-1.71a46.27 46.27 0 0 1 15.917 2.157c10.785 3.57 17.107 11.083 18.074 21.793a1.554 1.554 0 0 1-1.04 1.637c-7.96 3.198-15.843 2.752-21.942 1.34z" fill="url(#C)"/><path d="M80.967 344.67c-.298-.074-.52-.223-.744-.446-9.967-9.744-12.347-19.785-12.57-26.405-.223-4.24.446-8.48 2.008-12.422.372-.818 2.455-5.058 3.273-4.686.372.148 2.53-3.868 5.876-4.166 3.868-.297 5.504 2.975 5.876 2.678.744-.52 4.017 3.72 4.537 4.388 2.678 3.942 4.463 8.48 5.207 13.314 1.04 7.14-.223 17.702-12.05 27.446-.446.297-.967.372-1.413.297z" fill="url(#D)"/><path d="M65.124 284.72c.372 4.686-.298 11.083 2.23 16.958.52 1.2 1.2 2.306 2.083 3.272 3.273 3.422 8.033 3.347 8.926 3.347 2.603 0 5.132-.818 7.29-2.38 1.413-1.116 2.603-2.53 3.42-4.166 3.273-6.173 2.826-13.686 2.678-16.8-.074 0-27-4.835-26.628-.223z" fill="#FF8500"/><path d="M59.248 267.686c1.34-1.71 5.43 1.34 8.48-.446 2.008-1.2 1.264-3.05 3.124-3.793s2.975 1.2 7.215 1.265c1.34.148 2.603 0 3.868-.446 1.636-.595 2.38-1.414 3.42-1.116a3.665 3.665 0 0 1 1.785 1.7c.744 1.2.446 1.71 1.04 2.23.67.595 1.562.15 3.198-.074.446-.074 5.43-.67 6.397 1.116.074.372.15.744.15 1.116.074 2.455-.52 3.05-.15 3.868.298.744.818.52 2.826 1.71 1.562.967 2.53 1.636 2.678 2.603 0 .744-.223 1.488-.744 2.008-1.34 2.008-2.826 1.86-3.124 3.273-.15.744-.15 1.487-.15 2.23s0 1.04-.15 1.264c-.372.372-1.04.074-2.38-.15a7.432 7.432 0 0 0-3.124-.223c-.967.223-1.86.818-2.455 1.562-1.562 1.637-1.264 2.976-2.157 3.2-1.413.446-2.53-2.752-4.76-2.678-1.2.074-2.23.967-3.72 2.23-1.34 1.116-1.86 2.008-2.455 1.86s-.446-.967-1.34-2.008a4.71 4.71 0 0 0-2.231-1.562c-.298-.074-.967-.223-4.463.967-1.86.595-1.86.744-2.23.67-2.083-.297-1.785-4.165-3.793-4.76-.67-.223-.744.297-3.198.595s-2.975-.075-3.124-.223c-.298-.372-.223-.967-.15-1.934s.372-1.116.223-1.562c-.223-.818-1.34-.744-2.603-1.636-.818-.595-2.008-1.934-1.785-3.124s2.157-2.083 2.975-2.455 1.488-.446 2.008-1.04a3.76 3.76 0 0 0 .67-1.71c.074-.967-.372-1.265-.446-2.23.074-.893.223-1.636.67-2.306z" fill="#FFC000"/><path d="M66.463 281.074c-.446-.52.595-2.306 1.86-3.645 3.57-3.793 9.15-3.942 10.636-3.942s7.364.074 10.04 4.016c1.04 1.488 1.636 3.645 1.2 3.942-.298.223-.818-.595-2.083-.967-1.785-.52-2.53.744-5.504 1.264-1.264.15-2.603.15-3.868.075-1.116 0-2.23 0-3.347-.15-2.603-.446-2.826-1.265-4.686-1.34-2.38-.15-3.793 1.2-4.24.744z" fill="#FF8500"/><use filter="url(#F)" xlink:href="#E" class="S"/><use xlink:href="#E" fill-opacity=".82" fill="#F8F8F8"/><g font-size="34"><text letter-spacing="-.41" fill="#007AFF" transform="translate(0 66)" class="R"><tspan x="30" y="52">Cancel</tspan></text><g font-weight="500" class="U" letter-spacing="-.82"><text class="S"><tspan x="211" y="118">Add to Home Screen</tspan></text><text fill="#007AFF" transform="translate(410 66)"><tspan x="245" y="52">Add</tspan></text></g></g><path d="M0 14h750v40H0z" fill-opacity="0" class="S"/><text fill="#030303" transform="translate(598 21)" class="R T"><tspan x="5.707" y="23">100%</tspan></text><g class="S"><path d="M716 30c1.725.444 3 2 3 3.874s-1.275 3.43-3 3.874V30z" fill-opacity=".5"/><rect x="674" y="27" width="36" height="13" rx="2"/></g><g fill="#030303"><text font-weight="500" transform="translate(0 14)" class="T U"><tspan x="328.48" y="30">9:41 AM</tspan></text><path d="M124.29 38.877L120.045 43l-4.325-4.19a5.717 5.717 0 0 1 4.255-1.873c1.73 0 3.278.753 4.314 1.94zm4.358-4.234l-2.178 2.116a8.834 8.834 0 0 0-6.494-2.806 8.84 8.84 0 0 0-6.437 2.744l-2.18-2.112c2.155-2.226 5.218-3.617 8.617-3.617 3.428 0 6.514 1.415 8.672 3.674zm4.353-4.23l-2.176 2.115c-2.716-2.797-6.572-4.544-10.85-4.544-4.25 0-8.083 1.724-10.796 4.5l-2.18-2.11c3.27-3.305 7.875-5.363 12.975-5.363 5.126 0 9.75 2.08 13.025 5.414z"/></g><g class="S"><text transform="translate(0 14)" class="R T"><tspan x="68" y="30">GS</tspan></text><path d="M54 24.995c0-.55.444-.995 1-.995h3a1 1 0 0 1 1 .995v17.01c0 .55-.444.995-1 .995h-3a1 1 0 0 1-1-.995v-17.01zm-8 5.012A1 1 0 0 1 47 29h3c.552 0 1 .45 1 1.007v11.986A1 1 0 0 1 50 43h-3c-.552 0-1-.45-1-1.007V30.007zm-8 3.99c0-.55.444-.996 1-.996h3c.552 0 1 .456 1 .996v8.01c0 .55-.444.996-1 .996h-3c-.552 0-1-.456-1-.996v-8.01zm-8 3.995c0-.547.444-.99 1-.99h3a1 1 0 0 1 1 .991v4.02c0 .547-.444.99-1 .99h-3a1 1 0 0 1-1-.991v-4.02z"/></g></g></svg>