<svg viewBox="0 0 200 208" width="100%">
	<path d="M199.972 102.081V173.178L138.409 208.729L76.8384 173.17V102.081L138.409 66.5555L199.972 102.081Z" fill="#FFCC67"/>
	<path d="M161.596 35.5571V106.654L100.033 142.205L38.4624 106.646V35.5571L100.033 0.0314941L161.596 35.5571Z" fill="#FFCC67"/>
	<path d="M123.162 102.081V173.178L61.5988 208.729L0.0283203 173.17V102.081L61.5988 66.5555L123.162 102.081Z" fill="#FFCC67"/>
	<path d="M61.6224 66.5555L100.028 88.7182L76.8385 102.1V128.876L38.4326 106.695V79.9374L61.6224 66.5555Z" fill="#FBAC32"/>
	<path d="M161.622 79.9374V106.695L123.215 128.873V102.1L100.028 88.7182L138.433 66.5555L161.622 79.9374Z" fill="#FBAC32"/>
	<path d="M100.025 142.266L123.215 128.873V173.219L100.028 186.612L76.8384 173.219V128.876L100.025 142.266Z" fill="#FBAC32"/>
	<path d="M123.215 102.1V128.878L100.028 142.268L76.8384 128.875V102.1L100.028 88.7197L123.215 102.1Z" fill="#F79426"/>
</svg>